G04 #@! TF.GenerationSoftware,KiCad,Pcbnew,(2017-01-15 revision 8ac4790)-master*
G04 #@! TF.CreationDate,2017-01-26T15:31:56+02:00*
G04 #@! TF.ProjectId,MM3,4D4D332E6B696361645F706362000000,rev?*
G04 #@! TF.FileFunction,Copper,L2,Bot,Signal*
G04 #@! TF.FilePolarity,Positive*
%FSLAX46Y46*%
G04 Gerber Fmt 4.6, Leading zero omitted, Abs format (unit mm)*
G04 Created by KiCad (PCBNEW (2017-01-15 revision 8ac4790)-master) date Thu Jan 26 15:31:56 2017*
%MOMM*%
%LPD*%
G01*
G04 APERTURE LIST*
%ADD10C,0.100000*%
%ADD11C,0.150000*%
%ADD12C,0.300000*%
%ADD13O,1.500000X2.500000*%
%ADD14C,3.937000*%
%ADD15C,1.500000*%
%ADD16O,2.200000X1.500000*%
%ADD17R,1.501140X4.000500*%
%ADD18C,2.000000*%
%ADD19O,1.500000X2.200000*%
%ADD20R,1.397000X0.889000*%
%ADD21R,0.889000X1.397000*%
%ADD22O,2.000000X1.500000*%
%ADD23R,10.668000X8.890000*%
%ADD24R,1.778000X2.286000*%
%ADD25R,1.524000X2.032000*%
%ADD26R,1.000000X0.500000*%
%ADD27R,8.890000X10.668000*%
%ADD28R,2.286000X1.778000*%
%ADD29C,2.000000*%
%ADD30C,1.000000*%
%ADD31C,0.500000*%
%ADD32C,1.500000*%
%ADD33C,0.254000*%
G04 APERTURE END LIST*
D10*
D11*
X-4950000Y-7600000D02*
X-4950000Y56900000D01*
X-4950000Y56900000D02*
X94950000Y56900000D01*
X94950000Y-7600000D02*
X-4950000Y-7600000D01*
D12*
X87585928Y-2468357D02*
X87371642Y-2539785D01*
X87300214Y-2611214D01*
X87228785Y-2754071D01*
X87228785Y-2968357D01*
X87300214Y-3111214D01*
X87371642Y-3182642D01*
X87514500Y-3254071D01*
X88085928Y-3254071D01*
X88085928Y-1754071D01*
X87585928Y-1754071D01*
X87443071Y-1825500D01*
X87371642Y-1896928D01*
X87300214Y-2039785D01*
X87300214Y-2182642D01*
X87371642Y-2325500D01*
X87443071Y-2396928D01*
X87585928Y-2468357D01*
X88085928Y-2468357D01*
X86371642Y-3254071D02*
X86514500Y-3182642D01*
X86585928Y-3111214D01*
X86657357Y-2968357D01*
X86657357Y-2539785D01*
X86585928Y-2396928D01*
X86514500Y-2325500D01*
X86371642Y-2254071D01*
X86157357Y-2254071D01*
X86014500Y-2325500D01*
X85943071Y-2396928D01*
X85871642Y-2539785D01*
X85871642Y-2968357D01*
X85943071Y-3111214D01*
X86014500Y-3182642D01*
X86157357Y-3254071D01*
X86371642Y-3254071D01*
D11*
X40532500Y-7592000D02*
X40532500Y-7592000D01*
X94950000Y56900000D02*
X94950000Y-7600000D01*
X80283500Y50764500D02*
X80283500Y50764500D01*
D13*
X49530000Y0D03*
X46990000Y0D03*
X44450000Y0D03*
X36830000Y0D03*
X39370000Y0D03*
X41910000Y0D03*
X31750000Y0D03*
X29210000Y0D03*
X26670000Y0D03*
X21590000Y0D03*
X19050000Y0D03*
X49530000Y48260000D03*
X46990000Y48260000D03*
X44450000Y48260000D03*
X41910000Y48260000D03*
X39370000Y48260000D03*
X36830000Y48260000D03*
X34290000Y48260000D03*
X31750000Y48260000D03*
X27686000Y48260000D03*
X25146000Y48260000D03*
X22606000Y48260000D03*
X20066000Y48260000D03*
X17526000Y48260000D03*
X14986000Y48260000D03*
X12446000Y48260000D03*
X9906000Y48260000D03*
X24130000Y0D03*
D14*
X52070000Y5080000D03*
X52070000Y33020000D03*
X1270000Y48260000D03*
X0Y0D03*
D13*
X7366000Y48260000D03*
X4826000Y48260000D03*
D15*
X65932500Y23015000D03*
D10*
G36*
X65182500Y23765000D02*
X66682500Y23765000D01*
X66682500Y22265000D01*
X65182500Y22265000D01*
X65182500Y23765000D01*
X65182500Y23765000D01*
G37*
D15*
X65932500Y21015000D03*
X65932500Y19015000D03*
X65932500Y17015000D03*
X65932500Y15015000D03*
X65932500Y13015000D03*
X65932500Y11015000D03*
X65932500Y9015000D03*
X65932500Y7015000D03*
X65932500Y5015000D03*
X65932500Y3015000D03*
X65932500Y1015000D03*
X65932500Y-985000D03*
X65932500Y-2985000D03*
X92682500Y-2985000D03*
X92682500Y-985000D03*
X92682500Y1015000D03*
X92682500Y3015000D03*
X92682500Y5015000D03*
X92682500Y7015000D03*
X92682500Y9015000D03*
X92682500Y11015000D03*
X92682500Y13015000D03*
X92682500Y15015000D03*
X92682500Y17015000D03*
X92682500Y19015000D03*
X92682500Y21015000D03*
X92682500Y23015000D03*
D16*
X49740000Y28984000D03*
X49740000Y26444000D03*
X49740000Y21364000D03*
X49740000Y23904000D03*
D17*
X63329000Y51526500D03*
X63329000Y40927080D03*
D18*
X23898500Y11707500D03*
X23898500Y14247500D03*
X24046000Y33061000D03*
X24046000Y35601000D03*
X92666000Y46764000D03*
X90126000Y46764000D03*
X74759000Y-6068000D03*
X77299000Y-6068000D03*
X86760500Y-6068000D03*
X89300500Y-6068000D03*
X57677500Y31016000D03*
X60217500Y31016000D03*
D19*
X61741500Y-2004000D03*
X56661500Y-2004000D03*
X59201500Y-2004000D03*
D18*
X44342500Y55082500D03*
X41802500Y55082500D03*
X39262500Y55082500D03*
X36722500Y55082500D03*
X36722500Y-5750500D03*
X39262500Y-5750500D03*
X41802500Y-5750500D03*
X44342500Y-5750500D03*
X92793000Y38318500D03*
X90253000Y38318500D03*
X87713000Y38318500D03*
X85173000Y38318500D03*
X82633000Y38318500D03*
X80093000Y38318500D03*
X72917500Y37747000D03*
X75457500Y37747000D03*
D20*
X82950500Y20475000D03*
X82950500Y18570000D03*
D21*
X76346500Y23967500D03*
X74441500Y23967500D03*
D19*
X12211500Y-289500D03*
X9671500Y-289500D03*
X4591500Y-289500D03*
X7131500Y-289500D03*
D18*
X11733500Y15554500D03*
X6653500Y16824500D03*
X11733500Y18094500D03*
X6653500Y19364500D03*
D22*
X11733500Y20634500D03*
D18*
X6653500Y21904500D03*
D22*
X11733500Y23174500D03*
D18*
X6653500Y24444500D03*
X11733500Y25714500D03*
X6653500Y26984500D03*
X11733500Y28254500D03*
X6653500Y29524500D03*
X11733500Y30794500D03*
X6653500Y32064500D03*
X11733500Y33334500D03*
D23*
X77108500Y11648500D03*
D24*
X77108500Y20411500D03*
X74568500Y20411500D03*
X79648500Y20411500D03*
D25*
X76219500Y26761500D03*
X72917500Y26761500D03*
D20*
X58550000Y9200000D03*
X58550000Y11105000D03*
X58350000Y13700000D03*
X58350000Y15605000D03*
D26*
X43650000Y25738000D03*
X43650000Y26500000D03*
X43650000Y27262000D03*
D27*
X46987000Y14560000D03*
D28*
X55750000Y14560000D03*
X55750000Y17100000D03*
X55750000Y12020000D03*
D15*
X40254623Y38800000D03*
X37250000Y19100000D03*
X30150000Y18900000D03*
X53050000Y17100000D03*
X14679319Y-2757319D03*
X26650080Y-2628558D03*
X2484009Y38943943D03*
X-650000Y42900000D03*
X28450000Y55082500D03*
X4083500Y25364500D03*
X88079177Y33183962D03*
X39348033Y41364944D03*
X24911500Y42128500D03*
X60027000Y36985000D03*
X62059000Y36985000D03*
X81490000Y-6068000D03*
X63710000Y345500D03*
X70504500Y-988000D03*
X68472500Y21046500D03*
X54150000Y36800000D03*
X91713500Y29682500D03*
X89681500Y20538500D03*
X9163500Y25364500D03*
X46501500Y55019000D03*
X33293500Y-5687000D03*
X63583000Y6251000D03*
X57150000Y37100000D03*
X42850000Y32700000D03*
X31850000Y-2700000D03*
X61529639Y50903351D03*
X65550000Y51526500D03*
X61285736Y13236000D03*
X61297000Y15077500D03*
X81553500Y22316500D03*
X34850000Y39000000D03*
X36050000Y44700000D03*
X39396288Y43775989D03*
X26557992Y43530500D03*
X29850000Y45000000D03*
X4845500Y37556500D03*
X53050000Y46300000D03*
X66850000Y47700000D03*
X6877500Y10378500D03*
X10941500Y9870500D03*
X84490462Y28380292D03*
X81172500Y43335000D03*
X85871500Y19205000D03*
X47050000Y7300000D03*
X60050000Y46000000D03*
X54750000Y48400000D03*
X87567729Y28798800D03*
X84191630Y53541951D03*
X83077500Y43335000D03*
X87586000Y20602000D03*
X32550002Y39100000D03*
X30650000Y39200000D03*
X60850000Y25900000D03*
X58757000Y17554000D03*
X72185000Y5015000D03*
X83839500Y10632500D03*
X89110000Y15966500D03*
X65996000Y31270000D03*
X53613500Y-4099500D03*
X41750000Y53000000D03*
X39250000Y53000000D03*
X-650000Y15200000D03*
X-2243005Y9362698D03*
X90824500Y53431500D03*
X88538500Y53431500D03*
X86316000Y53495000D03*
X79267500Y25872500D03*
X71003025Y24305109D03*
X70441000Y20856000D03*
X32350000Y13300000D03*
X29994500Y8405500D03*
X-1842317Y-3220026D03*
X19271032Y23927063D03*
X9525000Y33020000D03*
X6369500Y4282500D03*
X58350000Y25600000D03*
D29*
X40254623Y22104623D02*
X40254623Y38800000D01*
X40254623Y38800000D02*
X40254623Y40458354D01*
X37250000Y19100000D02*
X40254623Y22104623D01*
X40254623Y40458354D02*
X39348033Y41364944D01*
X39348033Y41364944D02*
X58085056Y41364944D01*
X58085056Y41364944D02*
X60027000Y39423000D01*
X60027000Y39423000D02*
X60027000Y36985000D01*
D30*
X55550000Y31200000D02*
X55550000Y32508000D01*
X55550000Y32508000D02*
X60027000Y36985000D01*
X53334000Y28984000D02*
X55550000Y31200000D01*
X49740000Y28984000D02*
X53334000Y28984000D01*
D12*
X37183623Y18900000D02*
X31210660Y18900000D01*
X31210660Y18900000D02*
X30150000Y18900000D01*
X40254623Y21971000D02*
X37183623Y18900000D01*
D30*
X55750000Y17100000D02*
X53050000Y17100000D01*
X55750000Y17100000D02*
X56855000Y17100000D01*
X56855000Y17100000D02*
X58350000Y15605000D01*
D31*
X59950000Y10346000D02*
X59950000Y14259000D01*
X59950000Y14259000D02*
X58604000Y15605000D01*
X58604000Y15605000D02*
X58350000Y15605000D01*
X58550000Y9200000D02*
X58804000Y9200000D01*
X58804000Y9200000D02*
X59950000Y10346000D01*
D30*
X26650080Y-2628558D02*
X26521319Y-2757319D01*
X26521319Y-2757319D02*
X14679319Y-2757319D01*
X14679319Y-2757319D02*
X12211500Y-289500D01*
X-650000Y42900000D02*
X2484009Y39765991D01*
X2484009Y39765991D02*
X2484009Y38943943D01*
X28450000Y55082500D02*
X36722500Y55082500D01*
D29*
X90126000Y46764000D02*
X88711787Y46764000D01*
X88711787Y46764000D02*
X88648287Y46827500D01*
X88648287Y46827500D02*
X69692804Y46827500D01*
X69692804Y46827500D02*
X63792384Y40927080D01*
X63792384Y40927080D02*
X63329000Y40927080D01*
X5003500Y24444500D02*
X4083500Y25364500D01*
X4083500Y25364500D02*
X2484009Y26963991D01*
D32*
X88079177Y33183962D02*
X87713000Y33550139D01*
X87713000Y33550139D02*
X87713000Y38318500D01*
D29*
X33547500Y41366500D02*
X25673500Y41366500D01*
X39348033Y41364944D02*
X33549056Y41364944D01*
X33549056Y41364944D02*
X33547500Y41366500D01*
X25673500Y41366500D02*
X24911500Y42128500D01*
X6653500Y24444500D02*
X5003500Y24444500D01*
X2484009Y26963991D02*
X2484009Y38943943D01*
X2484009Y38943943D02*
X7192566Y43652500D01*
X7192566Y43652500D02*
X10941500Y43652500D01*
X23387500Y43652500D02*
X24911500Y42128500D01*
X10941500Y43652500D02*
X23387500Y43652500D01*
D30*
X70504500Y17617500D02*
X67107000Y21015000D01*
X67107000Y21015000D02*
X65932500Y21015000D01*
X75457500Y17617500D02*
X70504500Y17617500D01*
X74441500Y23967500D02*
X74441500Y25237500D01*
X74441500Y25237500D02*
X72917500Y26761500D01*
X74441500Y23967500D02*
X74441500Y20538500D01*
X74441500Y20538500D02*
X74568500Y20411500D01*
X75457500Y17617500D02*
X74568500Y18506500D01*
X74568500Y18506500D02*
X74568500Y20411500D01*
X82061500Y17617500D02*
X75457500Y17617500D01*
X82950500Y18506500D02*
X82061500Y17617500D01*
X82950500Y18570000D02*
X82950500Y18506500D01*
D29*
X62059000Y36985000D02*
X60027000Y36985000D01*
D30*
X60344500Y-5750500D02*
X69107500Y-5750500D01*
D31*
X77299000Y-6068000D02*
X81490000Y-6068000D01*
X81490000Y-6068000D02*
X86760500Y-6068000D01*
D32*
X65932500Y21015000D02*
X68441000Y21015000D01*
X68441000Y21015000D02*
X68472500Y21046500D01*
D31*
X63710000Y345500D02*
X63710000Y-35500D01*
X63710000Y-35500D02*
X61741500Y-2004000D01*
D30*
X87713000Y41176000D02*
X90126000Y43589000D01*
X90126000Y43589000D02*
X90126000Y46764000D01*
X87713000Y38318500D02*
X87713000Y41176000D01*
X60344500Y-5750500D02*
X61741500Y-4353500D01*
X61741500Y-4353500D02*
X61741500Y-2004000D01*
X44342500Y-5750500D02*
X60344500Y-5750500D01*
X69107500Y-5750500D02*
X70504500Y-4353500D01*
X70504500Y-4353500D02*
X70504500Y-988000D01*
X53089340Y36800000D02*
X54150000Y36800000D01*
X50250000Y36800000D02*
X53089340Y36800000D01*
X43650000Y30200000D02*
X50250000Y36800000D01*
X43650000Y27900000D02*
X43650000Y30200000D01*
D31*
X43650000Y27262000D02*
X43650000Y27900000D01*
D30*
X60217500Y31016000D02*
X60217500Y29580000D01*
X60217500Y29580000D02*
X62083500Y27714000D01*
X62083500Y27714000D02*
X62069500Y27700000D01*
X91967500Y29936500D02*
X91967500Y36604000D01*
X91967500Y36604000D02*
X90253000Y38318500D01*
X91713500Y29682500D02*
X91967500Y29936500D01*
X87268500Y23967500D02*
X89681500Y21554500D01*
X89681500Y21554500D02*
X89681500Y20538500D01*
X76346500Y23967500D02*
X87268500Y23967500D01*
X70123500Y29936500D02*
X73044500Y29936500D01*
X73044500Y29936500D02*
X76219500Y26761500D01*
X67901000Y27714000D02*
X70123500Y29936500D01*
X62083500Y27714000D02*
X67901000Y27714000D01*
X72917500Y34508500D02*
X76219500Y31206500D01*
X76219500Y31206500D02*
X76219500Y26761500D01*
X72917500Y37747000D02*
X72917500Y34508500D01*
X9163500Y25364500D02*
X11383500Y25364500D01*
X11383500Y25364500D02*
X11733500Y25714500D01*
X89935500Y38001000D02*
X90253000Y38318500D01*
D32*
X44342500Y55082500D02*
X46438000Y55082500D01*
X46438000Y55082500D02*
X46501500Y55019000D01*
D30*
X33293500Y-5687000D02*
X36659000Y-5687000D01*
X36659000Y-5687000D02*
X36722500Y-5750500D01*
X63583000Y5267500D02*
X56661500Y-1654000D01*
X56661500Y-1654000D02*
X56661500Y-2004000D01*
X63583000Y6251000D02*
X63583000Y26214500D01*
X63583000Y26214500D02*
X62083500Y27714000D01*
X63583000Y6251000D02*
X63583000Y5267500D01*
X76346500Y23967500D02*
X76346500Y26634500D01*
X76346500Y26634500D02*
X76219500Y26761500D01*
X76346500Y23332500D02*
X77108500Y22570500D01*
X77108500Y22570500D02*
X77108500Y20411500D01*
X76346500Y23967500D02*
X76346500Y23332500D01*
X50210660Y39000000D02*
X55250000Y39000000D01*
X55250000Y39000000D02*
X57150000Y37100000D01*
X42850000Y32700000D02*
X43910660Y32700000D01*
X43910660Y32700000D02*
X50210660Y39000000D01*
X55750000Y12020000D02*
X57635000Y12020000D01*
X57635000Y12020000D02*
X58550000Y11105000D01*
X55713000Y9271000D02*
X55750000Y9308000D01*
X55750000Y9308000D02*
X55750000Y12020000D01*
X55713000Y9271000D02*
X58483722Y6500278D01*
X58483722Y6500278D02*
X61285736Y6500278D01*
D31*
X58495000Y11160000D02*
X58550000Y11105000D01*
D32*
X35652500Y-2702500D02*
X31852500Y-2702500D01*
X31852500Y-2702500D02*
X31850000Y-2700000D01*
X52082958Y-2702500D02*
X35652500Y-2702500D01*
X35652500Y-2702500D02*
X35650000Y-2700000D01*
D29*
X61529639Y50903351D02*
X61526288Y50900000D01*
X61526288Y50900000D02*
X37950000Y50900000D01*
X37950000Y50900000D02*
X36592645Y52257355D01*
X36592645Y52257355D02*
X-592645Y52257355D01*
X-592645Y52257355D02*
X-3650000Y49200000D01*
X-3650000Y49200000D02*
X-3650000Y24208000D01*
X-3650000Y24208000D02*
X1193500Y19364500D01*
X1193500Y19364500D02*
X6653500Y19364500D01*
X62705851Y50903351D02*
X63329000Y51526500D01*
X61529639Y50903351D02*
X62705851Y50903351D01*
X63329000Y51526500D02*
X65550000Y51526500D01*
D32*
X52082958Y-2702500D02*
X61285736Y6500278D01*
X61285736Y6500278D02*
X61285736Y15066236D01*
X61285736Y15066236D02*
X61297000Y15077500D01*
D30*
X81553500Y22316500D02*
X79648500Y20411500D01*
X82950500Y20475000D02*
X79712000Y20475000D01*
X79712000Y20475000D02*
X79648500Y20411500D01*
D31*
X11733500Y20634500D02*
X21784500Y20634500D01*
X21784500Y20634500D02*
X34850000Y33700000D01*
X34850000Y33700000D02*
X34850000Y37939340D01*
X34850000Y37939340D02*
X34850000Y39000000D01*
D12*
X39389500Y48240500D02*
X39370000Y48260000D01*
D31*
X39370000Y48260000D02*
X39370000Y47760000D01*
X36050000Y44700000D02*
X38472277Y44700000D01*
X38472277Y44700000D02*
X39396288Y43775989D01*
D12*
X39396288Y43775989D02*
X39389500Y43782777D01*
D31*
X27686000Y48260000D02*
X27686000Y47760000D01*
X26557992Y43530500D02*
X27967681Y44940189D01*
X27967681Y44940189D02*
X29790189Y44940189D01*
X29790189Y44940189D02*
X29850000Y45000000D01*
X6019500Y26984500D02*
X4845500Y28158500D01*
X4845500Y28158500D02*
X4845500Y37556500D01*
X6653500Y26984500D02*
X6019500Y26984500D01*
X66850000Y47700000D02*
X63900001Y44750001D01*
X53799999Y45550001D02*
X53050000Y46300000D01*
X54599999Y44750001D02*
X53799999Y45550001D01*
X63900001Y44750001D02*
X54599999Y44750001D01*
X46990000Y48260000D02*
X46990000Y48760000D01*
X10941500Y9870500D02*
X7385500Y9870500D01*
X7385500Y9870500D02*
X6877500Y10378500D01*
X83839500Y29031254D02*
X83839500Y35697787D01*
X83839500Y35697787D02*
X82633000Y36904287D01*
X84490462Y28380292D02*
X83839500Y29031254D01*
X82633000Y36904287D02*
X82633000Y38318500D01*
X82633000Y38318500D02*
X82633000Y41874500D01*
X82633000Y41874500D02*
X81172500Y43335000D01*
X85871500Y11394500D02*
X90251000Y7015000D01*
X90251000Y7015000D02*
X92682500Y7015000D01*
X85871500Y19205000D02*
X85871500Y11394500D01*
X47050000Y7300000D02*
X44425968Y4675968D01*
X44425968Y4675968D02*
X12825968Y4675968D01*
X12825968Y4675968D02*
X9671500Y1521500D01*
X9671500Y1521500D02*
X9671500Y-289500D01*
X49530000Y48260000D02*
X49530000Y48760000D01*
X58750000Y46000000D02*
X60050000Y46000000D01*
X60050000Y46000000D02*
X63250000Y46000000D01*
X77946127Y55319775D02*
X73650000Y55319775D01*
X63250000Y46000000D02*
X72569775Y55319775D01*
X72569775Y55319775D02*
X73650000Y55319775D01*
X56350000Y48400000D02*
X58750000Y46000000D01*
X54750000Y48400000D02*
X56350000Y48400000D01*
X87567729Y28798800D02*
X86374200Y28798800D01*
X86374200Y28798800D02*
X85173000Y30000000D01*
X85173000Y30000000D02*
X85173000Y38318500D01*
X84191630Y53541951D02*
X83441631Y52791952D01*
X83441631Y52791952D02*
X80473950Y52791952D01*
X80473950Y52791952D02*
X77946127Y55319775D01*
X85173000Y38318500D02*
X85173000Y41239500D01*
X85173000Y41239500D02*
X83077500Y43335000D01*
X87586000Y11712000D02*
X90283000Y9015000D01*
X90283000Y9015000D02*
X92682500Y9015000D01*
X87586000Y20602000D02*
X87586000Y11712000D01*
X6653500Y21904500D02*
X21954500Y21904500D01*
X21954500Y21904500D02*
X32550002Y32500002D01*
X32550002Y32500002D02*
X32550002Y38039340D01*
X32550002Y38039340D02*
X32550002Y39100000D01*
X41910000Y48260000D02*
X41910000Y47760000D01*
X41910000Y48260000D02*
X41910000Y48760000D01*
X11733500Y28254500D02*
X12733499Y27254501D01*
X12733499Y27254501D02*
X26204501Y27254501D01*
X26204501Y27254501D02*
X30650000Y31700000D01*
X30650000Y31700000D02*
X30650000Y39200000D01*
X60100001Y25150001D02*
X60850000Y25900000D01*
X58854000Y23904000D02*
X60100001Y25150001D01*
X49740000Y23904000D02*
X58854000Y23904000D01*
X46946000Y653616D02*
X46946000Y44000D01*
X46946000Y44000D02*
X46990000Y0D01*
X52737000Y19967000D02*
X56344000Y19967000D01*
X56344000Y19967000D02*
X58757000Y17554000D01*
X49740000Y21364000D02*
X51340000Y21364000D01*
X51340000Y21364000D02*
X52737000Y19967000D01*
X74759000Y-6068000D02*
X74759000Y2441000D01*
X74759000Y2441000D02*
X72185000Y5015000D01*
X72185000Y5015000D02*
X65932500Y5015000D01*
X89300500Y5171500D02*
X83839500Y10632500D01*
X90189500Y17046000D02*
X90220500Y17015000D01*
X90220500Y17015000D02*
X92682500Y17015000D01*
X89110000Y15966500D02*
X90189500Y17046000D01*
X89300500Y-6068000D02*
X89300500Y5171500D01*
X58739787Y33492500D02*
X63773500Y33492500D01*
X63773500Y33492500D02*
X65996000Y31270000D01*
X57677500Y31016000D02*
X57677500Y32430213D01*
X57677500Y32430213D02*
X58739787Y33492500D01*
X53613500Y-4099500D02*
X57456000Y-4099500D01*
X57456000Y-4099500D02*
X59201500Y-2354000D01*
X59201500Y-2354000D02*
X59201500Y-2004000D01*
X41802500Y53368000D02*
X41802500Y53052500D01*
X41802500Y53052500D02*
X41750000Y53000000D01*
X41802500Y53368000D02*
X41802500Y55082500D01*
X39262500Y55082500D02*
X39262500Y53012500D01*
X39262500Y53012500D02*
X39250000Y53000000D01*
X-650000Y15200000D02*
X-4264063Y11585937D01*
X-4264063Y11585937D02*
X-4264063Y-4235619D01*
X32711501Y-7200501D02*
X37812499Y-7200501D01*
X-4264063Y-4235619D02*
X-2667713Y-5831969D01*
X-2667713Y-5831969D02*
X31342969Y-5831969D01*
X31342969Y-5831969D02*
X32711501Y-7200501D01*
X37812499Y-7200501D02*
X38262501Y-6750499D01*
X38262501Y-6750499D02*
X39262500Y-5750500D01*
X-2243005Y9362698D02*
X-3163889Y8441814D01*
X-3163889Y8441814D02*
X-3163889Y-4004434D01*
X-3163889Y-4004434D02*
X-2400952Y-4767371D01*
X-2400952Y-4767371D02*
X31006544Y-4767371D01*
X31006544Y-4767371D02*
X31636912Y-4137003D01*
X31636912Y-4137003D02*
X40189003Y-4137003D01*
X40189003Y-4137003D02*
X41802500Y-5750500D01*
D29*
X90824500Y53431500D02*
X91885160Y53431500D01*
X91885160Y53431500D02*
X92666000Y52650660D01*
X92666000Y52650660D02*
X92666000Y46764000D01*
X88538500Y53431500D02*
X86379500Y53431500D01*
X86379500Y53431500D02*
X86316000Y53495000D01*
X90824500Y53431500D02*
X88538500Y53431500D01*
D30*
X92682500Y23015000D02*
X89779021Y25918479D01*
X89779021Y25918479D02*
X79313479Y25918479D01*
X79313479Y25918479D02*
X79267500Y25872500D01*
X79267500Y25872500D02*
X78251500Y26888500D01*
X65932500Y23015000D02*
X69712916Y23015000D01*
X69712916Y23015000D02*
X71003025Y24305109D01*
X78251500Y26888500D02*
X78251500Y32984500D01*
X78251500Y32984500D02*
X75457500Y35778500D01*
X75457500Y35778500D02*
X75457500Y37747000D01*
D31*
X69552000Y22805660D02*
X66141840Y22805660D01*
X66141840Y22805660D02*
X65932500Y23015000D01*
X70441000Y21916660D02*
X69552000Y22805660D01*
X70441000Y20856000D02*
X70441000Y21916660D01*
D30*
X29994500Y8405500D02*
X27200500Y8405500D01*
X27200500Y8405500D02*
X23898500Y11707500D01*
X32350000Y13300000D02*
X32350000Y10761000D01*
X32350000Y10761000D02*
X29994500Y8405500D01*
D29*
X23898500Y11707500D02*
X11770500Y11707500D01*
X11770500Y11707500D02*
X6653500Y16824500D01*
X17740500Y14247500D02*
X13893500Y18094500D01*
X13893500Y18094500D02*
X11733500Y18094500D01*
X23898500Y14247500D02*
X17740500Y14247500D01*
X11733500Y30794500D02*
X15355500Y30794500D01*
X15355500Y30794500D02*
X17622000Y33061000D01*
X17622000Y33061000D02*
X24046000Y33061000D01*
X8986000Y35601000D02*
X6653500Y33268500D01*
X6653500Y33268500D02*
X6653500Y32064500D01*
X24046000Y35601000D02*
X8986000Y35601000D01*
D31*
X4550974Y-3220026D02*
X-781657Y-3220026D01*
X7131500Y-289500D02*
X7131500Y-639500D01*
X7131500Y-639500D02*
X4550974Y-3220026D01*
X-781657Y-3220026D02*
X-1842317Y-3220026D01*
X18518469Y23174500D02*
X11733500Y23174500D01*
X19271032Y23927063D02*
X18518469Y23174500D01*
X9525000Y32396000D02*
X9525000Y33020000D01*
X6653500Y29524500D02*
X9525000Y32396000D01*
D30*
X24350000Y5800000D02*
X32782000Y5800000D01*
X32782000Y5800000D02*
X41542000Y14560000D01*
X41542000Y14560000D02*
X46987000Y14560000D01*
X22650000Y7500000D02*
X24350000Y5800000D01*
X9587000Y7500000D02*
X22650000Y7500000D01*
X6369500Y4282500D02*
X9587000Y7500000D01*
X43650000Y25100000D02*
X43650000Y21200000D01*
X46987000Y17863000D02*
X46987000Y14560000D01*
X43650000Y21200000D02*
X46987000Y17863000D01*
D31*
X43650000Y25738000D02*
X43650000Y25100000D01*
X43650000Y17897000D02*
X46987000Y14560000D01*
D30*
X55750000Y14560000D02*
X46987000Y14560000D01*
X58350000Y13700000D02*
X56610000Y13700000D01*
X56610000Y13700000D02*
X55750000Y14560000D01*
X4591500Y-289500D02*
X4591500Y2504500D01*
X4591500Y2504500D02*
X6369500Y4282500D01*
D31*
X43650000Y26500000D02*
X44650000Y26500000D01*
D30*
X44650000Y26500000D02*
X44706000Y26444000D01*
X44706000Y26444000D02*
X49740000Y26444000D01*
D31*
X49740000Y26444000D02*
X57506000Y26444000D01*
X57506000Y26444000D02*
X58350000Y25600000D01*
D33*
G36*
X79848158Y52166165D02*
X79848160Y52166162D01*
X80012852Y52056119D01*
X80135276Y51974318D01*
X80473950Y51906951D01*
X80473955Y51906952D01*
X83441626Y51906952D01*
X83441631Y51906951D01*
X83724115Y51963142D01*
X83780306Y51974319D01*
X84053815Y52157071D01*
X84465915Y52156711D01*
X84975145Y52367120D01*
X85074644Y52466445D01*
X85159880Y52338880D01*
X85223378Y52275383D01*
X85223380Y52275380D01*
X85753813Y51920957D01*
X86379500Y51796499D01*
X86379505Y51796500D01*
X91031000Y51796500D01*
X91031000Y46765426D01*
X91030716Y46440205D01*
X91279106Y45839057D01*
X91738637Y45378722D01*
X92339352Y45129284D01*
X92989795Y45128716D01*
X93590943Y45377106D01*
X94051278Y45836637D01*
X94240000Y46291131D01*
X94240000Y39097976D01*
X94179894Y39243443D01*
X93720363Y39703778D01*
X93119648Y39953216D01*
X92469205Y39953784D01*
X91868057Y39705394D01*
X91522801Y39360741D01*
X91180363Y39703778D01*
X90579648Y39953216D01*
X89929205Y39953784D01*
X89328057Y39705394D01*
X88867722Y39245863D01*
X88618284Y38645148D01*
X88617716Y37994705D01*
X88866106Y37393557D01*
X89325637Y36933222D01*
X89926352Y36683784D01*
X90282895Y36683473D01*
X90832500Y36133868D01*
X90832500Y30760016D01*
X90540039Y30468064D01*
X90328741Y29959202D01*
X90328260Y29408215D01*
X90538669Y28898985D01*
X90927936Y28509039D01*
X91436798Y28297741D01*
X91987785Y28297260D01*
X92497015Y28507669D01*
X92886961Y28896936D01*
X93098259Y29405798D01*
X93098706Y29917425D01*
X93102500Y29936500D01*
X93102500Y36604000D01*
X93086738Y36683242D01*
X93116795Y36683216D01*
X93717943Y36931606D01*
X94178278Y37391137D01*
X94240000Y37539780D01*
X94240000Y-6890000D01*
X90729528Y-6890000D01*
X90935216Y-6394648D01*
X90935784Y-5744205D01*
X90687394Y-5143057D01*
X90227863Y-4682722D01*
X90185500Y-4665131D01*
X90185500Y5171495D01*
X90185501Y5171500D01*
X90118133Y5510175D01*
X90061057Y5595596D01*
X89926290Y5797290D01*
X89926287Y5797292D01*
X85224384Y10499196D01*
X85224647Y10800233D01*
X85245710Y10768710D01*
X89625208Y6389213D01*
X89625210Y6389210D01*
X89912325Y6197367D01*
X90251000Y6130000D01*
X91608977Y6130000D01*
X91723813Y6014964D01*
X91509039Y5800564D01*
X91297741Y5291702D01*
X91297260Y4740715D01*
X91507669Y4231485D01*
X91723813Y4014964D01*
X91509039Y3800564D01*
X91297741Y3291702D01*
X91297260Y2740715D01*
X91507669Y2231485D01*
X91723813Y2014964D01*
X91509039Y1800564D01*
X91297741Y1291702D01*
X91297260Y740715D01*
X91507669Y231485D01*
X91723813Y14964D01*
X91509039Y-199436D01*
X91297741Y-708298D01*
X91297260Y-1259285D01*
X91507669Y-1768515D01*
X91723813Y-1985036D01*
X91509039Y-2199436D01*
X91297741Y-2708298D01*
X91297260Y-3259285D01*
X91507669Y-3768515D01*
X91896936Y-4158461D01*
X92405798Y-4369759D01*
X92956785Y-4370240D01*
X93466015Y-4159831D01*
X93855961Y-3770564D01*
X94067259Y-3261702D01*
X94067740Y-2710715D01*
X93857331Y-2201485D01*
X93641187Y-1984964D01*
X93855961Y-1770564D01*
X94067259Y-1261702D01*
X94067740Y-710715D01*
X93857331Y-201485D01*
X93641187Y15036D01*
X93855961Y229436D01*
X94067259Y738298D01*
X94067740Y1289285D01*
X93857331Y1798515D01*
X93641187Y2015036D01*
X93855961Y2229436D01*
X94067259Y2738298D01*
X94067740Y3289285D01*
X93857331Y3798515D01*
X93641187Y4015036D01*
X93855961Y4229436D01*
X94067259Y4738298D01*
X94067740Y5289285D01*
X93857331Y5798515D01*
X93641187Y6015036D01*
X93855961Y6229436D01*
X94067259Y6738298D01*
X94067740Y7289285D01*
X93857331Y7798515D01*
X93641187Y8015036D01*
X93855961Y8229436D01*
X94067259Y8738298D01*
X94067740Y9289285D01*
X93857331Y9798515D01*
X93641187Y10015036D01*
X93855961Y10229436D01*
X94067259Y10738298D01*
X94067740Y11289285D01*
X93857331Y11798515D01*
X93641187Y12015036D01*
X93855961Y12229436D01*
X94067259Y12738298D01*
X94067740Y13289285D01*
X93857331Y13798515D01*
X93641187Y14015036D01*
X93855961Y14229436D01*
X94067259Y14738298D01*
X94067740Y15289285D01*
X93857331Y15798515D01*
X93641187Y16015036D01*
X93855961Y16229436D01*
X94067259Y16738298D01*
X94067740Y17289285D01*
X93857331Y17798515D01*
X93641187Y18015036D01*
X93855961Y18229436D01*
X94067259Y18738298D01*
X94067740Y19289285D01*
X93857331Y19798515D01*
X93641187Y20015036D01*
X93855961Y20229436D01*
X94067259Y20738298D01*
X94067740Y21289285D01*
X93857331Y21798515D01*
X93641187Y22015036D01*
X93855961Y22229436D01*
X94067259Y22738298D01*
X94067740Y23289285D01*
X93857331Y23798515D01*
X93468064Y24188461D01*
X92959202Y24399759D01*
X92902824Y24399808D01*
X90581587Y26721045D01*
X90518643Y26763103D01*
X90213367Y26967082D01*
X89779021Y27053479D01*
X84906152Y27053479D01*
X85273977Y27205461D01*
X85663923Y27594728D01*
X85870244Y28091604D01*
X86035525Y27981167D01*
X86374200Y27913800D01*
X86494206Y27913800D01*
X86782165Y27625339D01*
X87291027Y27414041D01*
X87842014Y27413560D01*
X88351244Y27623969D01*
X88741190Y28013236D01*
X88952488Y28522098D01*
X88952969Y29073085D01*
X88742560Y29582315D01*
X88353293Y29972261D01*
X87844431Y30183559D01*
X87293444Y30184040D01*
X86784214Y29973631D01*
X86617436Y29807143D01*
X86058000Y30366580D01*
X86058000Y36915102D01*
X86097943Y36931606D01*
X86558278Y37391137D01*
X86807716Y37991852D01*
X86808284Y38642295D01*
X86559894Y39243443D01*
X86100363Y39703778D01*
X86058000Y39721369D01*
X86058000Y41239495D01*
X86058001Y41239500D01*
X85990634Y41578174D01*
X85926975Y41673446D01*
X85798790Y41865290D01*
X85798787Y41865292D01*
X84462384Y43201695D01*
X84462740Y43609285D01*
X84252331Y44118515D01*
X83863064Y44508461D01*
X83354202Y44719759D01*
X82803215Y44720240D01*
X82293985Y44509831D01*
X82125047Y44341187D01*
X81958064Y44508461D01*
X81449202Y44719759D01*
X80898215Y44720240D01*
X80388985Y44509831D01*
X79999039Y44120564D01*
X79787741Y43611702D01*
X79787260Y43060715D01*
X79997669Y42551485D01*
X80386936Y42161539D01*
X80895798Y41950241D01*
X81306038Y41949883D01*
X81748000Y41507921D01*
X81748000Y39721898D01*
X81708057Y39705394D01*
X81362801Y39360741D01*
X81020363Y39703778D01*
X80419648Y39953216D01*
X79769205Y39953784D01*
X79168057Y39705394D01*
X78707722Y39245863D01*
X78458284Y38645148D01*
X78457716Y37994705D01*
X78706106Y37393557D01*
X79165637Y36933222D01*
X79766352Y36683784D01*
X80416795Y36683216D01*
X81017943Y36931606D01*
X81363199Y37276259D01*
X81705637Y36933222D01*
X81748000Y36915631D01*
X81748000Y36904292D01*
X81747999Y36904287D01*
X81791861Y36683784D01*
X81815367Y36565612D01*
X81994557Y36297434D01*
X82007210Y36278497D01*
X82954500Y35331208D01*
X82954500Y29031259D01*
X82954499Y29031254D01*
X83000201Y28801500D01*
X83021867Y28692579D01*
X83105625Y28567226D01*
X83105222Y28106007D01*
X83315631Y27596777D01*
X83704898Y27206831D01*
X84074211Y27053479D01*
X80034959Y27053479D01*
X79544202Y27257259D01*
X79487824Y27257308D01*
X79386500Y27358632D01*
X79386500Y32984500D01*
X79381855Y33007852D01*
X79300104Y33418845D01*
X79054066Y33787066D01*
X76592500Y36248632D01*
X76592500Y36569796D01*
X76842778Y36819637D01*
X77092216Y37420352D01*
X77092784Y38070795D01*
X76844394Y38671943D01*
X76384863Y39132278D01*
X75784148Y39381716D01*
X75133705Y39382284D01*
X74532557Y39133894D01*
X74187301Y38789241D01*
X73844863Y39132278D01*
X73244148Y39381716D01*
X72593705Y39382284D01*
X71992557Y39133894D01*
X71532222Y38674363D01*
X71282784Y38073648D01*
X71282216Y37423205D01*
X71530606Y36822057D01*
X71782500Y36569722D01*
X71782500Y34508500D01*
X71868897Y34074154D01*
X72114934Y33705934D01*
X75084500Y30736368D01*
X75084500Y29501632D01*
X73847066Y30739066D01*
X73764103Y30794500D01*
X73478846Y30985103D01*
X73044500Y31071500D01*
X70123500Y31071500D01*
X69689155Y30985104D01*
X69320934Y30739066D01*
X67430868Y28849000D01*
X62553633Y28849000D01*
X61458260Y29944372D01*
X61602778Y30088637D01*
X61852216Y30689352D01*
X61852784Y31339795D01*
X61604394Y31940943D01*
X61144863Y32401278D01*
X60648224Y32607500D01*
X63406920Y32607500D01*
X64611116Y31403305D01*
X64610760Y30995715D01*
X64821169Y30486485D01*
X65210436Y30096539D01*
X65719298Y29885241D01*
X66270285Y29884760D01*
X66779515Y30095169D01*
X67169461Y30484436D01*
X67380759Y30993298D01*
X67381240Y31544285D01*
X67170831Y32053515D01*
X66781564Y32443461D01*
X66272702Y32654759D01*
X65862462Y32655117D01*
X64399290Y34118290D01*
X64286788Y34193461D01*
X64112175Y34310133D01*
X64055984Y34321310D01*
X63773500Y34377501D01*
X63773495Y34377500D01*
X58739792Y34377500D01*
X58739787Y34377501D01*
X58457303Y34321310D01*
X58401112Y34310133D01*
X58113997Y34118290D01*
X58113995Y34118287D01*
X57051710Y33056003D01*
X56859867Y32768888D01*
X56859867Y32768887D01*
X56792499Y32430213D01*
X56792500Y32430208D01*
X56792500Y32419398D01*
X56752557Y32402894D01*
X56292222Y31943363D01*
X56042784Y31342648D01*
X56042216Y30692205D01*
X56290606Y30091057D01*
X56750137Y29630722D01*
X57350852Y29381284D01*
X58001295Y29380716D01*
X58602443Y29629106D01*
X58947699Y29973759D01*
X59082500Y29838722D01*
X59082500Y29580000D01*
X59168897Y29145654D01*
X59333716Y28898985D01*
X59414934Y28777434D01*
X60907417Y27284950D01*
X60575715Y27285240D01*
X60066485Y27074831D01*
X59676539Y26685564D01*
X59537942Y26351785D01*
X59524831Y26383515D01*
X59135564Y26773461D01*
X58626702Y26984759D01*
X58216463Y26985117D01*
X58131790Y27069790D01*
X58124246Y27074831D01*
X57844675Y27261633D01*
X57754073Y27279655D01*
X57506000Y27329001D01*
X57505995Y27329000D01*
X51166372Y27329000D01*
X51103334Y27423343D01*
X50654008Y27723573D01*
X50123991Y27829000D01*
X49356009Y27829000D01*
X48825992Y27723573D01*
X48609623Y27579000D01*
X44931530Y27579000D01*
X44778040Y27609531D01*
X44752631Y27737271D01*
X44785000Y27900000D01*
X44785000Y29729868D01*
X47559536Y32504404D01*
X49466049Y32504404D01*
X49861573Y31547162D01*
X50593310Y30814147D01*
X51549860Y30416953D01*
X52585596Y30416049D01*
X53542838Y30811573D01*
X54275853Y31543310D01*
X54673047Y32499860D01*
X54673951Y33535596D01*
X54278427Y34492838D01*
X53546690Y35225853D01*
X52590140Y35623047D01*
X51554404Y35623951D01*
X50597162Y35228427D01*
X49864147Y34496690D01*
X49466953Y33540140D01*
X49466049Y32504404D01*
X47559536Y32504404D01*
X50720133Y35665000D01*
X53326042Y35665000D01*
X53364436Y35626539D01*
X53873298Y35415241D01*
X54424285Y35414760D01*
X54933515Y35625169D01*
X55323461Y36014436D01*
X55534759Y36523298D01*
X55535240Y37074285D01*
X55510354Y37134514D01*
X55764807Y36880061D01*
X55764760Y36825715D01*
X55975169Y36316485D01*
X56364436Y35926539D01*
X56873298Y35715241D01*
X57424285Y35714760D01*
X57933515Y35925169D01*
X58323461Y36314436D01*
X58534759Y36823298D01*
X58535240Y37374285D01*
X58324831Y37883515D01*
X57935564Y38273461D01*
X57426702Y38484759D01*
X57370324Y38484808D01*
X56052566Y39802566D01*
X55880356Y39917633D01*
X55684346Y40048603D01*
X55250000Y40135000D01*
X50210660Y40135000D01*
X49776314Y40048603D01*
X49408093Y39802566D01*
X43524929Y33919401D01*
X43126702Y34084759D01*
X42575715Y34085240D01*
X42066485Y33874831D01*
X41676539Y33485564D01*
X41465241Y32976702D01*
X41464760Y32425715D01*
X41675169Y31916485D01*
X42064436Y31526539D01*
X42573298Y31315241D01*
X43124285Y31314760D01*
X43184514Y31339646D01*
X42847434Y31002566D01*
X42601397Y30634346D01*
X42515000Y30200000D01*
X42515000Y27900000D01*
X42547369Y27737271D01*
X42502560Y27512000D01*
X42502560Y27012000D01*
X42528617Y26881000D01*
X42502560Y26750000D01*
X42502560Y26250000D01*
X42528617Y26119000D01*
X42502560Y25988000D01*
X42502560Y25488000D01*
X42547369Y25262729D01*
X42515000Y25100000D01*
X42515000Y21200000D01*
X42601397Y20765654D01*
X42751212Y20541440D01*
X42542000Y20541440D01*
X42294235Y20492157D01*
X42084191Y20351809D01*
X41943843Y20141765D01*
X41894560Y19894000D01*
X41894560Y15695000D01*
X41542000Y15695000D01*
X41107654Y15608603D01*
X40854158Y15439222D01*
X40739434Y15362566D01*
X32311868Y6935000D01*
X24820132Y6935000D01*
X23452566Y8302566D01*
X23322894Y8389210D01*
X23084346Y8548603D01*
X22650000Y8635000D01*
X11578184Y8635000D01*
X11725015Y8695669D01*
X12114961Y9084936D01*
X12326259Y9593798D01*
X12326677Y10072500D01*
X23897073Y10072500D01*
X23928395Y10072473D01*
X26397934Y7602934D01*
X26766154Y7356897D01*
X27200500Y7270500D01*
X29170542Y7270500D01*
X29208936Y7232039D01*
X29717798Y7020741D01*
X30268785Y7020260D01*
X30778015Y7230669D01*
X31167961Y7619936D01*
X31379259Y8128798D01*
X31379308Y8185176D01*
X33152566Y9958434D01*
X33228782Y10072499D01*
X33398603Y10326654D01*
X33485000Y10761000D01*
X33485000Y12476042D01*
X33523461Y12514436D01*
X33734759Y13023298D01*
X33735240Y13574285D01*
X33524831Y14083515D01*
X33135564Y14473461D01*
X32626702Y14684759D01*
X32075715Y14685240D01*
X31566485Y14474831D01*
X31176539Y14085564D01*
X30965241Y13576702D01*
X30964760Y13025715D01*
X31175169Y12516485D01*
X31215000Y12476585D01*
X31215000Y11231132D01*
X29774561Y9790693D01*
X29720215Y9790740D01*
X29210985Y9580331D01*
X29171085Y9540500D01*
X27670632Y9540500D01*
X25533475Y11677657D01*
X25533784Y12031295D01*
X25285394Y12632443D01*
X24940741Y12977699D01*
X25283778Y13320137D01*
X25533216Y13920852D01*
X25533784Y14571295D01*
X25285394Y15172443D01*
X24825863Y15632778D01*
X24225148Y15882216D01*
X23574705Y15882784D01*
X23574018Y15882500D01*
X18417739Y15882500D01*
X15049620Y19250620D01*
X14519188Y19605043D01*
X13893500Y19729501D01*
X13893495Y19729500D01*
X13044549Y19729500D01*
X13057913Y19749500D01*
X21784495Y19749500D01*
X21784500Y19749499D01*
X22066984Y19805690D01*
X22123175Y19816867D01*
X22410290Y20008710D01*
X35475787Y33074208D01*
X35475790Y33074210D01*
X35667633Y33361325D01*
X35735000Y33700000D01*
X35735000Y37926477D01*
X36023461Y38214436D01*
X36234759Y38723298D01*
X36235240Y39274285D01*
X36024831Y39783515D01*
X35635564Y40173461D01*
X35126702Y40384759D01*
X34575715Y40385240D01*
X34066485Y40174831D01*
X33739384Y39848299D01*
X33724833Y39883515D01*
X33335566Y40273461D01*
X32826704Y40484759D01*
X32275717Y40485240D01*
X31766487Y40274831D01*
X31650052Y40158599D01*
X31435564Y40373461D01*
X30926702Y40584759D01*
X30375715Y40585240D01*
X29866485Y40374831D01*
X29476539Y39985564D01*
X29265241Y39476702D01*
X29264760Y38925715D01*
X29475169Y38416485D01*
X29765000Y38126148D01*
X29765000Y32066579D01*
X25837921Y28139501D01*
X13368401Y28139501D01*
X13368784Y28578295D01*
X13128634Y29159500D01*
X15355495Y29159500D01*
X15355500Y29159499D01*
X15981188Y29283957D01*
X16511620Y29638380D01*
X18299240Y31426000D01*
X24044573Y31426000D01*
X24369795Y31425716D01*
X24970943Y31674106D01*
X25431278Y32133637D01*
X25680716Y32734352D01*
X25681284Y33384795D01*
X25432894Y33985943D01*
X25088241Y34331199D01*
X25431278Y34673637D01*
X25680716Y35274352D01*
X25681284Y35924795D01*
X25432894Y36525943D01*
X24973363Y36986278D01*
X24372648Y37235716D01*
X23722205Y37236284D01*
X23721518Y37236000D01*
X8986000Y37236000D01*
X8360312Y37111543D01*
X8250764Y37038345D01*
X7829880Y36757120D01*
X7829878Y36757117D01*
X5730500Y34657740D01*
X5730500Y36482977D01*
X6018961Y36770936D01*
X6230259Y37279798D01*
X6230740Y37830785D01*
X6020331Y38340015D01*
X5631064Y38729961D01*
X5122202Y38941259D01*
X4571215Y38941740D01*
X4061985Y38731331D01*
X3672039Y38342064D01*
X3460741Y37833202D01*
X3460260Y37282215D01*
X3670669Y36772985D01*
X3960500Y36482648D01*
X3960500Y28158505D01*
X3960499Y28158500D01*
X4016690Y27876016D01*
X4027867Y27819825D01*
X4155565Y27628710D01*
X4219710Y27532710D01*
X5018280Y26734141D01*
X5018216Y26660705D01*
X5266606Y26059557D01*
X5726137Y25599222D01*
X6326852Y25349784D01*
X6977295Y25349216D01*
X7578443Y25597606D01*
X7889628Y25908247D01*
X7778741Y25641202D01*
X7778260Y25090215D01*
X7988669Y24580985D01*
X8377936Y24191039D01*
X8886798Y23979741D01*
X9437785Y23979260D01*
X9947015Y24189669D01*
X9986915Y24229500D01*
X10585354Y24229500D01*
X10472125Y24153843D01*
X10171895Y23704517D01*
X10066468Y23174500D01*
X10143049Y22789500D01*
X8056898Y22789500D01*
X8040394Y22829443D01*
X7580863Y23289778D01*
X6980148Y23539216D01*
X6329705Y23539784D01*
X5728557Y23291394D01*
X5268222Y22831863D01*
X5018784Y22231148D01*
X5018216Y21580705D01*
X5258366Y20999500D01*
X1870739Y20999500D01*
X-2015000Y24885240D01*
X-2015000Y43256215D01*
X25172752Y43256215D01*
X25383161Y42746985D01*
X25772428Y42357039D01*
X26281290Y42145741D01*
X26832277Y42145260D01*
X27341507Y42355669D01*
X27731453Y42744936D01*
X27942751Y43253798D01*
X27943109Y43664038D01*
X28334260Y44055189D01*
X28836184Y44055189D01*
X29064436Y43826539D01*
X29573298Y43615241D01*
X30124285Y43614760D01*
X30633515Y43825169D01*
X31023461Y44214436D01*
X31111191Y44425715D01*
X34664760Y44425715D01*
X34875169Y43916485D01*
X35264436Y43526539D01*
X35773298Y43315241D01*
X36324285Y43314760D01*
X36833515Y43525169D01*
X37123852Y43815000D01*
X38011322Y43815000D01*
X38011048Y43501704D01*
X38221457Y42992474D01*
X38610724Y42602528D01*
X39119586Y42391230D01*
X39670573Y42390749D01*
X40179803Y42601158D01*
X40569749Y42990425D01*
X40781047Y43499287D01*
X40781528Y44050274D01*
X40571119Y44559504D01*
X40181852Y44949450D01*
X39672990Y45160748D01*
X39262751Y45161106D01*
X39098067Y45325790D01*
X39023235Y45375791D01*
X38810952Y45517633D01*
X38754761Y45528810D01*
X38472277Y45585001D01*
X38472272Y45585000D01*
X37123523Y45585000D01*
X36835564Y45873461D01*
X36326702Y46084759D01*
X35775715Y46085240D01*
X35266485Y45874831D01*
X34876539Y45485564D01*
X34665241Y44976702D01*
X34664760Y44425715D01*
X31111191Y44425715D01*
X31234759Y44723298D01*
X31235240Y45274285D01*
X31024831Y45783515D01*
X30635564Y46173461D01*
X30126702Y46384759D01*
X29575715Y46385240D01*
X29066485Y46174831D01*
X28716233Y45825189D01*
X27967681Y45825189D01*
X27629006Y45757822D01*
X27341891Y45565979D01*
X27341889Y45565976D01*
X26691297Y44915384D01*
X26283707Y44915740D01*
X25774477Y44705331D01*
X25384531Y44316064D01*
X25173233Y43807202D01*
X25172752Y43256215D01*
X-2015000Y43256215D01*
X-2015000Y48522760D01*
X-1031561Y49506199D01*
X-1333047Y48780140D01*
X-1333951Y47744404D01*
X-938427Y46787162D01*
X-206690Y46054147D01*
X749860Y45656953D01*
X1785596Y45656049D01*
X2742838Y46051573D01*
X3475853Y46783310D01*
X3607833Y47101153D01*
X3846657Y46743728D01*
X4295983Y46443498D01*
X4826000Y46338071D01*
X5356017Y46443498D01*
X5805343Y46743728D01*
X6096000Y47178727D01*
X6386657Y46743728D01*
X6835983Y46443498D01*
X7366000Y46338071D01*
X7896017Y46443498D01*
X8345343Y46743728D01*
X8636000Y47178727D01*
X8926657Y46743728D01*
X9375983Y46443498D01*
X9906000Y46338071D01*
X10436017Y46443498D01*
X10885343Y46743728D01*
X11185573Y47193054D01*
X11291000Y47723071D01*
X11291000Y48796929D01*
X13601000Y48796929D01*
X13601000Y47723071D01*
X13706427Y47193054D01*
X14006657Y46743728D01*
X14455983Y46443498D01*
X14986000Y46338071D01*
X15516017Y46443498D01*
X15965343Y46743728D01*
X16256000Y47178727D01*
X16546657Y46743728D01*
X16995983Y46443498D01*
X17526000Y46338071D01*
X18056017Y46443498D01*
X18505343Y46743728D01*
X18796000Y47178727D01*
X19086657Y46743728D01*
X19535983Y46443498D01*
X20066000Y46338071D01*
X20596017Y46443498D01*
X21045343Y46743728D01*
X21336000Y47178727D01*
X21626657Y46743728D01*
X22075983Y46443498D01*
X22606000Y46338071D01*
X23136017Y46443498D01*
X23585343Y46743728D01*
X23876000Y47178727D01*
X24166657Y46743728D01*
X24615983Y46443498D01*
X25146000Y46338071D01*
X25676017Y46443498D01*
X26125343Y46743728D01*
X26416000Y47178727D01*
X26706657Y46743728D01*
X27155983Y46443498D01*
X27686000Y46338071D01*
X28216017Y46443498D01*
X28665343Y46743728D01*
X28965573Y47193054D01*
X29071000Y47723071D01*
X29071000Y48796929D01*
X28965573Y49326946D01*
X28665343Y49776272D01*
X28216017Y50076502D01*
X27686000Y50181929D01*
X27155983Y50076502D01*
X26706657Y49776272D01*
X26416000Y49341273D01*
X26125343Y49776272D01*
X25676017Y50076502D01*
X25146000Y50181929D01*
X24615983Y50076502D01*
X24166657Y49776272D01*
X23876000Y49341273D01*
X23585343Y49776272D01*
X23136017Y50076502D01*
X22606000Y50181929D01*
X22075983Y50076502D01*
X21626657Y49776272D01*
X21336000Y49341273D01*
X21045343Y49776272D01*
X20596017Y50076502D01*
X20066000Y50181929D01*
X19535983Y50076502D01*
X19086657Y49776272D01*
X18796000Y49341273D01*
X18505343Y49776272D01*
X18056017Y50076502D01*
X17526000Y50181929D01*
X16995983Y50076502D01*
X16546657Y49776272D01*
X16256000Y49341273D01*
X15965343Y49776272D01*
X15516017Y50076502D01*
X14986000Y50181929D01*
X14455983Y50076502D01*
X14006657Y49776272D01*
X13706427Y49326946D01*
X13601000Y48796929D01*
X11291000Y48796929D01*
X11185573Y49326946D01*
X10885343Y49776272D01*
X10436017Y50076502D01*
X9906000Y50181929D01*
X9375983Y50076502D01*
X8926657Y49776272D01*
X8636000Y49341273D01*
X8345343Y49776272D01*
X7896017Y50076502D01*
X7366000Y50181929D01*
X6835983Y50076502D01*
X6386657Y49776272D01*
X6096000Y49341273D01*
X5805343Y49776272D01*
X5356017Y50076502D01*
X4826000Y50181929D01*
X4295983Y50076502D01*
X3846657Y49776272D01*
X3608038Y49419154D01*
X3478427Y49732838D01*
X2746690Y50465853D01*
X2369791Y50622355D01*
X35915405Y50622355D01*
X36434501Y50103259D01*
X36299983Y50076502D01*
X35850657Y49776272D01*
X35560000Y49341273D01*
X35269343Y49776272D01*
X34820017Y50076502D01*
X34290000Y50181929D01*
X33759983Y50076502D01*
X33310657Y49776272D01*
X33020000Y49341273D01*
X32729343Y49776272D01*
X32280017Y50076502D01*
X31750000Y50181929D01*
X31219983Y50076502D01*
X30770657Y49776272D01*
X30470427Y49326946D01*
X30365000Y48796929D01*
X30365000Y47723071D01*
X30470427Y47193054D01*
X30770657Y46743728D01*
X31219983Y46443498D01*
X31750000Y46338071D01*
X32280017Y46443498D01*
X32729343Y46743728D01*
X33020000Y47178727D01*
X33310657Y46743728D01*
X33759983Y46443498D01*
X34290000Y46338071D01*
X34820017Y46443498D01*
X35269343Y46743728D01*
X35560000Y47178727D01*
X35850657Y46743728D01*
X36299983Y46443498D01*
X36830000Y46338071D01*
X37360017Y46443498D01*
X37809343Y46743728D01*
X38100000Y47178727D01*
X38390657Y46743728D01*
X38839983Y46443498D01*
X39370000Y46338071D01*
X39900017Y46443498D01*
X40349343Y46743728D01*
X40640000Y47178727D01*
X40930657Y46743728D01*
X41379983Y46443498D01*
X41910000Y46338071D01*
X42440017Y46443498D01*
X42889343Y46743728D01*
X43180000Y47178727D01*
X43470657Y46743728D01*
X43919983Y46443498D01*
X44450000Y46338071D01*
X44980017Y46443498D01*
X45429343Y46743728D01*
X45720000Y47178727D01*
X46010657Y46743728D01*
X46459983Y46443498D01*
X46990000Y46338071D01*
X47520017Y46443498D01*
X47969343Y46743728D01*
X48260000Y47178727D01*
X48550657Y46743728D01*
X48999983Y46443498D01*
X49530000Y46338071D01*
X50060017Y46443498D01*
X50509343Y46743728D01*
X50809573Y47193054D01*
X50915000Y47723071D01*
X50915000Y48796929D01*
X50821895Y49265000D01*
X53656114Y49265000D01*
X53576539Y49185564D01*
X53365241Y48676702D01*
X53364760Y48125715D01*
X53575169Y47616485D01*
X53634671Y47556879D01*
X53326702Y47684759D01*
X52775715Y47685240D01*
X52266485Y47474831D01*
X51876539Y47085564D01*
X51665241Y46576702D01*
X51664760Y46025715D01*
X51875169Y45516485D01*
X52264436Y45126539D01*
X52773298Y44915241D01*
X53183537Y44914883D01*
X53974207Y44124214D01*
X53974209Y44124211D01*
X54261324Y43932368D01*
X54317515Y43921191D01*
X54599999Y43865000D01*
X54600004Y43865001D01*
X63899996Y43865001D01*
X63900001Y43865000D01*
X64182485Y43921191D01*
X64238676Y43932368D01*
X64525791Y44124211D01*
X66716695Y46315116D01*
X67124285Y46314760D01*
X67633515Y46525169D01*
X68023461Y46914436D01*
X68234759Y47423298D01*
X68235240Y47974285D01*
X68024831Y48483515D01*
X67635564Y48873461D01*
X67451479Y48949900D01*
X69266079Y50764500D01*
X79573500Y50764500D01*
X79627546Y50492795D01*
X79781454Y50262454D01*
X80011795Y50108546D01*
X80283500Y50054500D01*
X80555205Y50108546D01*
X80785546Y50262454D01*
X80939454Y50492795D01*
X80993500Y50764500D01*
X80939454Y51036205D01*
X80785546Y51266546D01*
X80555205Y51420454D01*
X80283500Y51474500D01*
X80011795Y51420454D01*
X79781454Y51266546D01*
X79627546Y51036205D01*
X79573500Y50764500D01*
X69266079Y50764500D01*
X72936354Y54434775D01*
X77579547Y54434775D01*
X79848158Y52166165D01*
X79848158Y52166165D01*
G37*
X79848158Y52166165D02*
X79848160Y52166162D01*
X80012852Y52056119D01*
X80135276Y51974318D01*
X80473950Y51906951D01*
X80473955Y51906952D01*
X83441626Y51906952D01*
X83441631Y51906951D01*
X83724115Y51963142D01*
X83780306Y51974319D01*
X84053815Y52157071D01*
X84465915Y52156711D01*
X84975145Y52367120D01*
X85074644Y52466445D01*
X85159880Y52338880D01*
X85223378Y52275383D01*
X85223380Y52275380D01*
X85753813Y51920957D01*
X86379500Y51796499D01*
X86379505Y51796500D01*
X91031000Y51796500D01*
X91031000Y46765426D01*
X91030716Y46440205D01*
X91279106Y45839057D01*
X91738637Y45378722D01*
X92339352Y45129284D01*
X92989795Y45128716D01*
X93590943Y45377106D01*
X94051278Y45836637D01*
X94240000Y46291131D01*
X94240000Y39097976D01*
X94179894Y39243443D01*
X93720363Y39703778D01*
X93119648Y39953216D01*
X92469205Y39953784D01*
X91868057Y39705394D01*
X91522801Y39360741D01*
X91180363Y39703778D01*
X90579648Y39953216D01*
X89929205Y39953784D01*
X89328057Y39705394D01*
X88867722Y39245863D01*
X88618284Y38645148D01*
X88617716Y37994705D01*
X88866106Y37393557D01*
X89325637Y36933222D01*
X89926352Y36683784D01*
X90282895Y36683473D01*
X90832500Y36133868D01*
X90832500Y30760016D01*
X90540039Y30468064D01*
X90328741Y29959202D01*
X90328260Y29408215D01*
X90538669Y28898985D01*
X90927936Y28509039D01*
X91436798Y28297741D01*
X91987785Y28297260D01*
X92497015Y28507669D01*
X92886961Y28896936D01*
X93098259Y29405798D01*
X93098706Y29917425D01*
X93102500Y29936500D01*
X93102500Y36604000D01*
X93086738Y36683242D01*
X93116795Y36683216D01*
X93717943Y36931606D01*
X94178278Y37391137D01*
X94240000Y37539780D01*
X94240000Y-6890000D01*
X90729528Y-6890000D01*
X90935216Y-6394648D01*
X90935784Y-5744205D01*
X90687394Y-5143057D01*
X90227863Y-4682722D01*
X90185500Y-4665131D01*
X90185500Y5171495D01*
X90185501Y5171500D01*
X90118133Y5510175D01*
X90061057Y5595596D01*
X89926290Y5797290D01*
X89926287Y5797292D01*
X85224384Y10499196D01*
X85224647Y10800233D01*
X85245710Y10768710D01*
X89625208Y6389213D01*
X89625210Y6389210D01*
X89912325Y6197367D01*
X90251000Y6130000D01*
X91608977Y6130000D01*
X91723813Y6014964D01*
X91509039Y5800564D01*
X91297741Y5291702D01*
X91297260Y4740715D01*
X91507669Y4231485D01*
X91723813Y4014964D01*
X91509039Y3800564D01*
X91297741Y3291702D01*
X91297260Y2740715D01*
X91507669Y2231485D01*
X91723813Y2014964D01*
X91509039Y1800564D01*
X91297741Y1291702D01*
X91297260Y740715D01*
X91507669Y231485D01*
X91723813Y14964D01*
X91509039Y-199436D01*
X91297741Y-708298D01*
X91297260Y-1259285D01*
X91507669Y-1768515D01*
X91723813Y-1985036D01*
X91509039Y-2199436D01*
X91297741Y-2708298D01*
X91297260Y-3259285D01*
X91507669Y-3768515D01*
X91896936Y-4158461D01*
X92405798Y-4369759D01*
X92956785Y-4370240D01*
X93466015Y-4159831D01*
X93855961Y-3770564D01*
X94067259Y-3261702D01*
X94067740Y-2710715D01*
X93857331Y-2201485D01*
X93641187Y-1984964D01*
X93855961Y-1770564D01*
X94067259Y-1261702D01*
X94067740Y-710715D01*
X93857331Y-201485D01*
X93641187Y15036D01*
X93855961Y229436D01*
X94067259Y738298D01*
X94067740Y1289285D01*
X93857331Y1798515D01*
X93641187Y2015036D01*
X93855961Y2229436D01*
X94067259Y2738298D01*
X94067740Y3289285D01*
X93857331Y3798515D01*
X93641187Y4015036D01*
X93855961Y4229436D01*
X94067259Y4738298D01*
X94067740Y5289285D01*
X93857331Y5798515D01*
X93641187Y6015036D01*
X93855961Y6229436D01*
X94067259Y6738298D01*
X94067740Y7289285D01*
X93857331Y7798515D01*
X93641187Y8015036D01*
X93855961Y8229436D01*
X94067259Y8738298D01*
X94067740Y9289285D01*
X93857331Y9798515D01*
X93641187Y10015036D01*
X93855961Y10229436D01*
X94067259Y10738298D01*
X94067740Y11289285D01*
X93857331Y11798515D01*
X93641187Y12015036D01*
X93855961Y12229436D01*
X94067259Y12738298D01*
X94067740Y13289285D01*
X93857331Y13798515D01*
X93641187Y14015036D01*
X93855961Y14229436D01*
X94067259Y14738298D01*
X94067740Y15289285D01*
X93857331Y15798515D01*
X93641187Y16015036D01*
X93855961Y16229436D01*
X94067259Y16738298D01*
X94067740Y17289285D01*
X93857331Y17798515D01*
X93641187Y18015036D01*
X93855961Y18229436D01*
X94067259Y18738298D01*
X94067740Y19289285D01*
X93857331Y19798515D01*
X93641187Y20015036D01*
X93855961Y20229436D01*
X94067259Y20738298D01*
X94067740Y21289285D01*
X93857331Y21798515D01*
X93641187Y22015036D01*
X93855961Y22229436D01*
X94067259Y22738298D01*
X94067740Y23289285D01*
X93857331Y23798515D01*
X93468064Y24188461D01*
X92959202Y24399759D01*
X92902824Y24399808D01*
X90581587Y26721045D01*
X90518643Y26763103D01*
X90213367Y26967082D01*
X89779021Y27053479D01*
X84906152Y27053479D01*
X85273977Y27205461D01*
X85663923Y27594728D01*
X85870244Y28091604D01*
X86035525Y27981167D01*
X86374200Y27913800D01*
X86494206Y27913800D01*
X86782165Y27625339D01*
X87291027Y27414041D01*
X87842014Y27413560D01*
X88351244Y27623969D01*
X88741190Y28013236D01*
X88952488Y28522098D01*
X88952969Y29073085D01*
X88742560Y29582315D01*
X88353293Y29972261D01*
X87844431Y30183559D01*
X87293444Y30184040D01*
X86784214Y29973631D01*
X86617436Y29807143D01*
X86058000Y30366580D01*
X86058000Y36915102D01*
X86097943Y36931606D01*
X86558278Y37391137D01*
X86807716Y37991852D01*
X86808284Y38642295D01*
X86559894Y39243443D01*
X86100363Y39703778D01*
X86058000Y39721369D01*
X86058000Y41239495D01*
X86058001Y41239500D01*
X85990634Y41578174D01*
X85926975Y41673446D01*
X85798790Y41865290D01*
X85798787Y41865292D01*
X84462384Y43201695D01*
X84462740Y43609285D01*
X84252331Y44118515D01*
X83863064Y44508461D01*
X83354202Y44719759D01*
X82803215Y44720240D01*
X82293985Y44509831D01*
X82125047Y44341187D01*
X81958064Y44508461D01*
X81449202Y44719759D01*
X80898215Y44720240D01*
X80388985Y44509831D01*
X79999039Y44120564D01*
X79787741Y43611702D01*
X79787260Y43060715D01*
X79997669Y42551485D01*
X80386936Y42161539D01*
X80895798Y41950241D01*
X81306038Y41949883D01*
X81748000Y41507921D01*
X81748000Y39721898D01*
X81708057Y39705394D01*
X81362801Y39360741D01*
X81020363Y39703778D01*
X80419648Y39953216D01*
X79769205Y39953784D01*
X79168057Y39705394D01*
X78707722Y39245863D01*
X78458284Y38645148D01*
X78457716Y37994705D01*
X78706106Y37393557D01*
X79165637Y36933222D01*
X79766352Y36683784D01*
X80416795Y36683216D01*
X81017943Y36931606D01*
X81363199Y37276259D01*
X81705637Y36933222D01*
X81748000Y36915631D01*
X81748000Y36904292D01*
X81747999Y36904287D01*
X81791861Y36683784D01*
X81815367Y36565612D01*
X81994557Y36297434D01*
X82007210Y36278497D01*
X82954500Y35331208D01*
X82954500Y29031259D01*
X82954499Y29031254D01*
X83000201Y28801500D01*
X83021867Y28692579D01*
X83105625Y28567226D01*
X83105222Y28106007D01*
X83315631Y27596777D01*
X83704898Y27206831D01*
X84074211Y27053479D01*
X80034959Y27053479D01*
X79544202Y27257259D01*
X79487824Y27257308D01*
X79386500Y27358632D01*
X79386500Y32984500D01*
X79381855Y33007852D01*
X79300104Y33418845D01*
X79054066Y33787066D01*
X76592500Y36248632D01*
X76592500Y36569796D01*
X76842778Y36819637D01*
X77092216Y37420352D01*
X77092784Y38070795D01*
X76844394Y38671943D01*
X76384863Y39132278D01*
X75784148Y39381716D01*
X75133705Y39382284D01*
X74532557Y39133894D01*
X74187301Y38789241D01*
X73844863Y39132278D01*
X73244148Y39381716D01*
X72593705Y39382284D01*
X71992557Y39133894D01*
X71532222Y38674363D01*
X71282784Y38073648D01*
X71282216Y37423205D01*
X71530606Y36822057D01*
X71782500Y36569722D01*
X71782500Y34508500D01*
X71868897Y34074154D01*
X72114934Y33705934D01*
X75084500Y30736368D01*
X75084500Y29501632D01*
X73847066Y30739066D01*
X73764103Y30794500D01*
X73478846Y30985103D01*
X73044500Y31071500D01*
X70123500Y31071500D01*
X69689155Y30985104D01*
X69320934Y30739066D01*
X67430868Y28849000D01*
X62553633Y28849000D01*
X61458260Y29944372D01*
X61602778Y30088637D01*
X61852216Y30689352D01*
X61852784Y31339795D01*
X61604394Y31940943D01*
X61144863Y32401278D01*
X60648224Y32607500D01*
X63406920Y32607500D01*
X64611116Y31403305D01*
X64610760Y30995715D01*
X64821169Y30486485D01*
X65210436Y30096539D01*
X65719298Y29885241D01*
X66270285Y29884760D01*
X66779515Y30095169D01*
X67169461Y30484436D01*
X67380759Y30993298D01*
X67381240Y31544285D01*
X67170831Y32053515D01*
X66781564Y32443461D01*
X66272702Y32654759D01*
X65862462Y32655117D01*
X64399290Y34118290D01*
X64286788Y34193461D01*
X64112175Y34310133D01*
X64055984Y34321310D01*
X63773500Y34377501D01*
X63773495Y34377500D01*
X58739792Y34377500D01*
X58739787Y34377501D01*
X58457303Y34321310D01*
X58401112Y34310133D01*
X58113997Y34118290D01*
X58113995Y34118287D01*
X57051710Y33056003D01*
X56859867Y32768888D01*
X56859867Y32768887D01*
X56792499Y32430213D01*
X56792500Y32430208D01*
X56792500Y32419398D01*
X56752557Y32402894D01*
X56292222Y31943363D01*
X56042784Y31342648D01*
X56042216Y30692205D01*
X56290606Y30091057D01*
X56750137Y29630722D01*
X57350852Y29381284D01*
X58001295Y29380716D01*
X58602443Y29629106D01*
X58947699Y29973759D01*
X59082500Y29838722D01*
X59082500Y29580000D01*
X59168897Y29145654D01*
X59333716Y28898985D01*
X59414934Y28777434D01*
X60907417Y27284950D01*
X60575715Y27285240D01*
X60066485Y27074831D01*
X59676539Y26685564D01*
X59537942Y26351785D01*
X59524831Y26383515D01*
X59135564Y26773461D01*
X58626702Y26984759D01*
X58216463Y26985117D01*
X58131790Y27069790D01*
X58124246Y27074831D01*
X57844675Y27261633D01*
X57754073Y27279655D01*
X57506000Y27329001D01*
X57505995Y27329000D01*
X51166372Y27329000D01*
X51103334Y27423343D01*
X50654008Y27723573D01*
X50123991Y27829000D01*
X49356009Y27829000D01*
X48825992Y27723573D01*
X48609623Y27579000D01*
X44931530Y27579000D01*
X44778040Y27609531D01*
X44752631Y27737271D01*
X44785000Y27900000D01*
X44785000Y29729868D01*
X47559536Y32504404D01*
X49466049Y32504404D01*
X49861573Y31547162D01*
X50593310Y30814147D01*
X51549860Y30416953D01*
X52585596Y30416049D01*
X53542838Y30811573D01*
X54275853Y31543310D01*
X54673047Y32499860D01*
X54673951Y33535596D01*
X54278427Y34492838D01*
X53546690Y35225853D01*
X52590140Y35623047D01*
X51554404Y35623951D01*
X50597162Y35228427D01*
X49864147Y34496690D01*
X49466953Y33540140D01*
X49466049Y32504404D01*
X47559536Y32504404D01*
X50720133Y35665000D01*
X53326042Y35665000D01*
X53364436Y35626539D01*
X53873298Y35415241D01*
X54424285Y35414760D01*
X54933515Y35625169D01*
X55323461Y36014436D01*
X55534759Y36523298D01*
X55535240Y37074285D01*
X55510354Y37134514D01*
X55764807Y36880061D01*
X55764760Y36825715D01*
X55975169Y36316485D01*
X56364436Y35926539D01*
X56873298Y35715241D01*
X57424285Y35714760D01*
X57933515Y35925169D01*
X58323461Y36314436D01*
X58534759Y36823298D01*
X58535240Y37374285D01*
X58324831Y37883515D01*
X57935564Y38273461D01*
X57426702Y38484759D01*
X57370324Y38484808D01*
X56052566Y39802566D01*
X55880356Y39917633D01*
X55684346Y40048603D01*
X55250000Y40135000D01*
X50210660Y40135000D01*
X49776314Y40048603D01*
X49408093Y39802566D01*
X43524929Y33919401D01*
X43126702Y34084759D01*
X42575715Y34085240D01*
X42066485Y33874831D01*
X41676539Y33485564D01*
X41465241Y32976702D01*
X41464760Y32425715D01*
X41675169Y31916485D01*
X42064436Y31526539D01*
X42573298Y31315241D01*
X43124285Y31314760D01*
X43184514Y31339646D01*
X42847434Y31002566D01*
X42601397Y30634346D01*
X42515000Y30200000D01*
X42515000Y27900000D01*
X42547369Y27737271D01*
X42502560Y27512000D01*
X42502560Y27012000D01*
X42528617Y26881000D01*
X42502560Y26750000D01*
X42502560Y26250000D01*
X42528617Y26119000D01*
X42502560Y25988000D01*
X42502560Y25488000D01*
X42547369Y25262729D01*
X42515000Y25100000D01*
X42515000Y21200000D01*
X42601397Y20765654D01*
X42751212Y20541440D01*
X42542000Y20541440D01*
X42294235Y20492157D01*
X42084191Y20351809D01*
X41943843Y20141765D01*
X41894560Y19894000D01*
X41894560Y15695000D01*
X41542000Y15695000D01*
X41107654Y15608603D01*
X40854158Y15439222D01*
X40739434Y15362566D01*
X32311868Y6935000D01*
X24820132Y6935000D01*
X23452566Y8302566D01*
X23322894Y8389210D01*
X23084346Y8548603D01*
X22650000Y8635000D01*
X11578184Y8635000D01*
X11725015Y8695669D01*
X12114961Y9084936D01*
X12326259Y9593798D01*
X12326677Y10072500D01*
X23897073Y10072500D01*
X23928395Y10072473D01*
X26397934Y7602934D01*
X26766154Y7356897D01*
X27200500Y7270500D01*
X29170542Y7270500D01*
X29208936Y7232039D01*
X29717798Y7020741D01*
X30268785Y7020260D01*
X30778015Y7230669D01*
X31167961Y7619936D01*
X31379259Y8128798D01*
X31379308Y8185176D01*
X33152566Y9958434D01*
X33228782Y10072499D01*
X33398603Y10326654D01*
X33485000Y10761000D01*
X33485000Y12476042D01*
X33523461Y12514436D01*
X33734759Y13023298D01*
X33735240Y13574285D01*
X33524831Y14083515D01*
X33135564Y14473461D01*
X32626702Y14684759D01*
X32075715Y14685240D01*
X31566485Y14474831D01*
X31176539Y14085564D01*
X30965241Y13576702D01*
X30964760Y13025715D01*
X31175169Y12516485D01*
X31215000Y12476585D01*
X31215000Y11231132D01*
X29774561Y9790693D01*
X29720215Y9790740D01*
X29210985Y9580331D01*
X29171085Y9540500D01*
X27670632Y9540500D01*
X25533475Y11677657D01*
X25533784Y12031295D01*
X25285394Y12632443D01*
X24940741Y12977699D01*
X25283778Y13320137D01*
X25533216Y13920852D01*
X25533784Y14571295D01*
X25285394Y15172443D01*
X24825863Y15632778D01*
X24225148Y15882216D01*
X23574705Y15882784D01*
X23574018Y15882500D01*
X18417739Y15882500D01*
X15049620Y19250620D01*
X14519188Y19605043D01*
X13893500Y19729501D01*
X13893495Y19729500D01*
X13044549Y19729500D01*
X13057913Y19749500D01*
X21784495Y19749500D01*
X21784500Y19749499D01*
X22066984Y19805690D01*
X22123175Y19816867D01*
X22410290Y20008710D01*
X35475787Y33074208D01*
X35475790Y33074210D01*
X35667633Y33361325D01*
X35735000Y33700000D01*
X35735000Y37926477D01*
X36023461Y38214436D01*
X36234759Y38723298D01*
X36235240Y39274285D01*
X36024831Y39783515D01*
X35635564Y40173461D01*
X35126702Y40384759D01*
X34575715Y40385240D01*
X34066485Y40174831D01*
X33739384Y39848299D01*
X33724833Y39883515D01*
X33335566Y40273461D01*
X32826704Y40484759D01*
X32275717Y40485240D01*
X31766487Y40274831D01*
X31650052Y40158599D01*
X31435564Y40373461D01*
X30926702Y40584759D01*
X30375715Y40585240D01*
X29866485Y40374831D01*
X29476539Y39985564D01*
X29265241Y39476702D01*
X29264760Y38925715D01*
X29475169Y38416485D01*
X29765000Y38126148D01*
X29765000Y32066579D01*
X25837921Y28139501D01*
X13368401Y28139501D01*
X13368784Y28578295D01*
X13128634Y29159500D01*
X15355495Y29159500D01*
X15355500Y29159499D01*
X15981188Y29283957D01*
X16511620Y29638380D01*
X18299240Y31426000D01*
X24044573Y31426000D01*
X24369795Y31425716D01*
X24970943Y31674106D01*
X25431278Y32133637D01*
X25680716Y32734352D01*
X25681284Y33384795D01*
X25432894Y33985943D01*
X25088241Y34331199D01*
X25431278Y34673637D01*
X25680716Y35274352D01*
X25681284Y35924795D01*
X25432894Y36525943D01*
X24973363Y36986278D01*
X24372648Y37235716D01*
X23722205Y37236284D01*
X23721518Y37236000D01*
X8986000Y37236000D01*
X8360312Y37111543D01*
X8250764Y37038345D01*
X7829880Y36757120D01*
X7829878Y36757117D01*
X5730500Y34657740D01*
X5730500Y36482977D01*
X6018961Y36770936D01*
X6230259Y37279798D01*
X6230740Y37830785D01*
X6020331Y38340015D01*
X5631064Y38729961D01*
X5122202Y38941259D01*
X4571215Y38941740D01*
X4061985Y38731331D01*
X3672039Y38342064D01*
X3460741Y37833202D01*
X3460260Y37282215D01*
X3670669Y36772985D01*
X3960500Y36482648D01*
X3960500Y28158505D01*
X3960499Y28158500D01*
X4016690Y27876016D01*
X4027867Y27819825D01*
X4155565Y27628710D01*
X4219710Y27532710D01*
X5018280Y26734141D01*
X5018216Y26660705D01*
X5266606Y26059557D01*
X5726137Y25599222D01*
X6326852Y25349784D01*
X6977295Y25349216D01*
X7578443Y25597606D01*
X7889628Y25908247D01*
X7778741Y25641202D01*
X7778260Y25090215D01*
X7988669Y24580985D01*
X8377936Y24191039D01*
X8886798Y23979741D01*
X9437785Y23979260D01*
X9947015Y24189669D01*
X9986915Y24229500D01*
X10585354Y24229500D01*
X10472125Y24153843D01*
X10171895Y23704517D01*
X10066468Y23174500D01*
X10143049Y22789500D01*
X8056898Y22789500D01*
X8040394Y22829443D01*
X7580863Y23289778D01*
X6980148Y23539216D01*
X6329705Y23539784D01*
X5728557Y23291394D01*
X5268222Y22831863D01*
X5018784Y22231148D01*
X5018216Y21580705D01*
X5258366Y20999500D01*
X1870739Y20999500D01*
X-2015000Y24885240D01*
X-2015000Y43256215D01*
X25172752Y43256215D01*
X25383161Y42746985D01*
X25772428Y42357039D01*
X26281290Y42145741D01*
X26832277Y42145260D01*
X27341507Y42355669D01*
X27731453Y42744936D01*
X27942751Y43253798D01*
X27943109Y43664038D01*
X28334260Y44055189D01*
X28836184Y44055189D01*
X29064436Y43826539D01*
X29573298Y43615241D01*
X30124285Y43614760D01*
X30633515Y43825169D01*
X31023461Y44214436D01*
X31111191Y44425715D01*
X34664760Y44425715D01*
X34875169Y43916485D01*
X35264436Y43526539D01*
X35773298Y43315241D01*
X36324285Y43314760D01*
X36833515Y43525169D01*
X37123852Y43815000D01*
X38011322Y43815000D01*
X38011048Y43501704D01*
X38221457Y42992474D01*
X38610724Y42602528D01*
X39119586Y42391230D01*
X39670573Y42390749D01*
X40179803Y42601158D01*
X40569749Y42990425D01*
X40781047Y43499287D01*
X40781528Y44050274D01*
X40571119Y44559504D01*
X40181852Y44949450D01*
X39672990Y45160748D01*
X39262751Y45161106D01*
X39098067Y45325790D01*
X39023235Y45375791D01*
X38810952Y45517633D01*
X38754761Y45528810D01*
X38472277Y45585001D01*
X38472272Y45585000D01*
X37123523Y45585000D01*
X36835564Y45873461D01*
X36326702Y46084759D01*
X35775715Y46085240D01*
X35266485Y45874831D01*
X34876539Y45485564D01*
X34665241Y44976702D01*
X34664760Y44425715D01*
X31111191Y44425715D01*
X31234759Y44723298D01*
X31235240Y45274285D01*
X31024831Y45783515D01*
X30635564Y46173461D01*
X30126702Y46384759D01*
X29575715Y46385240D01*
X29066485Y46174831D01*
X28716233Y45825189D01*
X27967681Y45825189D01*
X27629006Y45757822D01*
X27341891Y45565979D01*
X27341889Y45565976D01*
X26691297Y44915384D01*
X26283707Y44915740D01*
X25774477Y44705331D01*
X25384531Y44316064D01*
X25173233Y43807202D01*
X25172752Y43256215D01*
X-2015000Y43256215D01*
X-2015000Y48522760D01*
X-1031561Y49506199D01*
X-1333047Y48780140D01*
X-1333951Y47744404D01*
X-938427Y46787162D01*
X-206690Y46054147D01*
X749860Y45656953D01*
X1785596Y45656049D01*
X2742838Y46051573D01*
X3475853Y46783310D01*
X3607833Y47101153D01*
X3846657Y46743728D01*
X4295983Y46443498D01*
X4826000Y46338071D01*
X5356017Y46443498D01*
X5805343Y46743728D01*
X6096000Y47178727D01*
X6386657Y46743728D01*
X6835983Y46443498D01*
X7366000Y46338071D01*
X7896017Y46443498D01*
X8345343Y46743728D01*
X8636000Y47178727D01*
X8926657Y46743728D01*
X9375983Y46443498D01*
X9906000Y46338071D01*
X10436017Y46443498D01*
X10885343Y46743728D01*
X11185573Y47193054D01*
X11291000Y47723071D01*
X11291000Y48796929D01*
X13601000Y48796929D01*
X13601000Y47723071D01*
X13706427Y47193054D01*
X14006657Y46743728D01*
X14455983Y46443498D01*
X14986000Y46338071D01*
X15516017Y46443498D01*
X15965343Y46743728D01*
X16256000Y47178727D01*
X16546657Y46743728D01*
X16995983Y46443498D01*
X17526000Y46338071D01*
X18056017Y46443498D01*
X18505343Y46743728D01*
X18796000Y47178727D01*
X19086657Y46743728D01*
X19535983Y46443498D01*
X20066000Y46338071D01*
X20596017Y46443498D01*
X21045343Y46743728D01*
X21336000Y47178727D01*
X21626657Y46743728D01*
X22075983Y46443498D01*
X22606000Y46338071D01*
X23136017Y46443498D01*
X23585343Y46743728D01*
X23876000Y47178727D01*
X24166657Y46743728D01*
X24615983Y46443498D01*
X25146000Y46338071D01*
X25676017Y46443498D01*
X26125343Y46743728D01*
X26416000Y47178727D01*
X26706657Y46743728D01*
X27155983Y46443498D01*
X27686000Y46338071D01*
X28216017Y46443498D01*
X28665343Y46743728D01*
X28965573Y47193054D01*
X29071000Y47723071D01*
X29071000Y48796929D01*
X28965573Y49326946D01*
X28665343Y49776272D01*
X28216017Y50076502D01*
X27686000Y50181929D01*
X27155983Y50076502D01*
X26706657Y49776272D01*
X26416000Y49341273D01*
X26125343Y49776272D01*
X25676017Y50076502D01*
X25146000Y50181929D01*
X24615983Y50076502D01*
X24166657Y49776272D01*
X23876000Y49341273D01*
X23585343Y49776272D01*
X23136017Y50076502D01*
X22606000Y50181929D01*
X22075983Y50076502D01*
X21626657Y49776272D01*
X21336000Y49341273D01*
X21045343Y49776272D01*
X20596017Y50076502D01*
X20066000Y50181929D01*
X19535983Y50076502D01*
X19086657Y49776272D01*
X18796000Y49341273D01*
X18505343Y49776272D01*
X18056017Y50076502D01*
X17526000Y50181929D01*
X16995983Y50076502D01*
X16546657Y49776272D01*
X16256000Y49341273D01*
X15965343Y49776272D01*
X15516017Y50076502D01*
X14986000Y50181929D01*
X14455983Y50076502D01*
X14006657Y49776272D01*
X13706427Y49326946D01*
X13601000Y48796929D01*
X11291000Y48796929D01*
X11185573Y49326946D01*
X10885343Y49776272D01*
X10436017Y50076502D01*
X9906000Y50181929D01*
X9375983Y50076502D01*
X8926657Y49776272D01*
X8636000Y49341273D01*
X8345343Y49776272D01*
X7896017Y50076502D01*
X7366000Y50181929D01*
X6835983Y50076502D01*
X6386657Y49776272D01*
X6096000Y49341273D01*
X5805343Y49776272D01*
X5356017Y50076502D01*
X4826000Y50181929D01*
X4295983Y50076502D01*
X3846657Y49776272D01*
X3608038Y49419154D01*
X3478427Y49732838D01*
X2746690Y50465853D01*
X2369791Y50622355D01*
X35915405Y50622355D01*
X36434501Y50103259D01*
X36299983Y50076502D01*
X35850657Y49776272D01*
X35560000Y49341273D01*
X35269343Y49776272D01*
X34820017Y50076502D01*
X34290000Y50181929D01*
X33759983Y50076502D01*
X33310657Y49776272D01*
X33020000Y49341273D01*
X32729343Y49776272D01*
X32280017Y50076502D01*
X31750000Y50181929D01*
X31219983Y50076502D01*
X30770657Y49776272D01*
X30470427Y49326946D01*
X30365000Y48796929D01*
X30365000Y47723071D01*
X30470427Y47193054D01*
X30770657Y46743728D01*
X31219983Y46443498D01*
X31750000Y46338071D01*
X32280017Y46443498D01*
X32729343Y46743728D01*
X33020000Y47178727D01*
X33310657Y46743728D01*
X33759983Y46443498D01*
X34290000Y46338071D01*
X34820017Y46443498D01*
X35269343Y46743728D01*
X35560000Y47178727D01*
X35850657Y46743728D01*
X36299983Y46443498D01*
X36830000Y46338071D01*
X37360017Y46443498D01*
X37809343Y46743728D01*
X38100000Y47178727D01*
X38390657Y46743728D01*
X38839983Y46443498D01*
X39370000Y46338071D01*
X39900017Y46443498D01*
X40349343Y46743728D01*
X40640000Y47178727D01*
X40930657Y46743728D01*
X41379983Y46443498D01*
X41910000Y46338071D01*
X42440017Y46443498D01*
X42889343Y46743728D01*
X43180000Y47178727D01*
X43470657Y46743728D01*
X43919983Y46443498D01*
X44450000Y46338071D01*
X44980017Y46443498D01*
X45429343Y46743728D01*
X45720000Y47178727D01*
X46010657Y46743728D01*
X46459983Y46443498D01*
X46990000Y46338071D01*
X47520017Y46443498D01*
X47969343Y46743728D01*
X48260000Y47178727D01*
X48550657Y46743728D01*
X48999983Y46443498D01*
X49530000Y46338071D01*
X50060017Y46443498D01*
X50509343Y46743728D01*
X50809573Y47193054D01*
X50915000Y47723071D01*
X50915000Y48796929D01*
X50821895Y49265000D01*
X53656114Y49265000D01*
X53576539Y49185564D01*
X53365241Y48676702D01*
X53364760Y48125715D01*
X53575169Y47616485D01*
X53634671Y47556879D01*
X53326702Y47684759D01*
X52775715Y47685240D01*
X52266485Y47474831D01*
X51876539Y47085564D01*
X51665241Y46576702D01*
X51664760Y46025715D01*
X51875169Y45516485D01*
X52264436Y45126539D01*
X52773298Y44915241D01*
X53183537Y44914883D01*
X53974207Y44124214D01*
X53974209Y44124211D01*
X54261324Y43932368D01*
X54317515Y43921191D01*
X54599999Y43865000D01*
X54600004Y43865001D01*
X63899996Y43865001D01*
X63900001Y43865000D01*
X64182485Y43921191D01*
X64238676Y43932368D01*
X64525791Y44124211D01*
X66716695Y46315116D01*
X67124285Y46314760D01*
X67633515Y46525169D01*
X68023461Y46914436D01*
X68234759Y47423298D01*
X68235240Y47974285D01*
X68024831Y48483515D01*
X67635564Y48873461D01*
X67451479Y48949900D01*
X69266079Y50764500D01*
X79573500Y50764500D01*
X79627546Y50492795D01*
X79781454Y50262454D01*
X80011795Y50108546D01*
X80283500Y50054500D01*
X80555205Y50108546D01*
X80785546Y50262454D01*
X80939454Y50492795D01*
X80993500Y50764500D01*
X80939454Y51036205D01*
X80785546Y51266546D01*
X80555205Y51420454D01*
X80283500Y51474500D01*
X80011795Y51420454D01*
X79781454Y51266546D01*
X79627546Y51036205D01*
X79573500Y50764500D01*
X69266079Y50764500D01*
X72936354Y54434775D01*
X77579547Y54434775D01*
X79848158Y52166165D01*
G36*
X64757669Y4231485D02*
X64973813Y4014964D01*
X64759039Y3800564D01*
X64547741Y3291702D01*
X64547260Y2740715D01*
X64757669Y2231485D01*
X64973813Y2014964D01*
X64759039Y1800564D01*
X64547741Y1291702D01*
X64547260Y740715D01*
X64757669Y231485D01*
X64973813Y14964D01*
X64759039Y-199436D01*
X64547741Y-708298D01*
X64547260Y-1259285D01*
X64757669Y-1768515D01*
X64973813Y-1985036D01*
X64759039Y-2199436D01*
X64547741Y-2708298D01*
X64547260Y-3259285D01*
X64757669Y-3768515D01*
X65146936Y-4158461D01*
X65655798Y-4369759D01*
X66206785Y-4370240D01*
X66716015Y-4159831D01*
X67105961Y-3770564D01*
X67317259Y-3261702D01*
X67317740Y-2710715D01*
X67107331Y-2201485D01*
X66891187Y-1984964D01*
X67105961Y-1770564D01*
X67317259Y-1261702D01*
X67317740Y-710715D01*
X67107331Y-201485D01*
X66891187Y15036D01*
X67105961Y229436D01*
X67317259Y738298D01*
X67317740Y1289285D01*
X67107331Y1798515D01*
X66891187Y2015036D01*
X67105961Y2229436D01*
X67317259Y2738298D01*
X67317740Y3289285D01*
X67107331Y3798515D01*
X66891187Y4015036D01*
X67006352Y4130000D01*
X71111477Y4130000D01*
X71399436Y3841539D01*
X71908298Y3630241D01*
X72318537Y3629883D01*
X73874000Y2074421D01*
X73874000Y-4664602D01*
X73834057Y-4681106D01*
X73373722Y-5140637D01*
X73124284Y-5741352D01*
X73123716Y-6391795D01*
X73329571Y-6890000D01*
X42975270Y-6890000D01*
X43187778Y-6677863D01*
X43437216Y-6077148D01*
X43437784Y-5426705D01*
X43189394Y-4825557D01*
X42729863Y-4365222D01*
X42129148Y-4115784D01*
X41478705Y-4115216D01*
X41436312Y-4132732D01*
X41391080Y-4087500D01*
X52082958Y-4087500D01*
X52228535Y-4058543D01*
X52228260Y-4373785D01*
X52438669Y-4883015D01*
X52827936Y-5272961D01*
X53336798Y-5484259D01*
X53887785Y-5484740D01*
X54397015Y-5274331D01*
X54687352Y-4984500D01*
X57455995Y-4984500D01*
X57456000Y-4984501D01*
X57738484Y-4928310D01*
X57794675Y-4917133D01*
X58081790Y-4725290D01*
X59061864Y-3745216D01*
X59201500Y-3772991D01*
X59731517Y-3667564D01*
X60180843Y-3367334D01*
X60481073Y-2918008D01*
X60586500Y-2387991D01*
X60586500Y-1620009D01*
X60481073Y-1089992D01*
X60180843Y-640666D01*
X59731517Y-340436D01*
X59605302Y-315330D01*
X64385566Y4464934D01*
X64555887Y4719837D01*
X64757669Y4231485D01*
X64757669Y4231485D01*
G37*
X64757669Y4231485D02*
X64973813Y4014964D01*
X64759039Y3800564D01*
X64547741Y3291702D01*
X64547260Y2740715D01*
X64757669Y2231485D01*
X64973813Y2014964D01*
X64759039Y1800564D01*
X64547741Y1291702D01*
X64547260Y740715D01*
X64757669Y231485D01*
X64973813Y14964D01*
X64759039Y-199436D01*
X64547741Y-708298D01*
X64547260Y-1259285D01*
X64757669Y-1768515D01*
X64973813Y-1985036D01*
X64759039Y-2199436D01*
X64547741Y-2708298D01*
X64547260Y-3259285D01*
X64757669Y-3768515D01*
X65146936Y-4158461D01*
X65655798Y-4369759D01*
X66206785Y-4370240D01*
X66716015Y-4159831D01*
X67105961Y-3770564D01*
X67317259Y-3261702D01*
X67317740Y-2710715D01*
X67107331Y-2201485D01*
X66891187Y-1984964D01*
X67105961Y-1770564D01*
X67317259Y-1261702D01*
X67317740Y-710715D01*
X67107331Y-201485D01*
X66891187Y15036D01*
X67105961Y229436D01*
X67317259Y738298D01*
X67317740Y1289285D01*
X67107331Y1798515D01*
X66891187Y2015036D01*
X67105961Y2229436D01*
X67317259Y2738298D01*
X67317740Y3289285D01*
X67107331Y3798515D01*
X66891187Y4015036D01*
X67006352Y4130000D01*
X71111477Y4130000D01*
X71399436Y3841539D01*
X71908298Y3630241D01*
X72318537Y3629883D01*
X73874000Y2074421D01*
X73874000Y-4664602D01*
X73834057Y-4681106D01*
X73373722Y-5140637D01*
X73124284Y-5741352D01*
X73123716Y-6391795D01*
X73329571Y-6890000D01*
X42975270Y-6890000D01*
X43187778Y-6677863D01*
X43437216Y-6077148D01*
X43437784Y-5426705D01*
X43189394Y-4825557D01*
X42729863Y-4365222D01*
X42129148Y-4115784D01*
X41478705Y-4115216D01*
X41436312Y-4132732D01*
X41391080Y-4087500D01*
X52082958Y-4087500D01*
X52228535Y-4058543D01*
X52228260Y-4373785D01*
X52438669Y-4883015D01*
X52827936Y-5272961D01*
X53336798Y-5484259D01*
X53887785Y-5484740D01*
X54397015Y-5274331D01*
X54687352Y-4984500D01*
X57455995Y-4984500D01*
X57456000Y-4984501D01*
X57738484Y-4928310D01*
X57794675Y-4917133D01*
X58081790Y-4725290D01*
X59061864Y-3745216D01*
X59201500Y-3772991D01*
X59731517Y-3667564D01*
X60180843Y-3367334D01*
X60481073Y-2918008D01*
X60586500Y-2387991D01*
X60586500Y-1620009D01*
X60481073Y-1089992D01*
X60180843Y-640666D01*
X59731517Y-340436D01*
X59605302Y-315330D01*
X64385566Y4464934D01*
X64555887Y4719837D01*
X64757669Y4231485D01*
G36*
X74810060Y26565808D02*
X74810060Y25745500D01*
X74859343Y25497735D01*
X74999691Y25287691D01*
X75209735Y25147343D01*
X75211500Y25146992D01*
X75211500Y23332500D01*
X75297897Y22898154D01*
X75495044Y22603103D01*
X75543934Y22529934D01*
X75941448Y22132420D01*
X75761691Y22012309D01*
X75621343Y21802265D01*
X75572060Y21554500D01*
X75572060Y19268500D01*
X75621343Y19020735D01*
X75761691Y18810691D01*
X75971735Y18670343D01*
X76219500Y18621060D01*
X77997500Y18621060D01*
X78245265Y18670343D01*
X78378500Y18759368D01*
X78511735Y18670343D01*
X78759500Y18621060D01*
X80537500Y18621060D01*
X80785265Y18670343D01*
X80995309Y18810691D01*
X81135657Y19020735D01*
X81184940Y19268500D01*
X81184940Y19340000D01*
X82950500Y19340000D01*
X83166977Y19383060D01*
X83649000Y19383060D01*
X83896765Y19432343D01*
X84106809Y19572691D01*
X84247157Y19782735D01*
X84296440Y20030500D01*
X84296440Y20919500D01*
X84247157Y21167265D01*
X84106809Y21377309D01*
X83896765Y21517657D01*
X83649000Y21566940D01*
X83166977Y21566940D01*
X82950500Y21610000D01*
X82759791Y21610000D01*
X82938259Y22039798D01*
X82938740Y22590785D01*
X82838866Y22832500D01*
X86798368Y22832500D01*
X87643918Y21986950D01*
X87311715Y21987240D01*
X86802485Y21776831D01*
X86412539Y21387564D01*
X86201241Y20878702D01*
X86200970Y20567848D01*
X86148202Y20589759D01*
X85597215Y20590240D01*
X85087985Y20379831D01*
X84698039Y19990564D01*
X84486741Y19481702D01*
X84486260Y18930715D01*
X84696669Y18421485D01*
X84986500Y18131148D01*
X84986500Y11443895D01*
X84625064Y11805961D01*
X84116202Y12017259D01*
X83565215Y12017740D01*
X83089940Y11821361D01*
X83089940Y16093500D01*
X83040657Y16341265D01*
X82900309Y16551309D01*
X82690265Y16691657D01*
X82442500Y16740940D01*
X71774500Y16740940D01*
X71526735Y16691657D01*
X71316691Y16551309D01*
X71176343Y16341265D01*
X71127060Y16093500D01*
X71127060Y7203500D01*
X71176343Y6955735D01*
X71316691Y6745691D01*
X71526735Y6605343D01*
X71774500Y6556060D01*
X82442500Y6556060D01*
X82690265Y6605343D01*
X82900309Y6745691D01*
X83040657Y6955735D01*
X83089940Y7203500D01*
X83089940Y9444089D01*
X83562798Y9247741D01*
X83973037Y9247383D01*
X88415500Y4804921D01*
X88415500Y-785500D01*
X84800929Y-785500D01*
X84800929Y-4605500D01*
X88415500Y-4605500D01*
X88415500Y-4664602D01*
X88375557Y-4681106D01*
X87915222Y-5140637D01*
X87665784Y-5741352D01*
X87665216Y-6391795D01*
X87871071Y-6890000D01*
X76188028Y-6890000D01*
X76393716Y-6394648D01*
X76394284Y-5744205D01*
X76145894Y-5143057D01*
X75686363Y-4682722D01*
X75644000Y-4665131D01*
X75644000Y2440995D01*
X75644001Y2441000D01*
X75576633Y2779674D01*
X75576633Y2779675D01*
X75384790Y3066790D01*
X75384787Y3066792D01*
X73569884Y4881696D01*
X73570240Y5289285D01*
X73359831Y5798515D01*
X72970564Y6188461D01*
X72461702Y6399759D01*
X71910715Y6400240D01*
X71401485Y6189831D01*
X71111148Y5900000D01*
X67006023Y5900000D01*
X66891187Y6015036D01*
X67105961Y6229436D01*
X67317259Y6738298D01*
X67317740Y7289285D01*
X67107331Y7798515D01*
X66891187Y8015036D01*
X67105961Y8229436D01*
X67317259Y8738298D01*
X67317740Y9289285D01*
X67107331Y9798515D01*
X66891187Y10015036D01*
X67105961Y10229436D01*
X67317259Y10738298D01*
X67317740Y11289285D01*
X67107331Y11798515D01*
X66891187Y12015036D01*
X67105961Y12229436D01*
X67317259Y12738298D01*
X67317740Y13289285D01*
X67107331Y13798515D01*
X66891187Y14015036D01*
X67105961Y14229436D01*
X67317259Y14738298D01*
X67317740Y15289285D01*
X67107331Y15798515D01*
X66891187Y16015036D01*
X67105961Y16229436D01*
X67317259Y16738298D01*
X67317740Y17289285D01*
X67107331Y17798515D01*
X66891187Y18015036D01*
X67105961Y18229436D01*
X67317259Y18738298D01*
X67317740Y19289285D01*
X67107331Y19798515D01*
X66718064Y20188461D01*
X66209202Y20399759D01*
X65658215Y20400240D01*
X65148985Y20189831D01*
X64759039Y19800564D01*
X64718000Y19701731D01*
X64718000Y21817205D01*
X64724691Y21807191D01*
X64934735Y21666843D01*
X65182500Y21617560D01*
X66682500Y21617560D01*
X66930265Y21666843D01*
X67140309Y21807191D01*
X67188959Y21880000D01*
X69226080Y21880000D01*
X69366114Y21739967D01*
X69267539Y21641564D01*
X69056241Y21132702D01*
X69055760Y20581715D01*
X69266169Y20072485D01*
X69655436Y19682539D01*
X70164298Y19471241D01*
X70715285Y19470760D01*
X71224515Y19681169D01*
X71614461Y20070436D01*
X71825759Y20579298D01*
X71826240Y21130285D01*
X71615831Y21639515D01*
X71322724Y21933133D01*
X71258633Y22255334D01*
X71258633Y22255335D01*
X71066790Y22542450D01*
X71066787Y22542452D01*
X70956144Y22653096D01*
X71222964Y22919916D01*
X71277310Y22919869D01*
X71786540Y23130278D01*
X72176486Y23519545D01*
X72387784Y24028407D01*
X72388265Y24579394D01*
X72177856Y25088624D01*
X71788589Y25478570D01*
X71279727Y25689868D01*
X70728740Y25690349D01*
X70219510Y25479940D01*
X69829564Y25090673D01*
X69618266Y24581811D01*
X69618217Y24525433D01*
X69242784Y24150000D01*
X67188959Y24150000D01*
X67140309Y24222809D01*
X66930265Y24363157D01*
X66682500Y24412440D01*
X65182500Y24412440D01*
X64934735Y24363157D01*
X64724691Y24222809D01*
X64718000Y24212795D01*
X64718000Y26214500D01*
X64645496Y26579000D01*
X67901000Y26579000D01*
X68335346Y26665397D01*
X68703566Y26911434D01*
X70593632Y28801500D01*
X72574368Y28801500D01*
X74810060Y26565808D01*
X74810060Y26565808D01*
G37*
X74810060Y26565808D02*
X74810060Y25745500D01*
X74859343Y25497735D01*
X74999691Y25287691D01*
X75209735Y25147343D01*
X75211500Y25146992D01*
X75211500Y23332500D01*
X75297897Y22898154D01*
X75495044Y22603103D01*
X75543934Y22529934D01*
X75941448Y22132420D01*
X75761691Y22012309D01*
X75621343Y21802265D01*
X75572060Y21554500D01*
X75572060Y19268500D01*
X75621343Y19020735D01*
X75761691Y18810691D01*
X75971735Y18670343D01*
X76219500Y18621060D01*
X77997500Y18621060D01*
X78245265Y18670343D01*
X78378500Y18759368D01*
X78511735Y18670343D01*
X78759500Y18621060D01*
X80537500Y18621060D01*
X80785265Y18670343D01*
X80995309Y18810691D01*
X81135657Y19020735D01*
X81184940Y19268500D01*
X81184940Y19340000D01*
X82950500Y19340000D01*
X83166977Y19383060D01*
X83649000Y19383060D01*
X83896765Y19432343D01*
X84106809Y19572691D01*
X84247157Y19782735D01*
X84296440Y20030500D01*
X84296440Y20919500D01*
X84247157Y21167265D01*
X84106809Y21377309D01*
X83896765Y21517657D01*
X83649000Y21566940D01*
X83166977Y21566940D01*
X82950500Y21610000D01*
X82759791Y21610000D01*
X82938259Y22039798D01*
X82938740Y22590785D01*
X82838866Y22832500D01*
X86798368Y22832500D01*
X87643918Y21986950D01*
X87311715Y21987240D01*
X86802485Y21776831D01*
X86412539Y21387564D01*
X86201241Y20878702D01*
X86200970Y20567848D01*
X86148202Y20589759D01*
X85597215Y20590240D01*
X85087985Y20379831D01*
X84698039Y19990564D01*
X84486741Y19481702D01*
X84486260Y18930715D01*
X84696669Y18421485D01*
X84986500Y18131148D01*
X84986500Y11443895D01*
X84625064Y11805961D01*
X84116202Y12017259D01*
X83565215Y12017740D01*
X83089940Y11821361D01*
X83089940Y16093500D01*
X83040657Y16341265D01*
X82900309Y16551309D01*
X82690265Y16691657D01*
X82442500Y16740940D01*
X71774500Y16740940D01*
X71526735Y16691657D01*
X71316691Y16551309D01*
X71176343Y16341265D01*
X71127060Y16093500D01*
X71127060Y7203500D01*
X71176343Y6955735D01*
X71316691Y6745691D01*
X71526735Y6605343D01*
X71774500Y6556060D01*
X82442500Y6556060D01*
X82690265Y6605343D01*
X82900309Y6745691D01*
X83040657Y6955735D01*
X83089940Y7203500D01*
X83089940Y9444089D01*
X83562798Y9247741D01*
X83973037Y9247383D01*
X88415500Y4804921D01*
X88415500Y-785500D01*
X84800929Y-785500D01*
X84800929Y-4605500D01*
X88415500Y-4605500D01*
X88415500Y-4664602D01*
X88375557Y-4681106D01*
X87915222Y-5140637D01*
X87665784Y-5741352D01*
X87665216Y-6391795D01*
X87871071Y-6890000D01*
X76188028Y-6890000D01*
X76393716Y-6394648D01*
X76394284Y-5744205D01*
X76145894Y-5143057D01*
X75686363Y-4682722D01*
X75644000Y-4665131D01*
X75644000Y2440995D01*
X75644001Y2441000D01*
X75576633Y2779674D01*
X75576633Y2779675D01*
X75384790Y3066790D01*
X75384787Y3066792D01*
X73569884Y4881696D01*
X73570240Y5289285D01*
X73359831Y5798515D01*
X72970564Y6188461D01*
X72461702Y6399759D01*
X71910715Y6400240D01*
X71401485Y6189831D01*
X71111148Y5900000D01*
X67006023Y5900000D01*
X66891187Y6015036D01*
X67105961Y6229436D01*
X67317259Y6738298D01*
X67317740Y7289285D01*
X67107331Y7798515D01*
X66891187Y8015036D01*
X67105961Y8229436D01*
X67317259Y8738298D01*
X67317740Y9289285D01*
X67107331Y9798515D01*
X66891187Y10015036D01*
X67105961Y10229436D01*
X67317259Y10738298D01*
X67317740Y11289285D01*
X67107331Y11798515D01*
X66891187Y12015036D01*
X67105961Y12229436D01*
X67317259Y12738298D01*
X67317740Y13289285D01*
X67107331Y13798515D01*
X66891187Y14015036D01*
X67105961Y14229436D01*
X67317259Y14738298D01*
X67317740Y15289285D01*
X67107331Y15798515D01*
X66891187Y16015036D01*
X67105961Y16229436D01*
X67317259Y16738298D01*
X67317740Y17289285D01*
X67107331Y17798515D01*
X66891187Y18015036D01*
X67105961Y18229436D01*
X67317259Y18738298D01*
X67317740Y19289285D01*
X67107331Y19798515D01*
X66718064Y20188461D01*
X66209202Y20399759D01*
X65658215Y20400240D01*
X65148985Y20189831D01*
X64759039Y19800564D01*
X64718000Y19701731D01*
X64718000Y21817205D01*
X64724691Y21807191D01*
X64934735Y21666843D01*
X65182500Y21617560D01*
X66682500Y21617560D01*
X66930265Y21666843D01*
X67140309Y21807191D01*
X67188959Y21880000D01*
X69226080Y21880000D01*
X69366114Y21739967D01*
X69267539Y21641564D01*
X69056241Y21132702D01*
X69055760Y20581715D01*
X69266169Y20072485D01*
X69655436Y19682539D01*
X70164298Y19471241D01*
X70715285Y19470760D01*
X71224515Y19681169D01*
X71614461Y20070436D01*
X71825759Y20579298D01*
X71826240Y21130285D01*
X71615831Y21639515D01*
X71322724Y21933133D01*
X71258633Y22255334D01*
X71258633Y22255335D01*
X71066790Y22542450D01*
X71066787Y22542452D01*
X70956144Y22653096D01*
X71222964Y22919916D01*
X71277310Y22919869D01*
X71786540Y23130278D01*
X72176486Y23519545D01*
X72387784Y24028407D01*
X72388265Y24579394D01*
X72177856Y25088624D01*
X71788589Y25478570D01*
X71279727Y25689868D01*
X70728740Y25690349D01*
X70219510Y25479940D01*
X69829564Y25090673D01*
X69618266Y24581811D01*
X69618217Y24525433D01*
X69242784Y24150000D01*
X67188959Y24150000D01*
X67140309Y24222809D01*
X66930265Y24363157D01*
X66682500Y24412440D01*
X65182500Y24412440D01*
X64934735Y24363157D01*
X64724691Y24222809D01*
X64718000Y24212795D01*
X64718000Y26214500D01*
X64645496Y26579000D01*
X67901000Y26579000D01*
X68335346Y26665397D01*
X68703566Y26911434D01*
X70593632Y28801500D01*
X72574368Y28801500D01*
X74810060Y26565808D01*
G36*
X54008843Y13423235D02*
X54097868Y13290000D01*
X54008843Y13156765D01*
X53959560Y12909000D01*
X53959560Y11131000D01*
X54008843Y10883235D01*
X54149191Y10673191D01*
X54359235Y10532843D01*
X54607000Y10483560D01*
X54615000Y10483560D01*
X54615000Y9457011D01*
X54578000Y9271000D01*
X54664397Y8836655D01*
X54910434Y8468434D01*
X57681156Y5697712D01*
X58049377Y5451674D01*
X58240441Y5413669D01*
X51509272Y-1317500D01*
X50642158Y-1317500D01*
X50809573Y-1066946D01*
X50915000Y-536929D01*
X50915000Y536929D01*
X50809573Y1066946D01*
X50509343Y1516272D01*
X50060017Y1816502D01*
X49530000Y1921929D01*
X48999983Y1816502D01*
X48550657Y1516272D01*
X48260000Y1081273D01*
X47969343Y1516272D01*
X47520017Y1816502D01*
X46990000Y1921929D01*
X46459983Y1816502D01*
X46010657Y1516272D01*
X45720000Y1081273D01*
X45429343Y1516272D01*
X44980017Y1816502D01*
X44450000Y1921929D01*
X43919983Y1816502D01*
X43470657Y1516272D01*
X43180000Y1081273D01*
X42889343Y1516272D01*
X42440017Y1816502D01*
X41910000Y1921929D01*
X41379983Y1816502D01*
X40930657Y1516272D01*
X40640000Y1081273D01*
X40349343Y1516272D01*
X39900017Y1816502D01*
X39370000Y1921929D01*
X38839983Y1816502D01*
X38390657Y1516272D01*
X38100000Y1081273D01*
X37809343Y1516272D01*
X37360017Y1816502D01*
X36830000Y1921929D01*
X36299983Y1816502D01*
X35850657Y1516272D01*
X35550427Y1066946D01*
X35445000Y536929D01*
X35445000Y-536929D01*
X35550427Y-1066946D01*
X35717842Y-1317500D01*
X35662568Y-1317500D01*
X35650000Y-1315000D01*
X35637432Y-1317500D01*
X32862158Y-1317500D01*
X33029573Y-1066946D01*
X33135000Y-536929D01*
X33135000Y536929D01*
X33029573Y1066946D01*
X32729343Y1516272D01*
X32280017Y1816502D01*
X31750000Y1921929D01*
X31219983Y1816502D01*
X30770657Y1516272D01*
X30470427Y1066946D01*
X30365000Y536929D01*
X30365000Y-536929D01*
X30470427Y-1066946D01*
X30770657Y-1516272D01*
X30953208Y-1638249D01*
X30676539Y-1914436D01*
X30465241Y-2423298D01*
X30464760Y-2974285D01*
X30675169Y-3483515D01*
X30856836Y-3665499D01*
X30639964Y-3882371D01*
X5122055Y-3882371D01*
X5176764Y-3845816D01*
X6991864Y-2030716D01*
X7131500Y-2058491D01*
X7661517Y-1953064D01*
X8110843Y-1652834D01*
X8401500Y-1217835D01*
X8692157Y-1652834D01*
X9141483Y-1953064D01*
X9671500Y-2058491D01*
X10201517Y-1953064D01*
X10650843Y-1652834D01*
X10951073Y-1203508D01*
X11056500Y-673491D01*
X11056500Y94491D01*
X10968494Y536929D01*
X17665000Y536929D01*
X17665000Y-536929D01*
X17770427Y-1066946D01*
X18070657Y-1516272D01*
X18519983Y-1816502D01*
X19050000Y-1921929D01*
X19580017Y-1816502D01*
X20029343Y-1516272D01*
X20320000Y-1081273D01*
X20610657Y-1516272D01*
X21059983Y-1816502D01*
X21590000Y-1921929D01*
X22120017Y-1816502D01*
X22569343Y-1516272D01*
X22860000Y-1081273D01*
X23150657Y-1516272D01*
X23599983Y-1816502D01*
X24130000Y-1921929D01*
X24660017Y-1816502D01*
X25109343Y-1516272D01*
X25409573Y-1066946D01*
X25515000Y-536929D01*
X25515000Y536929D01*
X25409573Y1066946D01*
X25109343Y1516272D01*
X24660017Y1816502D01*
X24130000Y1921929D01*
X23599983Y1816502D01*
X23150657Y1516272D01*
X22860000Y1081273D01*
X22569343Y1516272D01*
X22120017Y1816502D01*
X21590000Y1921929D01*
X21059983Y1816502D01*
X20610657Y1516272D01*
X20320000Y1081273D01*
X20029343Y1516272D01*
X19580017Y1816502D01*
X19050000Y1921929D01*
X18519983Y1816502D01*
X18070657Y1516272D01*
X17770427Y1066946D01*
X17665000Y536929D01*
X10968494Y536929D01*
X10951073Y624508D01*
X10650843Y1073834D01*
X10556500Y1136872D01*
X10556500Y1154920D01*
X13192547Y3790968D01*
X44425963Y3790968D01*
X44425968Y3790967D01*
X44713465Y3848155D01*
X44764643Y3858335D01*
X45051758Y4050178D01*
X45565983Y4564404D01*
X49466049Y4564404D01*
X49861573Y3607162D01*
X50593310Y2874147D01*
X51549860Y2476953D01*
X52585596Y2476049D01*
X53542838Y2871573D01*
X54275853Y3603310D01*
X54673047Y4559860D01*
X54673951Y5595596D01*
X54278427Y6552838D01*
X53546690Y7285853D01*
X52590140Y7683047D01*
X51554404Y7683951D01*
X50597162Y7288427D01*
X49864147Y6556690D01*
X49466953Y5600140D01*
X49466049Y4564404D01*
X45565983Y4564404D01*
X46916695Y5915116D01*
X47324285Y5914760D01*
X47833515Y6125169D01*
X48223461Y6514436D01*
X48434759Y7023298D01*
X48435240Y7574285D01*
X48224831Y8083515D01*
X47835564Y8473461D01*
X47582458Y8578560D01*
X51432000Y8578560D01*
X51679765Y8627843D01*
X51889809Y8768191D01*
X52030157Y8978235D01*
X52079440Y9226000D01*
X52079440Y13425000D01*
X54008492Y13425000D01*
X54008843Y13423235D01*
X54008843Y13423235D01*
G37*
X54008843Y13423235D02*
X54097868Y13290000D01*
X54008843Y13156765D01*
X53959560Y12909000D01*
X53959560Y11131000D01*
X54008843Y10883235D01*
X54149191Y10673191D01*
X54359235Y10532843D01*
X54607000Y10483560D01*
X54615000Y10483560D01*
X54615000Y9457011D01*
X54578000Y9271000D01*
X54664397Y8836655D01*
X54910434Y8468434D01*
X57681156Y5697712D01*
X58049377Y5451674D01*
X58240441Y5413669D01*
X51509272Y-1317500D01*
X50642158Y-1317500D01*
X50809573Y-1066946D01*
X50915000Y-536929D01*
X50915000Y536929D01*
X50809573Y1066946D01*
X50509343Y1516272D01*
X50060017Y1816502D01*
X49530000Y1921929D01*
X48999983Y1816502D01*
X48550657Y1516272D01*
X48260000Y1081273D01*
X47969343Y1516272D01*
X47520017Y1816502D01*
X46990000Y1921929D01*
X46459983Y1816502D01*
X46010657Y1516272D01*
X45720000Y1081273D01*
X45429343Y1516272D01*
X44980017Y1816502D01*
X44450000Y1921929D01*
X43919983Y1816502D01*
X43470657Y1516272D01*
X43180000Y1081273D01*
X42889343Y1516272D01*
X42440017Y1816502D01*
X41910000Y1921929D01*
X41379983Y1816502D01*
X40930657Y1516272D01*
X40640000Y1081273D01*
X40349343Y1516272D01*
X39900017Y1816502D01*
X39370000Y1921929D01*
X38839983Y1816502D01*
X38390657Y1516272D01*
X38100000Y1081273D01*
X37809343Y1516272D01*
X37360017Y1816502D01*
X36830000Y1921929D01*
X36299983Y1816502D01*
X35850657Y1516272D01*
X35550427Y1066946D01*
X35445000Y536929D01*
X35445000Y-536929D01*
X35550427Y-1066946D01*
X35717842Y-1317500D01*
X35662568Y-1317500D01*
X35650000Y-1315000D01*
X35637432Y-1317500D01*
X32862158Y-1317500D01*
X33029573Y-1066946D01*
X33135000Y-536929D01*
X33135000Y536929D01*
X33029573Y1066946D01*
X32729343Y1516272D01*
X32280017Y1816502D01*
X31750000Y1921929D01*
X31219983Y1816502D01*
X30770657Y1516272D01*
X30470427Y1066946D01*
X30365000Y536929D01*
X30365000Y-536929D01*
X30470427Y-1066946D01*
X30770657Y-1516272D01*
X30953208Y-1638249D01*
X30676539Y-1914436D01*
X30465241Y-2423298D01*
X30464760Y-2974285D01*
X30675169Y-3483515D01*
X30856836Y-3665499D01*
X30639964Y-3882371D01*
X5122055Y-3882371D01*
X5176764Y-3845816D01*
X6991864Y-2030716D01*
X7131500Y-2058491D01*
X7661517Y-1953064D01*
X8110843Y-1652834D01*
X8401500Y-1217835D01*
X8692157Y-1652834D01*
X9141483Y-1953064D01*
X9671500Y-2058491D01*
X10201517Y-1953064D01*
X10650843Y-1652834D01*
X10951073Y-1203508D01*
X11056500Y-673491D01*
X11056500Y94491D01*
X10968494Y536929D01*
X17665000Y536929D01*
X17665000Y-536929D01*
X17770427Y-1066946D01*
X18070657Y-1516272D01*
X18519983Y-1816502D01*
X19050000Y-1921929D01*
X19580017Y-1816502D01*
X20029343Y-1516272D01*
X20320000Y-1081273D01*
X20610657Y-1516272D01*
X21059983Y-1816502D01*
X21590000Y-1921929D01*
X22120017Y-1816502D01*
X22569343Y-1516272D01*
X22860000Y-1081273D01*
X23150657Y-1516272D01*
X23599983Y-1816502D01*
X24130000Y-1921929D01*
X24660017Y-1816502D01*
X25109343Y-1516272D01*
X25409573Y-1066946D01*
X25515000Y-536929D01*
X25515000Y536929D01*
X25409573Y1066946D01*
X25109343Y1516272D01*
X24660017Y1816502D01*
X24130000Y1921929D01*
X23599983Y1816502D01*
X23150657Y1516272D01*
X22860000Y1081273D01*
X22569343Y1516272D01*
X22120017Y1816502D01*
X21590000Y1921929D01*
X21059983Y1816502D01*
X20610657Y1516272D01*
X20320000Y1081273D01*
X20029343Y1516272D01*
X19580017Y1816502D01*
X19050000Y1921929D01*
X18519983Y1816502D01*
X18070657Y1516272D01*
X17770427Y1066946D01*
X17665000Y536929D01*
X10968494Y536929D01*
X10951073Y624508D01*
X10650843Y1073834D01*
X10556500Y1136872D01*
X10556500Y1154920D01*
X13192547Y3790968D01*
X44425963Y3790968D01*
X44425968Y3790967D01*
X44713465Y3848155D01*
X44764643Y3858335D01*
X45051758Y4050178D01*
X45565983Y4564404D01*
X49466049Y4564404D01*
X49861573Y3607162D01*
X50593310Y2874147D01*
X51549860Y2476953D01*
X52585596Y2476049D01*
X53542838Y2871573D01*
X54275853Y3603310D01*
X54673047Y4559860D01*
X54673951Y5595596D01*
X54278427Y6552838D01*
X53546690Y7285853D01*
X52590140Y7683047D01*
X51554404Y7683951D01*
X50597162Y7288427D01*
X49864147Y6556690D01*
X49466953Y5600140D01*
X49466049Y4564404D01*
X45565983Y4564404D01*
X46916695Y5915116D01*
X47324285Y5914760D01*
X47833515Y6125169D01*
X48223461Y6514436D01*
X48434759Y7023298D01*
X48435240Y7574285D01*
X48224831Y8083515D01*
X47835564Y8473461D01*
X47582458Y8578560D01*
X51432000Y8578560D01*
X51679765Y8627843D01*
X51889809Y8768191D01*
X52030157Y8978235D01*
X52079440Y9226000D01*
X52079440Y13425000D01*
X54008492Y13425000D01*
X54008843Y13423235D01*
G36*
X62448000Y25744368D02*
X62448000Y15884888D01*
X62082564Y16250961D01*
X61573702Y16462259D01*
X61022715Y16462740D01*
X60513485Y16252331D01*
X60123539Y15863064D01*
X60023562Y15622292D01*
X60006163Y15596253D01*
X60000107Y15565806D01*
X59912241Y15354202D01*
X59912039Y15123061D01*
X59900736Y15066236D01*
X59900736Y13236636D01*
X59900496Y12961715D01*
X59900736Y12961134D01*
X59900736Y7635278D01*
X58953854Y7635278D01*
X56885000Y9704132D01*
X56885000Y10483560D01*
X56893000Y10483560D01*
X57140765Y10532843D01*
X57219048Y10585150D01*
X57253343Y10412735D01*
X57393691Y10202691D01*
X57603735Y10062343D01*
X57851500Y10013060D01*
X58333526Y10013060D01*
X58550000Y9970001D01*
X58766474Y10013060D01*
X59248500Y10013060D01*
X59496265Y10062343D01*
X59706309Y10202691D01*
X59846657Y10412735D01*
X59895940Y10660500D01*
X59895940Y11549500D01*
X59846657Y11797265D01*
X59706309Y12007309D01*
X59496265Y12147657D01*
X59248500Y12196940D01*
X59063192Y12196940D01*
X58652072Y12608060D01*
X59048500Y12608060D01*
X59296265Y12657343D01*
X59506309Y12797691D01*
X59646657Y13007735D01*
X59695940Y13255500D01*
X59695940Y14144500D01*
X59646657Y14392265D01*
X59506309Y14602309D01*
X59296265Y14742657D01*
X59048500Y14791940D01*
X58566477Y14791940D01*
X58350000Y14835000D01*
X57540440Y14835000D01*
X57540440Y15449000D01*
X57491157Y15696765D01*
X57350809Y15906809D01*
X57140765Y16047157D01*
X56893000Y16096440D01*
X54607000Y16096440D01*
X54359235Y16047157D01*
X54149191Y15906809D01*
X54008843Y15696765D01*
X54008492Y15695000D01*
X52079440Y15695000D01*
X52079440Y19372981D01*
X52111208Y19341213D01*
X52111210Y19341210D01*
X52248465Y19249500D01*
X52398325Y19149367D01*
X52737000Y19082000D01*
X55977420Y19082000D01*
X57372116Y17687305D01*
X57371760Y17279715D01*
X57582169Y16770485D01*
X57971436Y16380539D01*
X58480298Y16169241D01*
X59031285Y16168760D01*
X59540515Y16379169D01*
X59930461Y16768436D01*
X60141759Y17277298D01*
X60142240Y17828285D01*
X59931831Y18337515D01*
X59542564Y18727461D01*
X59033702Y18938759D01*
X58623462Y18939117D01*
X56969790Y20592790D01*
X56752152Y20738210D01*
X56682675Y20784633D01*
X56626484Y20795810D01*
X56344000Y20852001D01*
X56343995Y20852000D01*
X53103579Y20852000D01*
X51965790Y21989790D01*
X51924715Y22017235D01*
X51678675Y22181633D01*
X51598907Y22197500D01*
X51340000Y22249001D01*
X51339995Y22249000D01*
X51166372Y22249000D01*
X51103334Y22343343D01*
X50668335Y22634000D01*
X51103334Y22924657D01*
X51166372Y23019000D01*
X58853995Y23019000D01*
X58854000Y23018999D01*
X59136484Y23075190D01*
X59192675Y23086367D01*
X59479790Y23278210D01*
X60716695Y24515116D01*
X61124285Y24514760D01*
X61633515Y24725169D01*
X62023461Y25114436D01*
X62234759Y25623298D01*
X62235051Y25957317D01*
X62448000Y25744368D01*
X62448000Y25744368D01*
G37*
X62448000Y25744368D02*
X62448000Y15884888D01*
X62082564Y16250961D01*
X61573702Y16462259D01*
X61022715Y16462740D01*
X60513485Y16252331D01*
X60123539Y15863064D01*
X60023562Y15622292D01*
X60006163Y15596253D01*
X60000107Y15565806D01*
X59912241Y15354202D01*
X59912039Y15123061D01*
X59900736Y15066236D01*
X59900736Y13236636D01*
X59900496Y12961715D01*
X59900736Y12961134D01*
X59900736Y7635278D01*
X58953854Y7635278D01*
X56885000Y9704132D01*
X56885000Y10483560D01*
X56893000Y10483560D01*
X57140765Y10532843D01*
X57219048Y10585150D01*
X57253343Y10412735D01*
X57393691Y10202691D01*
X57603735Y10062343D01*
X57851500Y10013060D01*
X58333526Y10013060D01*
X58550000Y9970001D01*
X58766474Y10013060D01*
X59248500Y10013060D01*
X59496265Y10062343D01*
X59706309Y10202691D01*
X59846657Y10412735D01*
X59895940Y10660500D01*
X59895940Y11549500D01*
X59846657Y11797265D01*
X59706309Y12007309D01*
X59496265Y12147657D01*
X59248500Y12196940D01*
X59063192Y12196940D01*
X58652072Y12608060D01*
X59048500Y12608060D01*
X59296265Y12657343D01*
X59506309Y12797691D01*
X59646657Y13007735D01*
X59695940Y13255500D01*
X59695940Y14144500D01*
X59646657Y14392265D01*
X59506309Y14602309D01*
X59296265Y14742657D01*
X59048500Y14791940D01*
X58566477Y14791940D01*
X58350000Y14835000D01*
X57540440Y14835000D01*
X57540440Y15449000D01*
X57491157Y15696765D01*
X57350809Y15906809D01*
X57140765Y16047157D01*
X56893000Y16096440D01*
X54607000Y16096440D01*
X54359235Y16047157D01*
X54149191Y15906809D01*
X54008843Y15696765D01*
X54008492Y15695000D01*
X52079440Y15695000D01*
X52079440Y19372981D01*
X52111208Y19341213D01*
X52111210Y19341210D01*
X52248465Y19249500D01*
X52398325Y19149367D01*
X52737000Y19082000D01*
X55977420Y19082000D01*
X57372116Y17687305D01*
X57371760Y17279715D01*
X57582169Y16770485D01*
X57971436Y16380539D01*
X58480298Y16169241D01*
X59031285Y16168760D01*
X59540515Y16379169D01*
X59930461Y16768436D01*
X60141759Y17277298D01*
X60142240Y17828285D01*
X59931831Y18337515D01*
X59542564Y18727461D01*
X59033702Y18938759D01*
X58623462Y18939117D01*
X56969790Y20592790D01*
X56752152Y20738210D01*
X56682675Y20784633D01*
X56626484Y20795810D01*
X56344000Y20852001D01*
X56343995Y20852000D01*
X53103579Y20852000D01*
X51965790Y21989790D01*
X51924715Y22017235D01*
X51678675Y22181633D01*
X51598907Y22197500D01*
X51340000Y22249001D01*
X51339995Y22249000D01*
X51166372Y22249000D01*
X51103334Y22343343D01*
X50668335Y22634000D01*
X51103334Y22924657D01*
X51166372Y23019000D01*
X58853995Y23019000D01*
X58854000Y23018999D01*
X59136484Y23075190D01*
X59192675Y23086367D01*
X59479790Y23278210D01*
X60716695Y24515116D01*
X61124285Y24514760D01*
X61633515Y24725169D01*
X62023461Y25114436D01*
X62234759Y25623298D01*
X62235051Y25957317D01*
X62448000Y25744368D01*
G36*
X37877222Y56009863D02*
X37627784Y55409148D01*
X37627216Y54758705D01*
X37875606Y54157557D01*
X38161893Y53870769D01*
X38076539Y53785564D01*
X37871196Y53291044D01*
X37748765Y53413475D01*
X37218333Y53767898D01*
X36592645Y53892356D01*
X36592640Y53892355D01*
X-592640Y53892355D01*
X-592645Y53892356D01*
X-1218333Y53767898D01*
X-1748765Y53413475D01*
X-4240000Y50922240D01*
X-4240000Y56190000D01*
X38057674Y56190000D01*
X37877222Y56009863D01*
X37877222Y56009863D01*
G37*
X37877222Y56009863D02*
X37627784Y55409148D01*
X37627216Y54758705D01*
X37875606Y54157557D01*
X38161893Y53870769D01*
X38076539Y53785564D01*
X37871196Y53291044D01*
X37748765Y53413475D01*
X37218333Y53767898D01*
X36592645Y53892356D01*
X36592640Y53892355D01*
X-592640Y53892355D01*
X-592645Y53892356D01*
X-1218333Y53767898D01*
X-1748765Y53413475D01*
X-4240000Y50922240D01*
X-4240000Y56190000D01*
X38057674Y56190000D01*
X37877222Y56009863D01*
M02*
