G04 #@! TF.GenerationSoftware,KiCad,Pcbnew,(2017-01-15 revision 8ac4790)-master*
G04 #@! TF.CreationDate,2017-01-26T15:31:56+02:00*
G04 #@! TF.ProjectId,MM3,4D4D332E6B696361645F706362000000,rev?*
G04 #@! TF.FileFunction,Soldermask,Top*
G04 #@! TF.FilePolarity,Negative*
%FSLAX46Y46*%
G04 Gerber Fmt 4.6, Leading zero omitted, Abs format (unit mm)*
G04 Created by KiCad (PCBNEW (2017-01-15 revision 8ac4790)-master) date Thu Jan 26 15:31:56 2017*
%MOMM*%
%LPD*%
G01*
G04 APERTURE LIST*
%ADD10C,0.100000*%
%ADD11C,0.150000*%
%ADD12O,1.900000X2.900000*%
%ADD13C,4.337000*%
%ADD14R,2.432000X1.924000*%
%ADD15C,1.900000*%
%ADD16O,2.600000X1.900000*%
%ADD17R,1.797000X1.289000*%
%ADD18R,1.901140X4.400500*%
%ADD19R,1.289000X1.797000*%
%ADD20R,4.210000X2.480000*%
%ADD21R,9.290000X11.830000*%
%ADD22R,2.200860X2.398980*%
%ADD23R,1.924000X2.432000*%
%ADD24C,2.400000*%
%ADD25O,1.900000X2.600000*%
%ADD26O,2.400000X1.900000*%
%ADD27R,1.314400X1.314400*%
%ADD28R,4.400500X2.899360*%
G04 APERTURE END LIST*
D10*
D11*
X-4950000Y-7600000D02*
X-4950000Y56900000D01*
X-4950000Y56900000D02*
X94950000Y56900000D01*
X94950000Y-7600000D02*
X-4950000Y-7600000D01*
X40532500Y-7592000D02*
X40532500Y-7592000D01*
X94950000Y56900000D02*
X94950000Y-7600000D01*
X80283500Y50764500D02*
X80283500Y50764500D01*
D12*
X49530000Y0D03*
X46990000Y0D03*
X44450000Y0D03*
X36830000Y0D03*
X39370000Y0D03*
X41910000Y0D03*
X31750000Y0D03*
X29210000Y0D03*
X26670000Y0D03*
X21590000Y0D03*
X19050000Y0D03*
X49530000Y48260000D03*
X46990000Y48260000D03*
X44450000Y48260000D03*
X41910000Y48260000D03*
X39370000Y48260000D03*
X36830000Y48260000D03*
X34290000Y48260000D03*
X31750000Y48260000D03*
X27686000Y48260000D03*
X25146000Y48260000D03*
X22606000Y48260000D03*
X20066000Y48260000D03*
X17526000Y48260000D03*
X14986000Y48260000D03*
X12446000Y48260000D03*
X9906000Y48260000D03*
X24130000Y0D03*
D13*
X52070000Y5080000D03*
X52070000Y33020000D03*
X1270000Y48260000D03*
X0Y0D03*
D12*
X7366000Y48260000D03*
X4826000Y48260000D03*
D14*
X1289500Y12410500D03*
X1289500Y9108500D03*
D15*
X65932500Y23015000D03*
D10*
G36*
X64982500Y23965000D02*
X66882500Y23965000D01*
X66882500Y22065000D01*
X64982500Y22065000D01*
X64982500Y23965000D01*
X64982500Y23965000D01*
G37*
D15*
X65932500Y21015000D03*
X65932500Y19015000D03*
X65932500Y17015000D03*
X65932500Y15015000D03*
X65932500Y13015000D03*
X65932500Y11015000D03*
X65932500Y9015000D03*
X65932500Y7015000D03*
X65932500Y5015000D03*
X65932500Y3015000D03*
X65932500Y1015000D03*
X65932500Y-985000D03*
X65932500Y-2985000D03*
X92682500Y-2985000D03*
X92682500Y-985000D03*
X92682500Y1015000D03*
X92682500Y3015000D03*
X92682500Y5015000D03*
X92682500Y7015000D03*
X92682500Y9015000D03*
X92682500Y11015000D03*
X92682500Y13015000D03*
X92682500Y15015000D03*
X92682500Y17015000D03*
X92682500Y19015000D03*
X92682500Y21015000D03*
X92682500Y23015000D03*
D16*
X49740000Y28984000D03*
X49740000Y26444000D03*
X49740000Y21364000D03*
X49740000Y23904000D03*
D17*
X28950000Y12395000D03*
X28950000Y14300000D03*
X28850000Y33695000D03*
X28850000Y35600000D03*
D18*
X63329000Y51526500D03*
X63329000Y40927080D03*
D19*
X68091500Y39461500D03*
X66186500Y39461500D03*
D20*
X86316000Y44224000D03*
X86316000Y49304000D03*
D21*
X74886000Y46764000D03*
D22*
X18412100Y8405500D03*
X21612500Y8405500D03*
X18348600Y17549500D03*
X21549000Y17549500D03*
X18559600Y30013000D03*
X21760000Y30013000D03*
X18559600Y38903000D03*
X21760000Y38903000D03*
D23*
X24470000Y8405500D03*
X27772000Y8405500D03*
X27772000Y17549500D03*
X24470000Y17549500D03*
X24808000Y30013000D03*
X28110000Y30013000D03*
X27983000Y38903000D03*
X24681000Y38903000D03*
D24*
X23898500Y11707500D03*
X23898500Y14247500D03*
X24046000Y33061000D03*
X24046000Y35601000D03*
X92666000Y46764000D03*
X90126000Y46764000D03*
D14*
X55518500Y25428000D03*
X55518500Y22126000D03*
X58757000Y23015000D03*
X58757000Y19713000D03*
D19*
X60217500Y3012500D03*
X62122500Y3012500D03*
D17*
X72854000Y20729000D03*
X72854000Y18824000D03*
D24*
X74759000Y-6068000D03*
X77299000Y-6068000D03*
X86760500Y-6068000D03*
X89300500Y-6068000D03*
X57677500Y31016000D03*
X60217500Y31016000D03*
D14*
X70441000Y11013500D03*
X70441000Y7711500D03*
D23*
X51708500Y55082500D03*
X48406500Y55082500D03*
D14*
X74632000Y11013500D03*
X74632000Y7711500D03*
D23*
X41421500Y3457000D03*
X44723500Y3457000D03*
D25*
X61741500Y-2004000D03*
X56661500Y-2004000D03*
X59201500Y-2004000D03*
D24*
X44342500Y55082500D03*
X41802500Y55082500D03*
X39262500Y55082500D03*
X36722500Y55082500D03*
X36722500Y-5750500D03*
X39262500Y-5750500D03*
X41802500Y-5750500D03*
X44342500Y-5750500D03*
X92793000Y38318500D03*
X90253000Y38318500D03*
X87713000Y38318500D03*
X85173000Y38318500D03*
X82633000Y38318500D03*
X80093000Y38318500D03*
X72917500Y37747000D03*
X75457500Y37747000D03*
D25*
X12211500Y-289500D03*
X9671500Y-289500D03*
X4591500Y-289500D03*
X7131500Y-289500D03*
D24*
X11733500Y15554500D03*
X6653500Y16824500D03*
X11733500Y18094500D03*
X6653500Y19364500D03*
D26*
X11733500Y20634500D03*
D24*
X6653500Y21904500D03*
D26*
X11733500Y23174500D03*
D24*
X6653500Y24444500D03*
X11733500Y25714500D03*
X6653500Y26984500D03*
X11733500Y28254500D03*
X6653500Y29524500D03*
X11733500Y30794500D03*
X6653500Y32064500D03*
X11733500Y33334500D03*
D14*
X14751500Y26126500D03*
X14751500Y22824500D03*
X45231500Y41698000D03*
X45231500Y45000000D03*
X14751500Y29301500D03*
X14751500Y32603500D03*
X11703500Y40223500D03*
X11703500Y43525500D03*
X8655500Y43525500D03*
X8655500Y40223500D03*
X42450000Y45000000D03*
X42450000Y41698000D03*
X4337500Y9108500D03*
X4337500Y12410500D03*
D27*
X9229540Y37795260D03*
X11129460Y37795260D03*
X10179500Y35778500D03*
X48833240Y42750040D03*
X48833240Y44649960D03*
X50850000Y43700000D03*
D23*
X2305500Y-5623500D03*
X5607500Y-5623500D03*
D14*
X14650000Y16898000D03*
X14650000Y20200000D03*
X2032000Y30861000D03*
X2032000Y34163000D03*
D28*
X32350000Y10700000D03*
X32350000Y15701260D03*
X41349220Y15701260D03*
X41349220Y10700000D03*
X41949220Y30398740D03*
X41949220Y35400000D03*
X32950000Y35400000D03*
X32950000Y30398740D03*
D15*
X40254623Y38800000D03*
X37250000Y19100000D03*
X30150000Y18900000D03*
X53050000Y17100000D03*
X14679319Y-2757319D03*
X26650080Y-2628558D03*
X2484009Y38943943D03*
X-650000Y42900000D03*
X28450000Y55082500D03*
X4083500Y25364500D03*
X88079177Y33183962D03*
X39348033Y41364944D03*
X24911500Y42128500D03*
X60027000Y36985000D03*
X62059000Y36985000D03*
X81490000Y-6068000D03*
X63710000Y345500D03*
X70504500Y-988000D03*
X68472500Y21046500D03*
X54150000Y36800000D03*
X91713500Y29682500D03*
X89681500Y20538500D03*
X9163500Y25364500D03*
X46501500Y55019000D03*
X33293500Y-5687000D03*
X63583000Y6251000D03*
X57150000Y37100000D03*
X42850000Y32700000D03*
X31850000Y-2700000D03*
X61529639Y50903351D03*
X65550000Y51526500D03*
X61285736Y13236000D03*
X61297000Y15077500D03*
X81553500Y22316500D03*
X34850000Y39000000D03*
X36050000Y44700000D03*
X39396288Y43775989D03*
X26557992Y43530500D03*
X29850000Y45000000D03*
X4845500Y37556500D03*
X53050000Y46300000D03*
X66850000Y47700000D03*
X6877500Y10378500D03*
X10941500Y9870500D03*
X84490462Y28380292D03*
X81172500Y43335000D03*
X85871500Y19205000D03*
X47050000Y7300000D03*
X60050000Y46000000D03*
X54750000Y48400000D03*
X87567729Y28798800D03*
X84191630Y53541951D03*
X83077500Y43335000D03*
X87586000Y20602000D03*
X32550002Y39100000D03*
X30650000Y39200000D03*
X60850000Y25900000D03*
X58757000Y17554000D03*
X72185000Y5015000D03*
X83839500Y10632500D03*
X89110000Y15966500D03*
X65996000Y31270000D03*
X53613500Y-4099500D03*
X41750000Y53000000D03*
X39250000Y53000000D03*
X-650000Y15200000D03*
X-2243005Y9362698D03*
X90824500Y53431500D03*
X88538500Y53431500D03*
X86316000Y53495000D03*
X79267500Y25872500D03*
X71003025Y24305109D03*
X70441000Y20856000D03*
X32350000Y13300000D03*
X29994500Y8405500D03*
X-1842317Y-3220026D03*
X19271032Y23927063D03*
X9525000Y33020000D03*
X6369500Y4282500D03*
X58350000Y25600000D03*
M02*
