G04 #@! TF.GenerationSoftware,KiCad,Pcbnew,(2017-01-15 revision 8ac4790)-master*
G04 #@! TF.CreationDate,2017-01-26T15:31:56+02:00*
G04 #@! TF.ProjectId,MM3,4D4D332E6B696361645F706362000000,rev?*
G04 #@! TF.FileFunction,Copper,L1,Top,Signal*
G04 #@! TF.FilePolarity,Positive*
%FSLAX46Y46*%
G04 Gerber Fmt 4.6, Leading zero omitted, Abs format (unit mm)*
G04 Created by KiCad (PCBNEW (2017-01-15 revision 8ac4790)-master) date Thu Jan 26 15:31:56 2017*
%MOMM*%
%LPD*%
G01*
G04 APERTURE LIST*
%ADD10C,0.100000*%
%ADD11C,0.150000*%
%ADD12O,1.500000X2.500000*%
%ADD13C,3.937000*%
%ADD14R,2.032000X1.524000*%
%ADD15C,1.500000*%
%ADD16O,2.200000X1.500000*%
%ADD17R,1.397000X0.889000*%
%ADD18R,1.501140X4.000500*%
%ADD19R,0.889000X1.397000*%
%ADD20R,3.810000X2.080000*%
%ADD21R,8.890000X11.430000*%
%ADD22R,1.800860X1.998980*%
%ADD23R,1.524000X2.032000*%
%ADD24C,2.000000*%
%ADD25O,1.500000X2.200000*%
%ADD26O,2.000000X1.500000*%
%ADD27R,0.914400X0.914400*%
%ADD28R,4.000500X2.499360*%
%ADD29C,1.000000*%
%ADD30C,0.500000*%
%ADD31C,1.500000*%
%ADD32C,0.300000*%
%ADD33C,2.000000*%
%ADD34C,0.254000*%
G04 APERTURE END LIST*
D10*
D11*
X-4950000Y-7600000D02*
X-4950000Y56900000D01*
X-4950000Y56900000D02*
X94950000Y56900000D01*
X94950000Y-7600000D02*
X-4950000Y-7600000D01*
X40532500Y-7592000D02*
X40532500Y-7592000D01*
X94950000Y56900000D02*
X94950000Y-7600000D01*
X80283500Y50764500D02*
X80283500Y50764500D01*
D12*
X49530000Y0D03*
X46990000Y0D03*
X44450000Y0D03*
X36830000Y0D03*
X39370000Y0D03*
X41910000Y0D03*
X31750000Y0D03*
X29210000Y0D03*
X26670000Y0D03*
X21590000Y0D03*
X19050000Y0D03*
X49530000Y48260000D03*
X46990000Y48260000D03*
X44450000Y48260000D03*
X41910000Y48260000D03*
X39370000Y48260000D03*
X36830000Y48260000D03*
X34290000Y48260000D03*
X31750000Y48260000D03*
X27686000Y48260000D03*
X25146000Y48260000D03*
X22606000Y48260000D03*
X20066000Y48260000D03*
X17526000Y48260000D03*
X14986000Y48260000D03*
X12446000Y48260000D03*
X9906000Y48260000D03*
X24130000Y0D03*
D13*
X52070000Y5080000D03*
X52070000Y33020000D03*
X1270000Y48260000D03*
X0Y0D03*
D12*
X7366000Y48260000D03*
X4826000Y48260000D03*
D14*
X1289500Y12410500D03*
X1289500Y9108500D03*
D15*
X65932500Y23015000D03*
D10*
G36*
X65182500Y23765000D02*
X66682500Y23765000D01*
X66682500Y22265000D01*
X65182500Y22265000D01*
X65182500Y23765000D01*
X65182500Y23765000D01*
G37*
D15*
X65932500Y21015000D03*
X65932500Y19015000D03*
X65932500Y17015000D03*
X65932500Y15015000D03*
X65932500Y13015000D03*
X65932500Y11015000D03*
X65932500Y9015000D03*
X65932500Y7015000D03*
X65932500Y5015000D03*
X65932500Y3015000D03*
X65932500Y1015000D03*
X65932500Y-985000D03*
X65932500Y-2985000D03*
X92682500Y-2985000D03*
X92682500Y-985000D03*
X92682500Y1015000D03*
X92682500Y3015000D03*
X92682500Y5015000D03*
X92682500Y7015000D03*
X92682500Y9015000D03*
X92682500Y11015000D03*
X92682500Y13015000D03*
X92682500Y15015000D03*
X92682500Y17015000D03*
X92682500Y19015000D03*
X92682500Y21015000D03*
X92682500Y23015000D03*
D16*
X49740000Y28984000D03*
X49740000Y26444000D03*
X49740000Y21364000D03*
X49740000Y23904000D03*
D17*
X28950000Y12395000D03*
X28950000Y14300000D03*
X28850000Y33695000D03*
X28850000Y35600000D03*
D18*
X63329000Y51526500D03*
X63329000Y40927080D03*
D19*
X68091500Y39461500D03*
X66186500Y39461500D03*
D20*
X86316000Y44224000D03*
X86316000Y49304000D03*
D21*
X74886000Y46764000D03*
D22*
X18412100Y8405500D03*
X21612500Y8405500D03*
X18348600Y17549500D03*
X21549000Y17549500D03*
X18559600Y30013000D03*
X21760000Y30013000D03*
X18559600Y38903000D03*
X21760000Y38903000D03*
D23*
X24470000Y8405500D03*
X27772000Y8405500D03*
X27772000Y17549500D03*
X24470000Y17549500D03*
X24808000Y30013000D03*
X28110000Y30013000D03*
X27983000Y38903000D03*
X24681000Y38903000D03*
D24*
X23898500Y11707500D03*
X23898500Y14247500D03*
X24046000Y33061000D03*
X24046000Y35601000D03*
X92666000Y46764000D03*
X90126000Y46764000D03*
D14*
X55518500Y25428000D03*
X55518500Y22126000D03*
X58757000Y23015000D03*
X58757000Y19713000D03*
D19*
X60217500Y3012500D03*
X62122500Y3012500D03*
D17*
X72854000Y20729000D03*
X72854000Y18824000D03*
D24*
X74759000Y-6068000D03*
X77299000Y-6068000D03*
X86760500Y-6068000D03*
X89300500Y-6068000D03*
X57677500Y31016000D03*
X60217500Y31016000D03*
D14*
X70441000Y11013500D03*
X70441000Y7711500D03*
D23*
X51708500Y55082500D03*
X48406500Y55082500D03*
D14*
X74632000Y11013500D03*
X74632000Y7711500D03*
D23*
X41421500Y3457000D03*
X44723500Y3457000D03*
D25*
X61741500Y-2004000D03*
X56661500Y-2004000D03*
X59201500Y-2004000D03*
D24*
X44342500Y55082500D03*
X41802500Y55082500D03*
X39262500Y55082500D03*
X36722500Y55082500D03*
X36722500Y-5750500D03*
X39262500Y-5750500D03*
X41802500Y-5750500D03*
X44342500Y-5750500D03*
X92793000Y38318500D03*
X90253000Y38318500D03*
X87713000Y38318500D03*
X85173000Y38318500D03*
X82633000Y38318500D03*
X80093000Y38318500D03*
X72917500Y37747000D03*
X75457500Y37747000D03*
D25*
X12211500Y-289500D03*
X9671500Y-289500D03*
X4591500Y-289500D03*
X7131500Y-289500D03*
D24*
X11733500Y15554500D03*
X6653500Y16824500D03*
X11733500Y18094500D03*
X6653500Y19364500D03*
D26*
X11733500Y20634500D03*
D24*
X6653500Y21904500D03*
D26*
X11733500Y23174500D03*
D24*
X6653500Y24444500D03*
X11733500Y25714500D03*
X6653500Y26984500D03*
X11733500Y28254500D03*
X6653500Y29524500D03*
X11733500Y30794500D03*
X6653500Y32064500D03*
X11733500Y33334500D03*
D14*
X14751500Y26126500D03*
X14751500Y22824500D03*
X45231500Y41698000D03*
X45231500Y45000000D03*
X14751500Y29301500D03*
X14751500Y32603500D03*
X11703500Y40223500D03*
X11703500Y43525500D03*
X8655500Y43525500D03*
X8655500Y40223500D03*
X42450000Y45000000D03*
X42450000Y41698000D03*
X4337500Y9108500D03*
X4337500Y12410500D03*
D27*
X9229540Y37795260D03*
X11129460Y37795260D03*
X10179500Y35778500D03*
X48833240Y42750040D03*
X48833240Y44649960D03*
X50850000Y43700000D03*
D23*
X2305500Y-5623500D03*
X5607500Y-5623500D03*
D14*
X14650000Y16898000D03*
X14650000Y20200000D03*
X2032000Y30861000D03*
X2032000Y34163000D03*
D28*
X32350000Y10700000D03*
X32350000Y15701260D03*
X41349220Y15701260D03*
X41349220Y10700000D03*
X41949220Y30398740D03*
X41949220Y35400000D03*
X32950000Y35400000D03*
X32950000Y30398740D03*
D15*
X40254623Y38800000D03*
X37250000Y19100000D03*
X30150000Y18900000D03*
X53050000Y17100000D03*
X14679319Y-2757319D03*
X26650080Y-2628558D03*
X2484009Y38943943D03*
X-650000Y42900000D03*
X28450000Y55082500D03*
X4083500Y25364500D03*
X88079177Y33183962D03*
X39348033Y41364944D03*
X24911500Y42128500D03*
X60027000Y36985000D03*
X62059000Y36985000D03*
X81490000Y-6068000D03*
X63710000Y345500D03*
X70504500Y-988000D03*
X68472500Y21046500D03*
X54150000Y36800000D03*
X91713500Y29682500D03*
X89681500Y20538500D03*
X9163500Y25364500D03*
X46501500Y55019000D03*
X33293500Y-5687000D03*
X63583000Y6251000D03*
X57150000Y37100000D03*
X42850000Y32700000D03*
X31850000Y-2700000D03*
X61529639Y50903351D03*
X65550000Y51526500D03*
X61285736Y13236000D03*
X61297000Y15077500D03*
X81553500Y22316500D03*
X34850000Y39000000D03*
X36050000Y44700000D03*
X39396288Y43775989D03*
X26557992Y43530500D03*
X29850000Y45000000D03*
X4845500Y37556500D03*
X53050000Y46300000D03*
X66850000Y47700000D03*
X6877500Y10378500D03*
X10941500Y9870500D03*
X84490462Y28380292D03*
X81172500Y43335000D03*
X85871500Y19205000D03*
X47050000Y7300000D03*
X60050000Y46000000D03*
X54750000Y48400000D03*
X87567729Y28798800D03*
X84191630Y53541951D03*
X83077500Y43335000D03*
X87586000Y20602000D03*
X32550002Y39100000D03*
X30650000Y39200000D03*
X60850000Y25900000D03*
X58757000Y17554000D03*
X72185000Y5015000D03*
X83839500Y10632500D03*
X89110000Y15966500D03*
X65996000Y31270000D03*
X53613500Y-4099500D03*
X41750000Y53000000D03*
X39250000Y53000000D03*
X-650000Y15200000D03*
X-2243005Y9362698D03*
X90824500Y53431500D03*
X88538500Y53431500D03*
X86316000Y53495000D03*
X79267500Y25872500D03*
X71003025Y24305109D03*
X70441000Y20856000D03*
X32350000Y13300000D03*
X29994500Y8405500D03*
X-1842317Y-3220026D03*
X19271032Y23927063D03*
X9525000Y33020000D03*
X6369500Y4282500D03*
X58350000Y25600000D03*
D29*
X41949220Y35400000D02*
X41949220Y37105403D01*
X41949220Y37105403D02*
X40254623Y38800000D01*
D30*
X48833240Y42750040D02*
X48833240Y41792840D01*
X43966000Y40436000D02*
X42704000Y41698000D01*
X48833240Y41792840D02*
X47476400Y40436000D01*
X47476400Y40436000D02*
X43966000Y40436000D01*
X42704000Y41698000D02*
X42450000Y41698000D01*
X39348033Y41364944D02*
X42116944Y41364944D01*
X42116944Y41364944D02*
X42450000Y41698000D01*
D29*
X41349220Y15701260D02*
X40648740Y15701260D01*
X40648740Y15701260D02*
X37250000Y19100000D01*
D31*
X33350000Y2800000D02*
X29950000Y2800000D01*
X29210000Y2060000D02*
X29210000Y0D01*
X29950000Y2800000D02*
X29210000Y2060000D01*
X37250000Y6700000D02*
X33350000Y2800000D01*
X37250000Y19100000D02*
X37250000Y6700000D01*
X37250000Y6700000D02*
X37209478Y6659478D01*
D29*
X33350000Y2800000D02*
X37209478Y6659478D01*
X37209478Y6659478D02*
X37209478Y8499478D01*
X37209478Y8499478D02*
X37250000Y8540000D01*
X37250000Y8540000D02*
X37250000Y19100000D01*
X37209478Y8499478D02*
X37250000Y8499478D01*
D30*
X44723500Y3457000D02*
X44723500Y16826500D01*
X44723500Y16826500D02*
X43199999Y18350001D01*
X43199999Y18350001D02*
X37999999Y18350001D01*
X37999999Y18350001D02*
X37250000Y19100000D01*
D32*
X28850000Y20200000D02*
X29400001Y19649999D01*
X14650000Y20200000D02*
X28850000Y20200000D01*
X29400001Y19649999D02*
X30150000Y18900000D01*
D29*
X52650000Y18560660D02*
X52650000Y26424000D01*
X52650000Y26424000D02*
X50090000Y28984000D01*
X50090000Y28984000D02*
X49740000Y28984000D01*
X53050000Y17100000D02*
X53050000Y18160660D01*
X53050000Y18160660D02*
X52650000Y18560660D01*
D32*
X2032000Y30861000D02*
X2032000Y27416000D01*
X2032000Y27416000D02*
X4083500Y25364500D01*
D30*
X13489300Y-2821700D02*
X14614938Y-2821700D01*
X14614938Y-2821700D02*
X14679319Y-2757319D01*
D29*
X26650080Y-2628558D02*
X26650080Y-1899920D01*
X26650080Y-1899920D02*
X26670000Y-1880000D01*
X26670000Y-1880000D02*
X26670000Y0D01*
D30*
X26650080Y-2628558D02*
X26456938Y-2821700D01*
X13489300Y-2821700D02*
X10687500Y-5623500D01*
X10687500Y-5623500D02*
X5607500Y-5623500D01*
D29*
X26670000Y0D02*
X29210000Y0D01*
X-3650000Y49600000D02*
X-3650000Y45900000D01*
X-3650000Y45900000D02*
X-650000Y42900000D01*
X-850000Y52400000D02*
X-3650000Y49600000D01*
X13650000Y52400000D02*
X-850000Y52400000D01*
X13650000Y52400000D02*
X25767500Y52400000D01*
X25767500Y52400000D02*
X28450000Y55082500D01*
X12446000Y51196000D02*
X13650000Y52400000D01*
X12446000Y48260000D02*
X12446000Y51196000D01*
X1289500Y13680500D02*
X4083500Y16474500D01*
X4083500Y16474500D02*
X4083500Y25364500D01*
X1289500Y12410500D02*
X1289500Y13680500D01*
D31*
X88079177Y33183962D02*
X88048331Y33153116D01*
X88048331Y33153116D02*
X70729459Y33153116D01*
X70729459Y33153116D02*
X68472500Y30896157D01*
X68472500Y30896157D02*
X68472500Y23586500D01*
D30*
X9417500Y41874500D02*
X24657500Y41874500D01*
X24657500Y41874500D02*
X24911500Y42128500D01*
X8655500Y41112500D02*
X9417500Y41874500D01*
X8655500Y40223500D02*
X8655500Y41112500D01*
X9229540Y37795260D02*
X9229540Y39649460D01*
X9229540Y39649460D02*
X8655500Y40223500D01*
D33*
X60027000Y36985000D02*
X62059000Y36985000D01*
X63329000Y38255000D02*
X62059000Y36985000D01*
D30*
X73489000Y22507000D02*
X69552000Y22507000D01*
X69552000Y22507000D02*
X68472500Y23586500D01*
X74505000Y21491000D02*
X73489000Y22507000D01*
X74505000Y19276500D02*
X74505000Y21491000D01*
X72854000Y18824000D02*
X74052500Y18824000D01*
X74052500Y18824000D02*
X74505000Y19276500D01*
X62122500Y3012500D02*
X62122500Y1933000D01*
X62122500Y1933000D02*
X63710000Y345500D01*
X66186500Y39461500D02*
X64794580Y39461500D01*
X64794580Y39461500D02*
X63329000Y40927080D01*
D33*
X63329000Y40927080D02*
X63329000Y38255000D01*
D29*
X68472500Y1044000D02*
X70504500Y-988000D01*
X70504500Y-988000D02*
X71901500Y-2385000D01*
D31*
X68472500Y21046500D02*
X68472500Y23586500D01*
D29*
X80728000Y-2385000D02*
X81490000Y-3147000D01*
X81490000Y-3147000D02*
X81490000Y-6068000D01*
X71901500Y-2385000D02*
X80728000Y-2385000D01*
X68472500Y21046500D02*
X68472500Y1044000D01*
X56299999Y51951501D02*
X56299999Y38949999D01*
X55517590Y52733910D02*
X56299999Y51951501D01*
X50501090Y52733910D02*
X55517590Y52733910D01*
X48406500Y54828500D02*
X50501090Y52733910D01*
X56299999Y38949999D02*
X54899999Y37549999D01*
X48406500Y55082500D02*
X48406500Y54828500D01*
X54433500Y36800000D02*
X54150000Y36800000D01*
X54899999Y37549999D02*
X54150000Y36800000D01*
X60217500Y31016000D02*
X54433500Y36800000D01*
X33293500Y-5687000D02*
X35330490Y-3650010D01*
X54765500Y-6000000D02*
X56661500Y-4104000D01*
X35330490Y-3650010D02*
X49500010Y-3650010D01*
X49500010Y-3650010D02*
X51850000Y-6000000D01*
X56661500Y-4104000D02*
X56661500Y-2004000D01*
X51850000Y-6000000D02*
X54765500Y-6000000D01*
X11733500Y25714500D02*
X14339500Y25714500D01*
X14339500Y25714500D02*
X14751500Y26126500D01*
X9163500Y14696500D02*
X9163500Y9159471D01*
X9163500Y9159471D02*
X16750000Y1572971D01*
X16750000Y1572971D02*
X16750000Y-3100000D01*
X16750000Y-3100000D02*
X19337000Y-5687000D01*
X19337000Y-5687000D02*
X33293500Y-5687000D01*
X9163500Y9108500D02*
X9163500Y14696500D01*
X9163500Y14696500D02*
X9163500Y25364500D01*
X14751500Y29301500D02*
X14751500Y26126500D01*
X89681500Y20538500D02*
X89681500Y27650500D01*
X89681500Y27650500D02*
X91713500Y29682500D01*
D31*
X46501500Y55019000D02*
X48343000Y55019000D01*
X48343000Y55019000D02*
X48406500Y55082500D01*
D30*
X60217500Y3012500D02*
X60217500Y4347057D01*
X60217500Y4347057D02*
X62121443Y6251000D01*
X62121443Y6251000D02*
X63583000Y6251000D01*
D29*
X57150000Y37100000D02*
X60507666Y33742334D01*
X60507666Y33742334D02*
X62689834Y33742334D01*
X41949220Y30398740D02*
X41949220Y31799220D01*
X41949220Y31799220D02*
X42850000Y32700000D01*
X41349220Y10700000D02*
X41349220Y7849220D01*
X41349220Y7849220D02*
X33500000Y0D01*
X33500000Y0D02*
X31750000Y0D01*
D31*
X31850000Y-2700000D02*
X31750000Y-2600000D01*
X31750000Y-2600000D02*
X31750000Y0D01*
D33*
X61529639Y50903351D02*
X62705851Y50903351D01*
X62705851Y50903351D02*
X63329000Y51526500D01*
X63329000Y51526500D02*
X65550000Y51526500D01*
X65550000Y51526500D02*
X70123500Y51526500D01*
D29*
X81553500Y22316500D02*
X81553500Y28666500D01*
X81553500Y28666500D02*
X83510801Y30623801D01*
X83510801Y30623801D02*
X88295094Y30623801D01*
X88295094Y30623801D02*
X90238348Y32567055D01*
X90238348Y34417774D02*
X88912000Y35744122D01*
X90238348Y32567055D02*
X90238348Y34417774D01*
X88912000Y35744122D02*
X78793878Y35744122D01*
X78793878Y35744122D02*
X78759500Y35778500D01*
X78759500Y35778500D02*
X69488500Y35778500D01*
X69488500Y35778500D02*
X68091500Y37175500D01*
D31*
X68346474Y37112000D02*
X70377500Y39143026D01*
X70377500Y39143026D02*
X74987442Y43752968D01*
D29*
X72917500Y44795500D02*
X74886000Y46764000D01*
D31*
X68155000Y37112000D02*
X68346474Y37112000D01*
X74987442Y43752968D02*
X74987442Y46724393D01*
X74987442Y46724393D02*
X75020095Y46757046D01*
X61297000Y15077500D02*
X62689834Y16470334D01*
X62689834Y16470334D02*
X62689834Y33742334D01*
X62689834Y33742334D02*
X66059500Y37112000D01*
X66059500Y37112000D02*
X68155000Y37112000D01*
D29*
X68091500Y37175500D02*
X68155000Y37112000D01*
X68091500Y39461500D02*
X68091500Y37175500D01*
D33*
X70123500Y51526500D02*
X74886000Y46764000D01*
X63231001Y51428501D02*
X63329000Y51526500D01*
D31*
X61297000Y15077500D02*
X61297000Y13247264D01*
X61297000Y13247264D02*
X61285736Y13236000D01*
D30*
X42450000Y45000000D02*
X45231500Y45000000D01*
X39396288Y43775989D02*
X41225989Y43775989D01*
X41225989Y43775989D02*
X42450000Y45000000D01*
X39396288Y43775989D02*
X34850000Y39229701D01*
X34850000Y39229701D02*
X34850000Y39000000D01*
X39370000Y47620000D02*
X36450000Y44700000D01*
X36450000Y44700000D02*
X36050000Y44700000D01*
X39370000Y48260000D02*
X39370000Y47620000D01*
X26557992Y43530500D02*
X21580500Y43530500D01*
X21580500Y43530500D02*
X21575500Y43525500D01*
X21575500Y43525500D02*
X11703500Y43525500D01*
X27686000Y48260000D02*
X27686000Y47164000D01*
X27686000Y47164000D02*
X29850000Y45000000D01*
X4845500Y41620500D02*
X6750500Y43525500D01*
X6750500Y43525500D02*
X8655500Y43525500D01*
X4845500Y37556500D02*
X4845500Y41620500D01*
X8655500Y43525500D02*
X11703500Y43525500D01*
X53050000Y45239340D02*
X53050000Y46300000D01*
X15033591Y5778409D02*
X31488341Y5778409D01*
X35150000Y9440068D02*
X35150000Y19500000D01*
X53050000Y40295000D02*
X53050000Y45239340D01*
X46250011Y33495011D02*
X53050000Y40295000D01*
X42539965Y21900000D02*
X46250011Y25610046D01*
X46250011Y25610046D02*
X46250011Y33495011D01*
X37550000Y21900000D02*
X42539965Y21900000D01*
X35150000Y19500000D02*
X37550000Y21900000D01*
X31488341Y5778409D02*
X35150000Y9440068D01*
X10941500Y9870500D02*
X15033591Y5778409D01*
X51989340Y46300000D02*
X53050000Y46300000D01*
X48450000Y46300000D02*
X51989340Y46300000D01*
X46990000Y47760000D02*
X48450000Y46300000D01*
X46990000Y48260000D02*
X46990000Y47760000D01*
X66850000Y47700000D02*
X60850000Y47700000D01*
X60850000Y47700000D02*
X59550000Y49000000D01*
X81172500Y52294449D02*
X81172500Y43335000D01*
X59550000Y49000000D02*
X59550000Y53700000D01*
X59550000Y53700000D02*
X60420083Y54570083D01*
X60420083Y54570083D02*
X78896866Y54570083D01*
X78896866Y54570083D02*
X81172500Y52294449D01*
X6877500Y10378500D02*
X4845500Y12410500D01*
X4845500Y12410500D02*
X4337500Y12410500D01*
D32*
X4337500Y12410500D02*
X4337500Y11648500D01*
D30*
X84490462Y28380292D02*
X85871500Y26999254D01*
X85871500Y26999254D02*
X85871500Y19205000D01*
X47050000Y7300000D02*
X47050000Y32517000D01*
X47050000Y32517000D02*
X54750000Y40217000D01*
X54750000Y40217000D02*
X54750000Y48400000D01*
X51708500Y55082500D02*
X55096410Y55082500D01*
X55096410Y55082500D02*
X58150000Y52028910D01*
X58150000Y52028910D02*
X58150000Y47900000D01*
X58150000Y47900000D02*
X60050000Y46000000D01*
X54750000Y48400000D02*
X54610000Y48260000D01*
X54610000Y48260000D02*
X49530000Y48260000D01*
X87567729Y28798800D02*
X87459000Y28690071D01*
X87459000Y20729000D02*
X87586000Y20602000D01*
X87459000Y28690071D02*
X87459000Y20729000D01*
X83077500Y43335000D02*
X83077500Y52427821D01*
X83077500Y52427821D02*
X83441631Y52791952D01*
X83441631Y52791952D02*
X84191630Y53541951D01*
D29*
X21612500Y8405500D02*
X24470000Y8405500D01*
X21549000Y17549500D02*
X24470000Y17549500D01*
D30*
X24808000Y30013000D02*
X21760000Y30013000D01*
X21760000Y38903000D02*
X24681000Y38903000D01*
X39960002Y46510000D02*
X33300001Y39849999D01*
X41910000Y47760000D02*
X40660000Y46510000D01*
X41910000Y48260000D02*
X41910000Y47760000D01*
X40660000Y46510000D02*
X39960002Y46510000D01*
X33300001Y39849999D02*
X32550002Y39100000D01*
X30650000Y40260660D02*
X30650000Y39200000D01*
X30650000Y42256000D02*
X30650000Y40260660D01*
X25146000Y47760000D02*
X30650000Y42256000D01*
X25146000Y48260000D02*
X25146000Y47760000D01*
X60850000Y21366500D02*
X60850000Y24839340D01*
X60852500Y21364000D02*
X60850000Y21366500D01*
X60852500Y17808000D02*
X60852500Y21364000D01*
X59709500Y16665000D02*
X60852500Y17808000D01*
X57796500Y21364000D02*
X57034500Y22126000D01*
X60852500Y21364000D02*
X57796500Y21364000D01*
X60850000Y24839340D02*
X60850000Y25900000D01*
X53650000Y0D02*
X59709500Y6059500D01*
X59709500Y6059500D02*
X59709500Y8029000D01*
X49530000Y0D02*
X53650000Y0D01*
X59709500Y8029000D02*
X59709500Y16665000D01*
X57034500Y22126000D02*
X55518500Y22126000D01*
X55264500Y22126000D02*
X55518500Y22126000D01*
X58757000Y17554000D02*
X58757000Y6378000D01*
X58757000Y6378000D02*
X53867500Y1488500D01*
X46990000Y1640000D02*
X46990000Y0D01*
X53867500Y1488500D02*
X51327500Y1488500D01*
X51327500Y1488500D02*
X50594882Y2221118D01*
X50594882Y2221118D02*
X47571118Y2221118D01*
X47571118Y2221118D02*
X46990000Y1640000D01*
X58757000Y19713000D02*
X58757000Y17554000D01*
X72185000Y5015000D02*
X72185000Y5967500D01*
X72185000Y5967500D02*
X70441000Y7711500D01*
X80918500Y7711500D02*
X83839500Y10632500D01*
X83839500Y10632500D02*
X89110000Y15903000D01*
X89110000Y15903000D02*
X89110000Y15966500D01*
X74632000Y7711500D02*
X80918500Y7711500D01*
D32*
X39370000Y0D02*
X39370000Y-1320000D01*
X39370000Y-1320000D02*
X39950000Y-1900000D01*
X39950000Y-1900000D02*
X52798305Y-1900000D01*
X52798305Y-1900000D02*
X64250000Y9551695D01*
X64250000Y9551695D02*
X64250000Y26000000D01*
X64250000Y26000000D02*
X65996000Y27746000D01*
X65996000Y27746000D02*
X65996000Y31270000D01*
X39370000Y2120000D02*
X40707000Y3457000D01*
X40707000Y3457000D02*
X41421500Y3457000D01*
X39370000Y0D02*
X39370000Y2120000D01*
D30*
X36830000Y0D02*
X36830000Y-1980000D01*
X36830000Y-1980000D02*
X37550000Y-2700000D01*
X37550000Y-2700000D02*
X52214000Y-2700000D01*
X52214000Y-2700000D02*
X53613500Y-4099500D01*
X39450000Y50700000D02*
X36730000Y50700000D01*
X36730000Y50700000D02*
X34290000Y48260000D01*
X41750000Y53000000D02*
X39450000Y50700000D01*
X33750000Y52600000D02*
X31750000Y50600000D01*
X31750000Y50600000D02*
X31750000Y48260000D01*
X38850000Y52600000D02*
X33750000Y52600000D01*
X39250000Y53000000D02*
X38850000Y52600000D01*
X-1050000Y37800000D02*
X-1050000Y15600000D01*
X-1050000Y15600000D02*
X-650000Y15200000D01*
X6350000Y45200000D02*
X-1050000Y37800000D01*
X15550000Y45200000D02*
X6350000Y45200000D01*
X17526000Y47176000D02*
X15550000Y45200000D01*
X17526000Y48260000D02*
X17526000Y47176000D01*
X17545500Y48279500D02*
X17526000Y48260000D01*
X-2243005Y9362698D02*
X-2243005Y38116454D01*
X-2243005Y38116454D02*
X5688144Y46047603D01*
X5688144Y46047603D02*
X13460439Y46047603D01*
X13460439Y46047603D02*
X14986000Y47573164D01*
X14986000Y47573164D02*
X14986000Y48260000D01*
D31*
X85451000Y44224000D02*
X86316000Y44224000D01*
D33*
X88538500Y53431500D02*
X90824500Y53431500D01*
X86316000Y53495000D02*
X88475000Y53495000D01*
X88475000Y53495000D02*
X88538500Y53431500D01*
X86316000Y49304000D02*
X86316000Y53495000D01*
X86316000Y44224000D02*
X86316000Y49304000D01*
D29*
X71003025Y24305109D02*
X77700109Y24305109D01*
X77700109Y24305109D02*
X79267500Y25872500D01*
D30*
X74632000Y11013500D02*
X70441000Y11013500D01*
X72854000Y20729000D02*
X70568000Y20729000D01*
X70568000Y20729000D02*
X70441000Y20856000D01*
X70441000Y11013500D02*
X70441000Y20856000D01*
D29*
X32350000Y15701260D02*
X32350000Y13300000D01*
D30*
X28950000Y12395000D02*
X28950000Y9583500D01*
X28950000Y9583500D02*
X27772000Y8405500D01*
X18348600Y14201400D02*
X20842500Y11707500D01*
X20842500Y11707500D02*
X23898500Y11707500D01*
X18348600Y17549500D02*
X18348600Y14201400D01*
X29994500Y8405500D02*
X30055500Y8405500D01*
X18348600Y17450440D02*
X18348600Y17549500D01*
X29994500Y8405500D02*
X27772000Y8405500D01*
D29*
X23898500Y14247500D02*
X24470000Y14247500D01*
X24470000Y14247500D02*
X27772000Y17549500D01*
X28950000Y14300000D02*
X28950000Y16371500D01*
X28950000Y16371500D02*
X27772000Y17549500D01*
X32350000Y10700000D02*
X32350000Y11154000D01*
X32350000Y11154000D02*
X29204000Y14300000D01*
X29204000Y14300000D02*
X28950000Y14300000D01*
D30*
X20159240Y10120000D02*
X25250000Y10120000D01*
X23898500Y14247500D02*
X25251000Y15600000D01*
X25251000Y15600000D02*
X27200500Y17549500D01*
X25850000Y10720000D02*
X25850000Y15001000D01*
X25850000Y15001000D02*
X25251000Y15600000D01*
X25250000Y10120000D02*
X25850000Y10720000D01*
X27200500Y17549500D02*
X27772000Y17549500D01*
X20159240Y10120000D02*
X20027540Y10120000D01*
X20027540Y10120000D02*
X18412100Y8504560D01*
X18412100Y8504560D02*
X18412100Y8405500D01*
X20159240Y10120000D02*
X20139646Y10100406D01*
D29*
X28216000Y33061000D02*
X24046000Y33061000D01*
X28850000Y33695000D02*
X28216000Y33061000D01*
X32950000Y35400000D02*
X31245000Y33695000D01*
X31245000Y33695000D02*
X28850000Y33695000D01*
D30*
X16750000Y28900000D02*
X16750000Y35593910D01*
X16750000Y35593910D02*
X18559600Y37403510D01*
X18559600Y37403510D02*
X18559600Y38903000D01*
X17850000Y27800000D02*
X16750000Y28900000D01*
X27413000Y27800000D02*
X17850000Y27800000D01*
X28110000Y30013000D02*
X28110000Y28497000D01*
X28110000Y28497000D02*
X27413000Y27800000D01*
X26589000Y33061000D02*
X28110000Y31540000D01*
X28110000Y31540000D02*
X28110000Y30013000D01*
X24046000Y33061000D02*
X26589000Y33061000D01*
D29*
X26899999Y37549999D02*
X27983000Y38633000D01*
X27983000Y38633000D02*
X27983000Y38903000D01*
X32950000Y30398740D02*
X35950250Y30398740D01*
X35950250Y30398740D02*
X37350000Y31798490D01*
X25950999Y36600999D02*
X25045999Y36600999D01*
X37350000Y31798490D02*
X37350000Y36200000D01*
X37350000Y36200000D02*
X36000001Y37549999D01*
X26899999Y37549999D02*
X25950999Y36600999D01*
X36000001Y37549999D02*
X26899999Y37549999D01*
X25045999Y36600999D02*
X24046000Y35601000D01*
D30*
X24046000Y35601000D02*
X19851000Y35601000D01*
X19851000Y35601000D02*
X18559600Y34309600D01*
X18559600Y34309600D02*
X18559600Y31512490D01*
X18559600Y31512490D02*
X18559600Y30013000D01*
X28850000Y35600000D02*
X24047000Y35600000D01*
X24047000Y35600000D02*
X24046000Y35601000D01*
X18559600Y30013000D02*
X18559600Y29430400D01*
X1289500Y9108500D02*
X1289500Y7846500D01*
X1289500Y7846500D02*
X-3006429Y3550571D01*
X-3006429Y3550571D02*
X-3006429Y-2055914D01*
X-3006429Y-2055914D02*
X-2592316Y-2470027D01*
X-2592316Y-2470027D02*
X-1842317Y-3220026D01*
D29*
X1289500Y9108500D02*
X4337500Y9108500D01*
D30*
X19271032Y23927063D02*
X21898095Y21300000D01*
X21898095Y21300000D02*
X34850000Y21300000D01*
X34850000Y21300000D02*
X36450000Y22900000D01*
X41850000Y22900000D02*
X45250000Y26300000D01*
X45250000Y26300000D02*
X45250000Y33900000D01*
X36450000Y22900000D02*
X41850000Y22900000D01*
X45250000Y33900000D02*
X51650000Y40300000D01*
X51650000Y40300000D02*
X51650000Y42500000D01*
X51650000Y41384200D02*
X51650000Y42500000D01*
X51650000Y42500000D02*
X51650000Y42900000D01*
X19271032Y23927063D02*
X20373595Y22824500D01*
X51650000Y42900000D02*
X50850000Y43700000D01*
X19271032Y23927063D02*
X18168469Y22824500D01*
X18168469Y22824500D02*
X14751500Y22824500D01*
X12083500Y22824500D02*
X11733500Y23174500D01*
X10179500Y35778500D02*
X10179500Y33674500D01*
X10179500Y33674500D02*
X9525000Y33020000D01*
X13989500Y35778500D02*
X14751500Y35016500D01*
X14751500Y35016500D02*
X14751500Y32603500D01*
X10179500Y35778500D02*
X13989500Y35778500D01*
D32*
X10179500Y35778500D02*
X13481500Y35778500D01*
D30*
X45231500Y41698000D02*
X45881280Y41698000D01*
X45881280Y41698000D02*
X48833240Y44649960D01*
X11703500Y40223500D02*
X11703500Y38369300D01*
X11703500Y38369300D02*
X11129460Y37795260D01*
D32*
X11733500Y15554500D02*
X13077000Y16898000D01*
X13077000Y16898000D02*
X14650000Y16898000D01*
X2032000Y34163000D02*
X7620000Y34163000D01*
X7620000Y34163000D02*
X8255000Y33528000D01*
X8255000Y33528000D02*
X8255000Y31962998D01*
X8255000Y31962998D02*
X8975998Y31242000D01*
X8975998Y31242000D02*
X9779000Y31242000D01*
X9779000Y31242000D02*
X11733500Y33196500D01*
X11733500Y33196500D02*
X11733500Y33334500D01*
D30*
X6369500Y4282500D02*
X5619501Y5032499D01*
X5619501Y5032499D02*
X4752219Y5032499D01*
X2813500Y-2067500D02*
X2305500Y-2575500D01*
X4752219Y5032499D02*
X2813500Y3093780D01*
X2813500Y3093780D02*
X2813500Y-2067500D01*
X2305500Y-2575500D02*
X2305500Y-5623500D01*
X58350000Y25600000D02*
X58350000Y23422000D01*
X58350000Y23422000D02*
X58757000Y23015000D01*
X58350000Y25600000D02*
X55690500Y25600000D01*
X55690500Y25600000D02*
X55518500Y25428000D01*
D29*
X55455000Y25491500D02*
X55518500Y25428000D01*
D34*
G36*
X8028500Y9108500D02*
X8114897Y8674154D01*
X8360934Y8305934D01*
X8514544Y8203295D01*
X15615000Y1102839D01*
X15615000Y-3100000D01*
X15701397Y-3534346D01*
X15857864Y-3768515D01*
X15947434Y-3902566D01*
X18534433Y-6489566D01*
X18812618Y-6675443D01*
X18902654Y-6735603D01*
X19337000Y-6822000D01*
X32469542Y-6822000D01*
X32507936Y-6860461D01*
X32579074Y-6890000D01*
X3663830Y-6890000D01*
X3665657Y-6887265D01*
X3714940Y-6639500D01*
X3714940Y-4607500D01*
X3665657Y-4359735D01*
X3525309Y-4149691D01*
X3315265Y-4009343D01*
X3190500Y-3984526D01*
X3190500Y-2942079D01*
X3439287Y-2693292D01*
X3439290Y-2693290D01*
X3631133Y-2406175D01*
X3698500Y-2067500D01*
X3698500Y-1710527D01*
X4061483Y-1953064D01*
X4591500Y-2058491D01*
X5121517Y-1953064D01*
X5570843Y-1652834D01*
X5861500Y-1217835D01*
X6152157Y-1652834D01*
X6601483Y-1953064D01*
X7131500Y-2058491D01*
X7661517Y-1953064D01*
X8110843Y-1652834D01*
X8401500Y-1217835D01*
X8692157Y-1652834D01*
X9141483Y-1953064D01*
X9671500Y-2058491D01*
X10201517Y-1953064D01*
X10650843Y-1652834D01*
X10951073Y-1203508D01*
X11056500Y-673491D01*
X11056500Y94491D01*
X10951073Y624508D01*
X10650843Y1073834D01*
X10201517Y1374064D01*
X9671500Y1479491D01*
X9141483Y1374064D01*
X8692157Y1073834D01*
X8401500Y638835D01*
X8110843Y1073834D01*
X7661517Y1374064D01*
X7131500Y1479491D01*
X6601483Y1374064D01*
X6152157Y1073834D01*
X5861500Y638835D01*
X5570843Y1073834D01*
X5121517Y1374064D01*
X4591500Y1479491D01*
X4061483Y1374064D01*
X3698500Y1131527D01*
X3698500Y2727200D01*
X4984264Y4012965D01*
X4984260Y4008215D01*
X5194669Y3498985D01*
X5583936Y3109039D01*
X6092798Y2897741D01*
X6643785Y2897260D01*
X7153015Y3107669D01*
X7542961Y3496936D01*
X7754259Y4005798D01*
X7754740Y4556785D01*
X7544331Y5066015D01*
X7155064Y5455961D01*
X6646202Y5667259D01*
X6231324Y5667621D01*
X6231146Y5667740D01*
X5958176Y5850132D01*
X5901985Y5861309D01*
X5619501Y5917500D01*
X5619496Y5917499D01*
X4752224Y5917499D01*
X4752219Y5917500D01*
X4469735Y5861309D01*
X4413544Y5850132D01*
X4126429Y5658289D01*
X4126427Y5658286D01*
X2187710Y3719570D01*
X1995867Y3432455D01*
X1995867Y3432454D01*
X1928499Y3093780D01*
X1928500Y3093775D01*
X1928500Y1753254D01*
X1476690Y2205853D01*
X520140Y2603047D01*
X-515596Y2603951D01*
X-1472838Y2208427D01*
X-2121429Y1560967D01*
X-2121429Y3183991D01*
X1915287Y7220708D01*
X1915290Y7220710D01*
X2107133Y7507825D01*
X2120834Y7576702D01*
X2145173Y7699060D01*
X2305500Y7699060D01*
X2553265Y7748343D01*
X2763309Y7888691D01*
X2813500Y7963807D01*
X2863691Y7888691D01*
X3073735Y7748343D01*
X3321500Y7699060D01*
X5353500Y7699060D01*
X5601265Y7748343D01*
X5811309Y7888691D01*
X5951657Y8098735D01*
X6000940Y8346500D01*
X6000940Y9296194D01*
X6091936Y9205039D01*
X6600798Y8993741D01*
X7151785Y8993260D01*
X7661015Y9203669D01*
X8028500Y9570514D01*
X8028500Y9108500D01*
X8028500Y9108500D01*
G37*
X8028500Y9108500D02*
X8114897Y8674154D01*
X8360934Y8305934D01*
X8514544Y8203295D01*
X15615000Y1102839D01*
X15615000Y-3100000D01*
X15701397Y-3534346D01*
X15857864Y-3768515D01*
X15947434Y-3902566D01*
X18534433Y-6489566D01*
X18812618Y-6675443D01*
X18902654Y-6735603D01*
X19337000Y-6822000D01*
X32469542Y-6822000D01*
X32507936Y-6860461D01*
X32579074Y-6890000D01*
X3663830Y-6890000D01*
X3665657Y-6887265D01*
X3714940Y-6639500D01*
X3714940Y-4607500D01*
X3665657Y-4359735D01*
X3525309Y-4149691D01*
X3315265Y-4009343D01*
X3190500Y-3984526D01*
X3190500Y-2942079D01*
X3439287Y-2693292D01*
X3439290Y-2693290D01*
X3631133Y-2406175D01*
X3698500Y-2067500D01*
X3698500Y-1710527D01*
X4061483Y-1953064D01*
X4591500Y-2058491D01*
X5121517Y-1953064D01*
X5570843Y-1652834D01*
X5861500Y-1217835D01*
X6152157Y-1652834D01*
X6601483Y-1953064D01*
X7131500Y-2058491D01*
X7661517Y-1953064D01*
X8110843Y-1652834D01*
X8401500Y-1217835D01*
X8692157Y-1652834D01*
X9141483Y-1953064D01*
X9671500Y-2058491D01*
X10201517Y-1953064D01*
X10650843Y-1652834D01*
X10951073Y-1203508D01*
X11056500Y-673491D01*
X11056500Y94491D01*
X10951073Y624508D01*
X10650843Y1073834D01*
X10201517Y1374064D01*
X9671500Y1479491D01*
X9141483Y1374064D01*
X8692157Y1073834D01*
X8401500Y638835D01*
X8110843Y1073834D01*
X7661517Y1374064D01*
X7131500Y1479491D01*
X6601483Y1374064D01*
X6152157Y1073834D01*
X5861500Y638835D01*
X5570843Y1073834D01*
X5121517Y1374064D01*
X4591500Y1479491D01*
X4061483Y1374064D01*
X3698500Y1131527D01*
X3698500Y2727200D01*
X4984264Y4012965D01*
X4984260Y4008215D01*
X5194669Y3498985D01*
X5583936Y3109039D01*
X6092798Y2897741D01*
X6643785Y2897260D01*
X7153015Y3107669D01*
X7542961Y3496936D01*
X7754259Y4005798D01*
X7754740Y4556785D01*
X7544331Y5066015D01*
X7155064Y5455961D01*
X6646202Y5667259D01*
X6231324Y5667621D01*
X6231146Y5667740D01*
X5958176Y5850132D01*
X5901985Y5861309D01*
X5619501Y5917500D01*
X5619496Y5917499D01*
X4752224Y5917499D01*
X4752219Y5917500D01*
X4469735Y5861309D01*
X4413544Y5850132D01*
X4126429Y5658289D01*
X4126427Y5658286D01*
X2187710Y3719570D01*
X1995867Y3432455D01*
X1995867Y3432454D01*
X1928499Y3093780D01*
X1928500Y3093775D01*
X1928500Y1753254D01*
X1476690Y2205853D01*
X520140Y2603047D01*
X-515596Y2603951D01*
X-1472838Y2208427D01*
X-2121429Y1560967D01*
X-2121429Y3183991D01*
X1915287Y7220708D01*
X1915290Y7220710D01*
X2107133Y7507825D01*
X2120834Y7576702D01*
X2145173Y7699060D01*
X2305500Y7699060D01*
X2553265Y7748343D01*
X2763309Y7888691D01*
X2813500Y7963807D01*
X2863691Y7888691D01*
X3073735Y7748343D01*
X3321500Y7699060D01*
X5353500Y7699060D01*
X5601265Y7748343D01*
X5811309Y7888691D01*
X5951657Y8098735D01*
X6000940Y8346500D01*
X6000940Y9296194D01*
X6091936Y9205039D01*
X6600798Y8993741D01*
X7151785Y8993260D01*
X7661015Y9203669D01*
X8028500Y9570514D01*
X8028500Y9108500D01*
G36*
X94240000Y47236113D02*
X94052894Y47688943D01*
X93593363Y48149278D01*
X92992648Y48398716D01*
X92342205Y48399284D01*
X91741057Y48150894D01*
X91280722Y47691363D01*
X91031284Y47090648D01*
X91030716Y46440205D01*
X91279106Y45839057D01*
X91738637Y45378722D01*
X92339352Y45129284D01*
X92989795Y45128716D01*
X93590943Y45377106D01*
X94051278Y45836637D01*
X94240000Y46291131D01*
X94240000Y39097976D01*
X94179894Y39243443D01*
X93720363Y39703778D01*
X93119648Y39953216D01*
X92469205Y39953784D01*
X91868057Y39705394D01*
X91522801Y39360741D01*
X91180363Y39703778D01*
X90579648Y39953216D01*
X89929205Y39953784D01*
X89328057Y39705394D01*
X88867722Y39245863D01*
X88618284Y38645148D01*
X88617716Y37994705D01*
X88866106Y37393557D01*
X89325637Y36933222D01*
X89926352Y36683784D01*
X90576795Y36683216D01*
X91177943Y36931606D01*
X91523199Y37276259D01*
X91865637Y36933222D01*
X92466352Y36683784D01*
X93116795Y36683216D01*
X93717943Y36931606D01*
X94178278Y37391137D01*
X94240000Y37539780D01*
X94240000Y-6890000D01*
X90729528Y-6890000D01*
X90935216Y-6394648D01*
X90935784Y-5744205D01*
X90687394Y-5143057D01*
X90227863Y-4682722D01*
X89627148Y-4433284D01*
X88976705Y-4432716D01*
X88375557Y-4681106D01*
X87915222Y-5140637D01*
X87665784Y-5741352D01*
X87665216Y-6391795D01*
X87871071Y-6890000D01*
X76188028Y-6890000D01*
X76393716Y-6394648D01*
X76394284Y-5744205D01*
X76145894Y-5143057D01*
X75686363Y-4682722D01*
X75085648Y-4433284D01*
X74435205Y-4432716D01*
X73834057Y-4681106D01*
X73373722Y-5140637D01*
X73124284Y-5741352D01*
X73123716Y-6391795D01*
X73329571Y-6890000D01*
X55437212Y-6890000D01*
X55568066Y-6802566D01*
X57464066Y-4906566D01*
X57479802Y-4883015D01*
X57710103Y-4538346D01*
X57796500Y-4104000D01*
X57796500Y-3134377D01*
X57931500Y-2932335D01*
X58222157Y-3367334D01*
X58671483Y-3667564D01*
X59201500Y-3772991D01*
X59731517Y-3667564D01*
X60180843Y-3367334D01*
X60481073Y-2918008D01*
X60586500Y-2387991D01*
X60586500Y-1620009D01*
X60481073Y-1089992D01*
X60180843Y-640666D01*
X59731517Y-340436D01*
X59201500Y-235009D01*
X58671483Y-340436D01*
X58222157Y-640666D01*
X57931500Y-1075665D01*
X57640843Y-640666D01*
X57191517Y-340436D01*
X56661500Y-235009D01*
X56131483Y-340436D01*
X55682157Y-640666D01*
X55381927Y-1089992D01*
X55276500Y-1620009D01*
X55276500Y-2387991D01*
X55381927Y-2918008D01*
X55526500Y-3134377D01*
X55526500Y-3633868D01*
X54998446Y-4161922D01*
X54998740Y-3825215D01*
X54788331Y-3315985D01*
X54399064Y-2926039D01*
X53890202Y-2714741D01*
X53479962Y-2714383D01*
X53273821Y-2508241D01*
X53353384Y-2455079D01*
X59125560Y3317097D01*
X59125560Y2314000D01*
X59174843Y2066235D01*
X59315191Y1856191D01*
X59525235Y1715843D01*
X59773000Y1666560D01*
X60662000Y1666560D01*
X60909765Y1715843D01*
X61119809Y1856191D01*
X61260157Y2066235D01*
X61309440Y2314000D01*
X61309440Y3711000D01*
X61260157Y3958765D01*
X61188311Y4066289D01*
X62488022Y5366000D01*
X62509477Y5366000D01*
X62797436Y5077539D01*
X63306298Y4866241D01*
X63857285Y4865760D01*
X64366515Y5076169D01*
X64547711Y5257049D01*
X64547260Y4740715D01*
X64757669Y4231485D01*
X64973813Y4014964D01*
X64759039Y3800564D01*
X64547741Y3291702D01*
X64547260Y2740715D01*
X64757669Y2231485D01*
X64973813Y2014964D01*
X64759039Y1800564D01*
X64547741Y1291702D01*
X64547260Y740715D01*
X64757669Y231485D01*
X64973813Y14964D01*
X64759039Y-199436D01*
X64547741Y-708298D01*
X64547260Y-1259285D01*
X64757669Y-1768515D01*
X64973813Y-1985036D01*
X64759039Y-2199436D01*
X64547741Y-2708298D01*
X64547260Y-3259285D01*
X64757669Y-3768515D01*
X65146936Y-4158461D01*
X65655798Y-4369759D01*
X66206785Y-4370240D01*
X66716015Y-4159831D01*
X67105961Y-3770564D01*
X67317259Y-3261702D01*
X67317740Y-2710715D01*
X67107331Y-2201485D01*
X66891187Y-1984964D01*
X67105961Y-1770564D01*
X67317259Y-1261702D01*
X67317740Y-710715D01*
X67107331Y-201485D01*
X66891187Y15036D01*
X67105961Y229436D01*
X67317259Y738298D01*
X67317740Y1289285D01*
X67107331Y1798515D01*
X66891187Y2015036D01*
X67105961Y2229436D01*
X67317259Y2738298D01*
X67317740Y3289285D01*
X67107331Y3798515D01*
X66891187Y4015036D01*
X67105961Y4229436D01*
X67317259Y4738298D01*
X67317740Y5289285D01*
X67107331Y5798515D01*
X66891187Y6015036D01*
X67105961Y6229436D01*
X67317259Y6738298D01*
X67317740Y7289285D01*
X67107331Y7798515D01*
X66891187Y8015036D01*
X67105961Y8229436D01*
X67207305Y8473500D01*
X68777560Y8473500D01*
X68777560Y6949500D01*
X68826843Y6701735D01*
X68967191Y6491691D01*
X69177235Y6351343D01*
X69425000Y6302060D01*
X70598860Y6302060D01*
X71055987Y5844934D01*
X71011539Y5800564D01*
X70800241Y5291702D01*
X70799760Y4740715D01*
X71010169Y4231485D01*
X71399436Y3841539D01*
X71908298Y3630241D01*
X72459285Y3629760D01*
X72968515Y3840169D01*
X73358461Y4229436D01*
X73569759Y4738298D01*
X73570240Y5289285D01*
X73359831Y5798515D01*
X73039855Y6119049D01*
X73002633Y6306175D01*
X72810790Y6593290D01*
X72810787Y6593292D01*
X72104440Y7299639D01*
X72104440Y8473500D01*
X72968560Y8473500D01*
X72968560Y6949500D01*
X73017843Y6701735D01*
X73158191Y6491691D01*
X73368235Y6351343D01*
X73616000Y6302060D01*
X75648000Y6302060D01*
X75895765Y6351343D01*
X76105809Y6491691D01*
X76246157Y6701735D01*
X76270974Y6826500D01*
X80918495Y6826500D01*
X80918500Y6826499D01*
X81200984Y6882690D01*
X81257175Y6893867D01*
X81544290Y7085710D01*
X83706195Y9247616D01*
X84113785Y9247260D01*
X84623015Y9457669D01*
X85012961Y9846936D01*
X85224259Y10355798D01*
X85224617Y10766037D01*
X89040140Y14581560D01*
X89384285Y14581260D01*
X89893515Y14791669D01*
X90283461Y15180936D01*
X90494759Y15689798D01*
X90495240Y16240785D01*
X90284831Y16750015D01*
X89895564Y17139961D01*
X89386702Y17351259D01*
X88835715Y17351740D01*
X88326485Y17141331D01*
X87936539Y16752064D01*
X87725241Y16243202D01*
X87724827Y15769407D01*
X83972804Y12017384D01*
X83565215Y12017740D01*
X83055985Y11807331D01*
X82666039Y11418064D01*
X82454741Y10909202D01*
X82454383Y10498962D01*
X80551920Y8596500D01*
X76270974Y8596500D01*
X76246157Y8721265D01*
X76105809Y8931309D01*
X75895765Y9071657D01*
X75648000Y9120940D01*
X73616000Y9120940D01*
X73368235Y9071657D01*
X73158191Y8931309D01*
X73017843Y8721265D01*
X72968560Y8473500D01*
X72104440Y8473500D01*
X72055157Y8721265D01*
X71914809Y8931309D01*
X71704765Y9071657D01*
X71457000Y9120940D01*
X69425000Y9120940D01*
X69177235Y9071657D01*
X68967191Y8931309D01*
X68826843Y8721265D01*
X68777560Y8473500D01*
X67207305Y8473500D01*
X67317259Y8738298D01*
X67317740Y9289285D01*
X67107331Y9798515D01*
X66891187Y10015036D01*
X67105961Y10229436D01*
X67317259Y10738298D01*
X67317740Y11289285D01*
X67116841Y11775500D01*
X68777560Y11775500D01*
X68777560Y10251500D01*
X68826843Y10003735D01*
X68967191Y9793691D01*
X69177235Y9653343D01*
X69425000Y9604060D01*
X71457000Y9604060D01*
X71704765Y9653343D01*
X71914809Y9793691D01*
X72055157Y10003735D01*
X72079974Y10128500D01*
X72993026Y10128500D01*
X73017843Y10003735D01*
X73158191Y9793691D01*
X73368235Y9653343D01*
X73616000Y9604060D01*
X75648000Y9604060D01*
X75895765Y9653343D01*
X76105809Y9793691D01*
X76246157Y10003735D01*
X76295440Y10251500D01*
X76295440Y11775500D01*
X76246157Y12023265D01*
X76105809Y12233309D01*
X75895765Y12373657D01*
X75648000Y12422940D01*
X73616000Y12422940D01*
X73368235Y12373657D01*
X73158191Y12233309D01*
X73017843Y12023265D01*
X72993026Y11898500D01*
X72079974Y11898500D01*
X72055157Y12023265D01*
X71914809Y12233309D01*
X71704765Y12373657D01*
X71457000Y12422940D01*
X71326000Y12422940D01*
X71326000Y19782477D01*
X71387630Y19844000D01*
X71686125Y19844000D01*
X71697691Y19826691D01*
X71907735Y19686343D01*
X72155500Y19637060D01*
X73552500Y19637060D01*
X73800265Y19686343D01*
X74010309Y19826691D01*
X74150657Y20036735D01*
X74199940Y20284500D01*
X74199940Y21173500D01*
X74150657Y21421265D01*
X74010309Y21631309D01*
X73800265Y21771657D01*
X73552500Y21820940D01*
X72155500Y21820940D01*
X71907735Y21771657D01*
X71697691Y21631309D01*
X71686125Y21614000D01*
X71626374Y21614000D01*
X71615831Y21639515D01*
X71226564Y22029461D01*
X70717702Y22240759D01*
X70166715Y22241240D01*
X69657485Y22030831D01*
X69267539Y21641564D01*
X69056241Y21132702D01*
X69055760Y20581715D01*
X69266169Y20072485D01*
X69556000Y19782148D01*
X69556000Y12422940D01*
X69425000Y12422940D01*
X69177235Y12373657D01*
X68967191Y12233309D01*
X68826843Y12023265D01*
X68777560Y11775500D01*
X67116841Y11775500D01*
X67107331Y11798515D01*
X66891187Y12015036D01*
X67105961Y12229436D01*
X67317259Y12738298D01*
X67317740Y13289285D01*
X67107331Y13798515D01*
X66891187Y14015036D01*
X67105961Y14229436D01*
X67317259Y14738298D01*
X67317740Y15289285D01*
X67107331Y15798515D01*
X66891187Y16015036D01*
X67105961Y16229436D01*
X67317259Y16738298D01*
X67317740Y17289285D01*
X67107331Y17798515D01*
X66891187Y18015036D01*
X67105961Y18229436D01*
X67317259Y18738298D01*
X67317740Y19289285D01*
X67107331Y19798515D01*
X66718064Y20188461D01*
X66209202Y20399759D01*
X65658215Y20400240D01*
X65148985Y20189831D01*
X65035000Y20076044D01*
X65035000Y21646899D01*
X65182500Y21617560D01*
X66682500Y21617560D01*
X66930265Y21666843D01*
X67140309Y21807191D01*
X67280657Y22017235D01*
X67329940Y22265000D01*
X67329940Y23765000D01*
X67280657Y24012765D01*
X67140309Y24222809D01*
X66930265Y24363157D01*
X66682500Y24412440D01*
X65182500Y24412440D01*
X65035000Y24383101D01*
X65035000Y25674842D01*
X66551079Y27190921D01*
X66721245Y27445594D01*
X66781000Y27746000D01*
X66781000Y30096651D01*
X67169461Y30484436D01*
X67380759Y30993298D01*
X67381240Y31544285D01*
X67170831Y32053515D01*
X66781564Y32443461D01*
X66272702Y32654759D01*
X65721715Y32655240D01*
X65212485Y32444831D01*
X64822539Y32055564D01*
X64611241Y31546702D01*
X64610760Y30995715D01*
X64821169Y30486485D01*
X65210436Y30096539D01*
X65211000Y30096305D01*
X65211000Y28071158D01*
X64074834Y26934992D01*
X64074834Y33168648D01*
X66633186Y35727000D01*
X67934868Y35727000D01*
X68685934Y34975934D01*
X69054154Y34729897D01*
X69488500Y34643500D01*
X78621049Y34643500D01*
X78793878Y34609122D01*
X88441868Y34609122D01*
X89103348Y33947642D01*
X89103348Y33037187D01*
X87824962Y31758801D01*
X83510801Y31758801D01*
X83076456Y31672405D01*
X82708235Y31426367D01*
X80750934Y29469066D01*
X80504897Y29100846D01*
X80418500Y28666500D01*
X80418500Y26679888D01*
X80053064Y27045961D01*
X79544202Y27257259D01*
X78993215Y27257740D01*
X78483985Y27047331D01*
X78094039Y26658064D01*
X77882741Y26149202D01*
X77882692Y26092824D01*
X77229977Y25440109D01*
X71826983Y25440109D01*
X71788589Y25478570D01*
X71279727Y25689868D01*
X70728740Y25690349D01*
X70219510Y25479940D01*
X69829564Y25090673D01*
X69618266Y24581811D01*
X69617785Y24030824D01*
X69828194Y23521594D01*
X70217461Y23131648D01*
X70726323Y22920350D01*
X71277310Y22919869D01*
X71786540Y23130278D01*
X71826440Y23170109D01*
X77700109Y23170109D01*
X78134455Y23256506D01*
X78502675Y23502543D01*
X79487439Y24487307D01*
X79541785Y24487260D01*
X80051015Y24697669D01*
X80418500Y25064514D01*
X80418500Y23140458D01*
X80380039Y23102064D01*
X80168741Y22593202D01*
X80168260Y22042215D01*
X80378669Y21532985D01*
X80767936Y21143039D01*
X81276798Y20931741D01*
X81827785Y20931260D01*
X82337015Y21141669D01*
X82726961Y21530936D01*
X82938259Y22039798D01*
X82938740Y22590785D01*
X82728331Y23100015D01*
X82688500Y23139915D01*
X82688500Y28196368D01*
X83105665Y28613533D01*
X83105222Y28106007D01*
X83315631Y27596777D01*
X83704898Y27206831D01*
X84213760Y26995533D01*
X84624000Y26995175D01*
X84986500Y26632675D01*
X84986500Y20278523D01*
X84698039Y19990564D01*
X84486741Y19481702D01*
X84486260Y18930715D01*
X84696669Y18421485D01*
X85085936Y18031539D01*
X85594798Y17820241D01*
X86145785Y17819760D01*
X86655015Y18030169D01*
X87044961Y18419436D01*
X87256259Y18928298D01*
X87256530Y19239152D01*
X87309298Y19217241D01*
X87860285Y19216760D01*
X88369515Y19427169D01*
X88602119Y19659368D01*
X88895936Y19365039D01*
X89404798Y19153741D01*
X89955785Y19153260D01*
X90465015Y19363669D01*
X90854961Y19752936D01*
X91066259Y20261798D01*
X91066740Y20812785D01*
X90856331Y21322015D01*
X90816500Y21361915D01*
X90816500Y22740715D01*
X91297260Y22740715D01*
X91507669Y22231485D01*
X91723813Y22014964D01*
X91509039Y21800564D01*
X91297741Y21291702D01*
X91297260Y20740715D01*
X91507669Y20231485D01*
X91723813Y20014964D01*
X91509039Y19800564D01*
X91297741Y19291702D01*
X91297260Y18740715D01*
X91507669Y18231485D01*
X91723813Y18014964D01*
X91509039Y17800564D01*
X91297741Y17291702D01*
X91297260Y16740715D01*
X91507669Y16231485D01*
X91723813Y16014964D01*
X91509039Y15800564D01*
X91297741Y15291702D01*
X91297260Y14740715D01*
X91507669Y14231485D01*
X91723813Y14014964D01*
X91509039Y13800564D01*
X91297741Y13291702D01*
X91297260Y12740715D01*
X91507669Y12231485D01*
X91723813Y12014964D01*
X91509039Y11800564D01*
X91297741Y11291702D01*
X91297260Y10740715D01*
X91507669Y10231485D01*
X91723813Y10014964D01*
X91509039Y9800564D01*
X91297741Y9291702D01*
X91297260Y8740715D01*
X91507669Y8231485D01*
X91723813Y8014964D01*
X91509039Y7800564D01*
X91297741Y7291702D01*
X91297260Y6740715D01*
X91507669Y6231485D01*
X91723813Y6014964D01*
X91509039Y5800564D01*
X91297741Y5291702D01*
X91297260Y4740715D01*
X91507669Y4231485D01*
X91723813Y4014964D01*
X91509039Y3800564D01*
X91297741Y3291702D01*
X91297260Y2740715D01*
X91507669Y2231485D01*
X91723813Y2014964D01*
X91509039Y1800564D01*
X91297741Y1291702D01*
X91297260Y740715D01*
X91507669Y231485D01*
X91723813Y14964D01*
X91509039Y-199436D01*
X91297741Y-708298D01*
X91297260Y-1259285D01*
X91507669Y-1768515D01*
X91723813Y-1985036D01*
X91509039Y-2199436D01*
X91297741Y-2708298D01*
X91297260Y-3259285D01*
X91507669Y-3768515D01*
X91896936Y-4158461D01*
X92405798Y-4369759D01*
X92956785Y-4370240D01*
X93466015Y-4159831D01*
X93855961Y-3770564D01*
X94067259Y-3261702D01*
X94067740Y-2710715D01*
X93857331Y-2201485D01*
X93641187Y-1984964D01*
X93855961Y-1770564D01*
X94067259Y-1261702D01*
X94067740Y-710715D01*
X93857331Y-201485D01*
X93641187Y15036D01*
X93855961Y229436D01*
X94067259Y738298D01*
X94067740Y1289285D01*
X93857331Y1798515D01*
X93641187Y2015036D01*
X93855961Y2229436D01*
X94067259Y2738298D01*
X94067740Y3289285D01*
X93857331Y3798515D01*
X93641187Y4015036D01*
X93855961Y4229436D01*
X94067259Y4738298D01*
X94067740Y5289285D01*
X93857331Y5798515D01*
X93641187Y6015036D01*
X93855961Y6229436D01*
X94067259Y6738298D01*
X94067740Y7289285D01*
X93857331Y7798515D01*
X93641187Y8015036D01*
X93855961Y8229436D01*
X94067259Y8738298D01*
X94067740Y9289285D01*
X93857331Y9798515D01*
X93641187Y10015036D01*
X93855961Y10229436D01*
X94067259Y10738298D01*
X94067740Y11289285D01*
X93857331Y11798515D01*
X93641187Y12015036D01*
X93855961Y12229436D01*
X94067259Y12738298D01*
X94067740Y13289285D01*
X93857331Y13798515D01*
X93641187Y14015036D01*
X93855961Y14229436D01*
X94067259Y14738298D01*
X94067740Y15289285D01*
X93857331Y15798515D01*
X93641187Y16015036D01*
X93855961Y16229436D01*
X94067259Y16738298D01*
X94067740Y17289285D01*
X93857331Y17798515D01*
X93641187Y18015036D01*
X93855961Y18229436D01*
X94067259Y18738298D01*
X94067740Y19289285D01*
X93857331Y19798515D01*
X93641187Y20015036D01*
X93855961Y20229436D01*
X94067259Y20738298D01*
X94067740Y21289285D01*
X93857331Y21798515D01*
X93641187Y22015036D01*
X93855961Y22229436D01*
X94067259Y22738298D01*
X94067740Y23289285D01*
X93857331Y23798515D01*
X93468064Y24188461D01*
X92959202Y24399759D01*
X92408215Y24400240D01*
X91898985Y24189831D01*
X91509039Y23800564D01*
X91297741Y23291702D01*
X91297260Y22740715D01*
X90816500Y22740715D01*
X90816500Y27180368D01*
X91933439Y28297307D01*
X91987785Y28297260D01*
X92497015Y28507669D01*
X92886961Y28896936D01*
X93098259Y29405798D01*
X93098740Y29956785D01*
X92888331Y30466015D01*
X92499064Y30855961D01*
X91990202Y31067259D01*
X91439215Y31067740D01*
X90929985Y30857331D01*
X90540039Y30468064D01*
X90328741Y29959202D01*
X90328692Y29902824D01*
X88952492Y28526624D01*
X88952969Y29073085D01*
X88742560Y29582315D01*
X88741572Y29583305D01*
X89097660Y29821235D01*
X91040914Y31764489D01*
X91063633Y31798490D01*
X91286951Y32132709D01*
X91373348Y32567055D01*
X91373348Y34417774D01*
X91286951Y34852120D01*
X91040914Y35220340D01*
X89714566Y36546688D01*
X89661742Y36581984D01*
X89346346Y36792725D01*
X88912000Y36879122D01*
X85970922Y36879122D01*
X86097943Y36931606D01*
X86558278Y37391137D01*
X86807716Y37991852D01*
X86808284Y38642295D01*
X86559894Y39243443D01*
X86100363Y39703778D01*
X85499648Y39953216D01*
X84849205Y39953784D01*
X84248057Y39705394D01*
X83902801Y39360741D01*
X83560363Y39703778D01*
X82959648Y39953216D01*
X82309205Y39953784D01*
X81708057Y39705394D01*
X81362801Y39360741D01*
X81020363Y39703778D01*
X80419648Y39953216D01*
X79769205Y39953784D01*
X79168057Y39705394D01*
X78707722Y39245863D01*
X78458284Y38645148D01*
X78457716Y37994705D01*
X78706106Y37393557D01*
X79165637Y36933222D01*
X79295925Y36879122D01*
X78932329Y36879122D01*
X78759500Y36913500D01*
X76881753Y36913500D01*
X77092216Y37420352D01*
X77092784Y38070795D01*
X76844394Y38671943D01*
X76384863Y39132278D01*
X75784148Y39381716D01*
X75133705Y39382284D01*
X74532557Y39133894D01*
X74187301Y38789241D01*
X73844863Y39132278D01*
X73244148Y39381716D01*
X72593705Y39382284D01*
X72562586Y39369426D01*
X73594720Y40401560D01*
X79331000Y40401560D01*
X79578765Y40450843D01*
X79788809Y40591191D01*
X79929157Y40801235D01*
X79978440Y41049000D01*
X79978440Y42598023D01*
X79997669Y42551485D01*
X80386936Y42161539D01*
X80895798Y41950241D01*
X81446785Y41949760D01*
X81956015Y42160169D01*
X82124953Y42328813D01*
X82291936Y42161539D01*
X82800798Y41950241D01*
X83351785Y41949760D01*
X83861015Y42160169D01*
X84250961Y42549436D01*
X84258232Y42566947D01*
X84411000Y42536560D01*
X88221000Y42536560D01*
X88468765Y42585843D01*
X88678809Y42726191D01*
X88819157Y42936235D01*
X88868440Y43184000D01*
X88868440Y45264000D01*
X88819157Y45511765D01*
X88678809Y45721809D01*
X88468765Y45862157D01*
X88221000Y45911440D01*
X87951000Y45911440D01*
X87951000Y47616560D01*
X88221000Y47616560D01*
X88468765Y47665843D01*
X88678809Y47806191D01*
X88819157Y48016235D01*
X88868440Y48264000D01*
X88868440Y50344000D01*
X88819157Y50591765D01*
X88678809Y50801809D01*
X88468765Y50942157D01*
X88221000Y50991440D01*
X87951000Y50991440D01*
X87951000Y51860000D01*
X88219262Y51860000D01*
X88538500Y51796499D01*
X88538505Y51796500D01*
X90824500Y51796500D01*
X91450187Y51920957D01*
X91980620Y52275380D01*
X92335043Y52805813D01*
X92459500Y53431500D01*
X92335043Y54057187D01*
X91980620Y54587620D01*
X91450187Y54942043D01*
X90824500Y55066500D01*
X88794239Y55066500D01*
X88475000Y55130001D01*
X88474995Y55130000D01*
X86316000Y55130000D01*
X85690313Y55005543D01*
X85159880Y54651120D01*
X85112364Y54580007D01*
X84977194Y54715412D01*
X84468332Y54926710D01*
X83917345Y54927191D01*
X83408115Y54716782D01*
X83018169Y54327515D01*
X82806871Y53818653D01*
X82806513Y53408414D01*
X82451710Y53053611D01*
X82259867Y52766496D01*
X82259867Y52766495D01*
X82192499Y52427821D01*
X82192500Y52427816D01*
X82192500Y44408523D01*
X82125047Y44341187D01*
X82057500Y44408852D01*
X82057500Y52294449D01*
X81990133Y52633124D01*
X81798290Y52920239D01*
X81798287Y52920241D01*
X79522656Y55195873D01*
X79235541Y55387716D01*
X79142139Y55406295D01*
X78896866Y55455084D01*
X78896861Y55455083D01*
X60420088Y55455083D01*
X60420083Y55455084D01*
X60081408Y55387716D01*
X59794293Y55195873D01*
X59794291Y55195870D01*
X58924210Y54325790D01*
X58732367Y54038675D01*
X58732367Y54038674D01*
X58664999Y53700000D01*
X58665000Y53699995D01*
X58665000Y52765489D01*
X55722200Y55708290D01*
X55435085Y55900133D01*
X55378894Y55911310D01*
X55096410Y55967501D01*
X55096405Y55967500D01*
X53117940Y55967500D01*
X53117940Y56098500D01*
X53099740Y56190000D01*
X94240000Y56190000D01*
X94240000Y47236113D01*
X94240000Y47236113D01*
G37*
X94240000Y47236113D02*
X94052894Y47688943D01*
X93593363Y48149278D01*
X92992648Y48398716D01*
X92342205Y48399284D01*
X91741057Y48150894D01*
X91280722Y47691363D01*
X91031284Y47090648D01*
X91030716Y46440205D01*
X91279106Y45839057D01*
X91738637Y45378722D01*
X92339352Y45129284D01*
X92989795Y45128716D01*
X93590943Y45377106D01*
X94051278Y45836637D01*
X94240000Y46291131D01*
X94240000Y39097976D01*
X94179894Y39243443D01*
X93720363Y39703778D01*
X93119648Y39953216D01*
X92469205Y39953784D01*
X91868057Y39705394D01*
X91522801Y39360741D01*
X91180363Y39703778D01*
X90579648Y39953216D01*
X89929205Y39953784D01*
X89328057Y39705394D01*
X88867722Y39245863D01*
X88618284Y38645148D01*
X88617716Y37994705D01*
X88866106Y37393557D01*
X89325637Y36933222D01*
X89926352Y36683784D01*
X90576795Y36683216D01*
X91177943Y36931606D01*
X91523199Y37276259D01*
X91865637Y36933222D01*
X92466352Y36683784D01*
X93116795Y36683216D01*
X93717943Y36931606D01*
X94178278Y37391137D01*
X94240000Y37539780D01*
X94240000Y-6890000D01*
X90729528Y-6890000D01*
X90935216Y-6394648D01*
X90935784Y-5744205D01*
X90687394Y-5143057D01*
X90227863Y-4682722D01*
X89627148Y-4433284D01*
X88976705Y-4432716D01*
X88375557Y-4681106D01*
X87915222Y-5140637D01*
X87665784Y-5741352D01*
X87665216Y-6391795D01*
X87871071Y-6890000D01*
X76188028Y-6890000D01*
X76393716Y-6394648D01*
X76394284Y-5744205D01*
X76145894Y-5143057D01*
X75686363Y-4682722D01*
X75085648Y-4433284D01*
X74435205Y-4432716D01*
X73834057Y-4681106D01*
X73373722Y-5140637D01*
X73124284Y-5741352D01*
X73123716Y-6391795D01*
X73329571Y-6890000D01*
X55437212Y-6890000D01*
X55568066Y-6802566D01*
X57464066Y-4906566D01*
X57479802Y-4883015D01*
X57710103Y-4538346D01*
X57796500Y-4104000D01*
X57796500Y-3134377D01*
X57931500Y-2932335D01*
X58222157Y-3367334D01*
X58671483Y-3667564D01*
X59201500Y-3772991D01*
X59731517Y-3667564D01*
X60180843Y-3367334D01*
X60481073Y-2918008D01*
X60586500Y-2387991D01*
X60586500Y-1620009D01*
X60481073Y-1089992D01*
X60180843Y-640666D01*
X59731517Y-340436D01*
X59201500Y-235009D01*
X58671483Y-340436D01*
X58222157Y-640666D01*
X57931500Y-1075665D01*
X57640843Y-640666D01*
X57191517Y-340436D01*
X56661500Y-235009D01*
X56131483Y-340436D01*
X55682157Y-640666D01*
X55381927Y-1089992D01*
X55276500Y-1620009D01*
X55276500Y-2387991D01*
X55381927Y-2918008D01*
X55526500Y-3134377D01*
X55526500Y-3633868D01*
X54998446Y-4161922D01*
X54998740Y-3825215D01*
X54788331Y-3315985D01*
X54399064Y-2926039D01*
X53890202Y-2714741D01*
X53479962Y-2714383D01*
X53273821Y-2508241D01*
X53353384Y-2455079D01*
X59125560Y3317097D01*
X59125560Y2314000D01*
X59174843Y2066235D01*
X59315191Y1856191D01*
X59525235Y1715843D01*
X59773000Y1666560D01*
X60662000Y1666560D01*
X60909765Y1715843D01*
X61119809Y1856191D01*
X61260157Y2066235D01*
X61309440Y2314000D01*
X61309440Y3711000D01*
X61260157Y3958765D01*
X61188311Y4066289D01*
X62488022Y5366000D01*
X62509477Y5366000D01*
X62797436Y5077539D01*
X63306298Y4866241D01*
X63857285Y4865760D01*
X64366515Y5076169D01*
X64547711Y5257049D01*
X64547260Y4740715D01*
X64757669Y4231485D01*
X64973813Y4014964D01*
X64759039Y3800564D01*
X64547741Y3291702D01*
X64547260Y2740715D01*
X64757669Y2231485D01*
X64973813Y2014964D01*
X64759039Y1800564D01*
X64547741Y1291702D01*
X64547260Y740715D01*
X64757669Y231485D01*
X64973813Y14964D01*
X64759039Y-199436D01*
X64547741Y-708298D01*
X64547260Y-1259285D01*
X64757669Y-1768515D01*
X64973813Y-1985036D01*
X64759039Y-2199436D01*
X64547741Y-2708298D01*
X64547260Y-3259285D01*
X64757669Y-3768515D01*
X65146936Y-4158461D01*
X65655798Y-4369759D01*
X66206785Y-4370240D01*
X66716015Y-4159831D01*
X67105961Y-3770564D01*
X67317259Y-3261702D01*
X67317740Y-2710715D01*
X67107331Y-2201485D01*
X66891187Y-1984964D01*
X67105961Y-1770564D01*
X67317259Y-1261702D01*
X67317740Y-710715D01*
X67107331Y-201485D01*
X66891187Y15036D01*
X67105961Y229436D01*
X67317259Y738298D01*
X67317740Y1289285D01*
X67107331Y1798515D01*
X66891187Y2015036D01*
X67105961Y2229436D01*
X67317259Y2738298D01*
X67317740Y3289285D01*
X67107331Y3798515D01*
X66891187Y4015036D01*
X67105961Y4229436D01*
X67317259Y4738298D01*
X67317740Y5289285D01*
X67107331Y5798515D01*
X66891187Y6015036D01*
X67105961Y6229436D01*
X67317259Y6738298D01*
X67317740Y7289285D01*
X67107331Y7798515D01*
X66891187Y8015036D01*
X67105961Y8229436D01*
X67207305Y8473500D01*
X68777560Y8473500D01*
X68777560Y6949500D01*
X68826843Y6701735D01*
X68967191Y6491691D01*
X69177235Y6351343D01*
X69425000Y6302060D01*
X70598860Y6302060D01*
X71055987Y5844934D01*
X71011539Y5800564D01*
X70800241Y5291702D01*
X70799760Y4740715D01*
X71010169Y4231485D01*
X71399436Y3841539D01*
X71908298Y3630241D01*
X72459285Y3629760D01*
X72968515Y3840169D01*
X73358461Y4229436D01*
X73569759Y4738298D01*
X73570240Y5289285D01*
X73359831Y5798515D01*
X73039855Y6119049D01*
X73002633Y6306175D01*
X72810790Y6593290D01*
X72810787Y6593292D01*
X72104440Y7299639D01*
X72104440Y8473500D01*
X72968560Y8473500D01*
X72968560Y6949500D01*
X73017843Y6701735D01*
X73158191Y6491691D01*
X73368235Y6351343D01*
X73616000Y6302060D01*
X75648000Y6302060D01*
X75895765Y6351343D01*
X76105809Y6491691D01*
X76246157Y6701735D01*
X76270974Y6826500D01*
X80918495Y6826500D01*
X80918500Y6826499D01*
X81200984Y6882690D01*
X81257175Y6893867D01*
X81544290Y7085710D01*
X83706195Y9247616D01*
X84113785Y9247260D01*
X84623015Y9457669D01*
X85012961Y9846936D01*
X85224259Y10355798D01*
X85224617Y10766037D01*
X89040140Y14581560D01*
X89384285Y14581260D01*
X89893515Y14791669D01*
X90283461Y15180936D01*
X90494759Y15689798D01*
X90495240Y16240785D01*
X90284831Y16750015D01*
X89895564Y17139961D01*
X89386702Y17351259D01*
X88835715Y17351740D01*
X88326485Y17141331D01*
X87936539Y16752064D01*
X87725241Y16243202D01*
X87724827Y15769407D01*
X83972804Y12017384D01*
X83565215Y12017740D01*
X83055985Y11807331D01*
X82666039Y11418064D01*
X82454741Y10909202D01*
X82454383Y10498962D01*
X80551920Y8596500D01*
X76270974Y8596500D01*
X76246157Y8721265D01*
X76105809Y8931309D01*
X75895765Y9071657D01*
X75648000Y9120940D01*
X73616000Y9120940D01*
X73368235Y9071657D01*
X73158191Y8931309D01*
X73017843Y8721265D01*
X72968560Y8473500D01*
X72104440Y8473500D01*
X72055157Y8721265D01*
X71914809Y8931309D01*
X71704765Y9071657D01*
X71457000Y9120940D01*
X69425000Y9120940D01*
X69177235Y9071657D01*
X68967191Y8931309D01*
X68826843Y8721265D01*
X68777560Y8473500D01*
X67207305Y8473500D01*
X67317259Y8738298D01*
X67317740Y9289285D01*
X67107331Y9798515D01*
X66891187Y10015036D01*
X67105961Y10229436D01*
X67317259Y10738298D01*
X67317740Y11289285D01*
X67116841Y11775500D01*
X68777560Y11775500D01*
X68777560Y10251500D01*
X68826843Y10003735D01*
X68967191Y9793691D01*
X69177235Y9653343D01*
X69425000Y9604060D01*
X71457000Y9604060D01*
X71704765Y9653343D01*
X71914809Y9793691D01*
X72055157Y10003735D01*
X72079974Y10128500D01*
X72993026Y10128500D01*
X73017843Y10003735D01*
X73158191Y9793691D01*
X73368235Y9653343D01*
X73616000Y9604060D01*
X75648000Y9604060D01*
X75895765Y9653343D01*
X76105809Y9793691D01*
X76246157Y10003735D01*
X76295440Y10251500D01*
X76295440Y11775500D01*
X76246157Y12023265D01*
X76105809Y12233309D01*
X75895765Y12373657D01*
X75648000Y12422940D01*
X73616000Y12422940D01*
X73368235Y12373657D01*
X73158191Y12233309D01*
X73017843Y12023265D01*
X72993026Y11898500D01*
X72079974Y11898500D01*
X72055157Y12023265D01*
X71914809Y12233309D01*
X71704765Y12373657D01*
X71457000Y12422940D01*
X71326000Y12422940D01*
X71326000Y19782477D01*
X71387630Y19844000D01*
X71686125Y19844000D01*
X71697691Y19826691D01*
X71907735Y19686343D01*
X72155500Y19637060D01*
X73552500Y19637060D01*
X73800265Y19686343D01*
X74010309Y19826691D01*
X74150657Y20036735D01*
X74199940Y20284500D01*
X74199940Y21173500D01*
X74150657Y21421265D01*
X74010309Y21631309D01*
X73800265Y21771657D01*
X73552500Y21820940D01*
X72155500Y21820940D01*
X71907735Y21771657D01*
X71697691Y21631309D01*
X71686125Y21614000D01*
X71626374Y21614000D01*
X71615831Y21639515D01*
X71226564Y22029461D01*
X70717702Y22240759D01*
X70166715Y22241240D01*
X69657485Y22030831D01*
X69267539Y21641564D01*
X69056241Y21132702D01*
X69055760Y20581715D01*
X69266169Y20072485D01*
X69556000Y19782148D01*
X69556000Y12422940D01*
X69425000Y12422940D01*
X69177235Y12373657D01*
X68967191Y12233309D01*
X68826843Y12023265D01*
X68777560Y11775500D01*
X67116841Y11775500D01*
X67107331Y11798515D01*
X66891187Y12015036D01*
X67105961Y12229436D01*
X67317259Y12738298D01*
X67317740Y13289285D01*
X67107331Y13798515D01*
X66891187Y14015036D01*
X67105961Y14229436D01*
X67317259Y14738298D01*
X67317740Y15289285D01*
X67107331Y15798515D01*
X66891187Y16015036D01*
X67105961Y16229436D01*
X67317259Y16738298D01*
X67317740Y17289285D01*
X67107331Y17798515D01*
X66891187Y18015036D01*
X67105961Y18229436D01*
X67317259Y18738298D01*
X67317740Y19289285D01*
X67107331Y19798515D01*
X66718064Y20188461D01*
X66209202Y20399759D01*
X65658215Y20400240D01*
X65148985Y20189831D01*
X65035000Y20076044D01*
X65035000Y21646899D01*
X65182500Y21617560D01*
X66682500Y21617560D01*
X66930265Y21666843D01*
X67140309Y21807191D01*
X67280657Y22017235D01*
X67329940Y22265000D01*
X67329940Y23765000D01*
X67280657Y24012765D01*
X67140309Y24222809D01*
X66930265Y24363157D01*
X66682500Y24412440D01*
X65182500Y24412440D01*
X65035000Y24383101D01*
X65035000Y25674842D01*
X66551079Y27190921D01*
X66721245Y27445594D01*
X66781000Y27746000D01*
X66781000Y30096651D01*
X67169461Y30484436D01*
X67380759Y30993298D01*
X67381240Y31544285D01*
X67170831Y32053515D01*
X66781564Y32443461D01*
X66272702Y32654759D01*
X65721715Y32655240D01*
X65212485Y32444831D01*
X64822539Y32055564D01*
X64611241Y31546702D01*
X64610760Y30995715D01*
X64821169Y30486485D01*
X65210436Y30096539D01*
X65211000Y30096305D01*
X65211000Y28071158D01*
X64074834Y26934992D01*
X64074834Y33168648D01*
X66633186Y35727000D01*
X67934868Y35727000D01*
X68685934Y34975934D01*
X69054154Y34729897D01*
X69488500Y34643500D01*
X78621049Y34643500D01*
X78793878Y34609122D01*
X88441868Y34609122D01*
X89103348Y33947642D01*
X89103348Y33037187D01*
X87824962Y31758801D01*
X83510801Y31758801D01*
X83076456Y31672405D01*
X82708235Y31426367D01*
X80750934Y29469066D01*
X80504897Y29100846D01*
X80418500Y28666500D01*
X80418500Y26679888D01*
X80053064Y27045961D01*
X79544202Y27257259D01*
X78993215Y27257740D01*
X78483985Y27047331D01*
X78094039Y26658064D01*
X77882741Y26149202D01*
X77882692Y26092824D01*
X77229977Y25440109D01*
X71826983Y25440109D01*
X71788589Y25478570D01*
X71279727Y25689868D01*
X70728740Y25690349D01*
X70219510Y25479940D01*
X69829564Y25090673D01*
X69618266Y24581811D01*
X69617785Y24030824D01*
X69828194Y23521594D01*
X70217461Y23131648D01*
X70726323Y22920350D01*
X71277310Y22919869D01*
X71786540Y23130278D01*
X71826440Y23170109D01*
X77700109Y23170109D01*
X78134455Y23256506D01*
X78502675Y23502543D01*
X79487439Y24487307D01*
X79541785Y24487260D01*
X80051015Y24697669D01*
X80418500Y25064514D01*
X80418500Y23140458D01*
X80380039Y23102064D01*
X80168741Y22593202D01*
X80168260Y22042215D01*
X80378669Y21532985D01*
X80767936Y21143039D01*
X81276798Y20931741D01*
X81827785Y20931260D01*
X82337015Y21141669D01*
X82726961Y21530936D01*
X82938259Y22039798D01*
X82938740Y22590785D01*
X82728331Y23100015D01*
X82688500Y23139915D01*
X82688500Y28196368D01*
X83105665Y28613533D01*
X83105222Y28106007D01*
X83315631Y27596777D01*
X83704898Y27206831D01*
X84213760Y26995533D01*
X84624000Y26995175D01*
X84986500Y26632675D01*
X84986500Y20278523D01*
X84698039Y19990564D01*
X84486741Y19481702D01*
X84486260Y18930715D01*
X84696669Y18421485D01*
X85085936Y18031539D01*
X85594798Y17820241D01*
X86145785Y17819760D01*
X86655015Y18030169D01*
X87044961Y18419436D01*
X87256259Y18928298D01*
X87256530Y19239152D01*
X87309298Y19217241D01*
X87860285Y19216760D01*
X88369515Y19427169D01*
X88602119Y19659368D01*
X88895936Y19365039D01*
X89404798Y19153741D01*
X89955785Y19153260D01*
X90465015Y19363669D01*
X90854961Y19752936D01*
X91066259Y20261798D01*
X91066740Y20812785D01*
X90856331Y21322015D01*
X90816500Y21361915D01*
X90816500Y22740715D01*
X91297260Y22740715D01*
X91507669Y22231485D01*
X91723813Y22014964D01*
X91509039Y21800564D01*
X91297741Y21291702D01*
X91297260Y20740715D01*
X91507669Y20231485D01*
X91723813Y20014964D01*
X91509039Y19800564D01*
X91297741Y19291702D01*
X91297260Y18740715D01*
X91507669Y18231485D01*
X91723813Y18014964D01*
X91509039Y17800564D01*
X91297741Y17291702D01*
X91297260Y16740715D01*
X91507669Y16231485D01*
X91723813Y16014964D01*
X91509039Y15800564D01*
X91297741Y15291702D01*
X91297260Y14740715D01*
X91507669Y14231485D01*
X91723813Y14014964D01*
X91509039Y13800564D01*
X91297741Y13291702D01*
X91297260Y12740715D01*
X91507669Y12231485D01*
X91723813Y12014964D01*
X91509039Y11800564D01*
X91297741Y11291702D01*
X91297260Y10740715D01*
X91507669Y10231485D01*
X91723813Y10014964D01*
X91509039Y9800564D01*
X91297741Y9291702D01*
X91297260Y8740715D01*
X91507669Y8231485D01*
X91723813Y8014964D01*
X91509039Y7800564D01*
X91297741Y7291702D01*
X91297260Y6740715D01*
X91507669Y6231485D01*
X91723813Y6014964D01*
X91509039Y5800564D01*
X91297741Y5291702D01*
X91297260Y4740715D01*
X91507669Y4231485D01*
X91723813Y4014964D01*
X91509039Y3800564D01*
X91297741Y3291702D01*
X91297260Y2740715D01*
X91507669Y2231485D01*
X91723813Y2014964D01*
X91509039Y1800564D01*
X91297741Y1291702D01*
X91297260Y740715D01*
X91507669Y231485D01*
X91723813Y14964D01*
X91509039Y-199436D01*
X91297741Y-708298D01*
X91297260Y-1259285D01*
X91507669Y-1768515D01*
X91723813Y-1985036D01*
X91509039Y-2199436D01*
X91297741Y-2708298D01*
X91297260Y-3259285D01*
X91507669Y-3768515D01*
X91896936Y-4158461D01*
X92405798Y-4369759D01*
X92956785Y-4370240D01*
X93466015Y-4159831D01*
X93855961Y-3770564D01*
X94067259Y-3261702D01*
X94067740Y-2710715D01*
X93857331Y-2201485D01*
X93641187Y-1984964D01*
X93855961Y-1770564D01*
X94067259Y-1261702D01*
X94067740Y-710715D01*
X93857331Y-201485D01*
X93641187Y15036D01*
X93855961Y229436D01*
X94067259Y738298D01*
X94067740Y1289285D01*
X93857331Y1798515D01*
X93641187Y2015036D01*
X93855961Y2229436D01*
X94067259Y2738298D01*
X94067740Y3289285D01*
X93857331Y3798515D01*
X93641187Y4015036D01*
X93855961Y4229436D01*
X94067259Y4738298D01*
X94067740Y5289285D01*
X93857331Y5798515D01*
X93641187Y6015036D01*
X93855961Y6229436D01*
X94067259Y6738298D01*
X94067740Y7289285D01*
X93857331Y7798515D01*
X93641187Y8015036D01*
X93855961Y8229436D01*
X94067259Y8738298D01*
X94067740Y9289285D01*
X93857331Y9798515D01*
X93641187Y10015036D01*
X93855961Y10229436D01*
X94067259Y10738298D01*
X94067740Y11289285D01*
X93857331Y11798515D01*
X93641187Y12015036D01*
X93855961Y12229436D01*
X94067259Y12738298D01*
X94067740Y13289285D01*
X93857331Y13798515D01*
X93641187Y14015036D01*
X93855961Y14229436D01*
X94067259Y14738298D01*
X94067740Y15289285D01*
X93857331Y15798515D01*
X93641187Y16015036D01*
X93855961Y16229436D01*
X94067259Y16738298D01*
X94067740Y17289285D01*
X93857331Y17798515D01*
X93641187Y18015036D01*
X93855961Y18229436D01*
X94067259Y18738298D01*
X94067740Y19289285D01*
X93857331Y19798515D01*
X93641187Y20015036D01*
X93855961Y20229436D01*
X94067259Y20738298D01*
X94067740Y21289285D01*
X93857331Y21798515D01*
X93641187Y22015036D01*
X93855961Y22229436D01*
X94067259Y22738298D01*
X94067740Y23289285D01*
X93857331Y23798515D01*
X93468064Y24188461D01*
X92959202Y24399759D01*
X92408215Y24400240D01*
X91898985Y24189831D01*
X91509039Y23800564D01*
X91297741Y23291702D01*
X91297260Y22740715D01*
X90816500Y22740715D01*
X90816500Y27180368D01*
X91933439Y28297307D01*
X91987785Y28297260D01*
X92497015Y28507669D01*
X92886961Y28896936D01*
X93098259Y29405798D01*
X93098740Y29956785D01*
X92888331Y30466015D01*
X92499064Y30855961D01*
X91990202Y31067259D01*
X91439215Y31067740D01*
X90929985Y30857331D01*
X90540039Y30468064D01*
X90328741Y29959202D01*
X90328692Y29902824D01*
X88952492Y28526624D01*
X88952969Y29073085D01*
X88742560Y29582315D01*
X88741572Y29583305D01*
X89097660Y29821235D01*
X91040914Y31764489D01*
X91063633Y31798490D01*
X91286951Y32132709D01*
X91373348Y32567055D01*
X91373348Y34417774D01*
X91286951Y34852120D01*
X91040914Y35220340D01*
X89714566Y36546688D01*
X89661742Y36581984D01*
X89346346Y36792725D01*
X88912000Y36879122D01*
X85970922Y36879122D01*
X86097943Y36931606D01*
X86558278Y37391137D01*
X86807716Y37991852D01*
X86808284Y38642295D01*
X86559894Y39243443D01*
X86100363Y39703778D01*
X85499648Y39953216D01*
X84849205Y39953784D01*
X84248057Y39705394D01*
X83902801Y39360741D01*
X83560363Y39703778D01*
X82959648Y39953216D01*
X82309205Y39953784D01*
X81708057Y39705394D01*
X81362801Y39360741D01*
X81020363Y39703778D01*
X80419648Y39953216D01*
X79769205Y39953784D01*
X79168057Y39705394D01*
X78707722Y39245863D01*
X78458284Y38645148D01*
X78457716Y37994705D01*
X78706106Y37393557D01*
X79165637Y36933222D01*
X79295925Y36879122D01*
X78932329Y36879122D01*
X78759500Y36913500D01*
X76881753Y36913500D01*
X77092216Y37420352D01*
X77092784Y38070795D01*
X76844394Y38671943D01*
X76384863Y39132278D01*
X75784148Y39381716D01*
X75133705Y39382284D01*
X74532557Y39133894D01*
X74187301Y38789241D01*
X73844863Y39132278D01*
X73244148Y39381716D01*
X72593705Y39382284D01*
X72562586Y39369426D01*
X73594720Y40401560D01*
X79331000Y40401560D01*
X79578765Y40450843D01*
X79788809Y40591191D01*
X79929157Y40801235D01*
X79978440Y41049000D01*
X79978440Y42598023D01*
X79997669Y42551485D01*
X80386936Y42161539D01*
X80895798Y41950241D01*
X81446785Y41949760D01*
X81956015Y42160169D01*
X82124953Y42328813D01*
X82291936Y42161539D01*
X82800798Y41950241D01*
X83351785Y41949760D01*
X83861015Y42160169D01*
X84250961Y42549436D01*
X84258232Y42566947D01*
X84411000Y42536560D01*
X88221000Y42536560D01*
X88468765Y42585843D01*
X88678809Y42726191D01*
X88819157Y42936235D01*
X88868440Y43184000D01*
X88868440Y45264000D01*
X88819157Y45511765D01*
X88678809Y45721809D01*
X88468765Y45862157D01*
X88221000Y45911440D01*
X87951000Y45911440D01*
X87951000Y47616560D01*
X88221000Y47616560D01*
X88468765Y47665843D01*
X88678809Y47806191D01*
X88819157Y48016235D01*
X88868440Y48264000D01*
X88868440Y50344000D01*
X88819157Y50591765D01*
X88678809Y50801809D01*
X88468765Y50942157D01*
X88221000Y50991440D01*
X87951000Y50991440D01*
X87951000Y51860000D01*
X88219262Y51860000D01*
X88538500Y51796499D01*
X88538505Y51796500D01*
X90824500Y51796500D01*
X91450187Y51920957D01*
X91980620Y52275380D01*
X92335043Y52805813D01*
X92459500Y53431500D01*
X92335043Y54057187D01*
X91980620Y54587620D01*
X91450187Y54942043D01*
X90824500Y55066500D01*
X88794239Y55066500D01*
X88475000Y55130001D01*
X88474995Y55130000D01*
X86316000Y55130000D01*
X85690313Y55005543D01*
X85159880Y54651120D01*
X85112364Y54580007D01*
X84977194Y54715412D01*
X84468332Y54926710D01*
X83917345Y54927191D01*
X83408115Y54716782D01*
X83018169Y54327515D01*
X82806871Y53818653D01*
X82806513Y53408414D01*
X82451710Y53053611D01*
X82259867Y52766496D01*
X82259867Y52766495D01*
X82192499Y52427821D01*
X82192500Y52427816D01*
X82192500Y44408523D01*
X82125047Y44341187D01*
X82057500Y44408852D01*
X82057500Y52294449D01*
X81990133Y52633124D01*
X81798290Y52920239D01*
X81798287Y52920241D01*
X79522656Y55195873D01*
X79235541Y55387716D01*
X79142139Y55406295D01*
X78896866Y55455084D01*
X78896861Y55455083D01*
X60420088Y55455083D01*
X60420083Y55455084D01*
X60081408Y55387716D01*
X59794293Y55195873D01*
X59794291Y55195870D01*
X58924210Y54325790D01*
X58732367Y54038675D01*
X58732367Y54038674D01*
X58664999Y53700000D01*
X58665000Y53699995D01*
X58665000Y52765489D01*
X55722200Y55708290D01*
X55435085Y55900133D01*
X55378894Y55911310D01*
X55096410Y55967501D01*
X55096405Y55967500D01*
X53117940Y55967500D01*
X53117940Y56098500D01*
X53099740Y56190000D01*
X94240000Y56190000D01*
X94240000Y47236113D01*
G36*
X37877222Y56009863D02*
X37627784Y55409148D01*
X37627216Y54758705D01*
X37875606Y54157557D01*
X38161893Y53870769D01*
X38076539Y53785564D01*
X37951734Y53485000D01*
X33750005Y53485000D01*
X33750000Y53485001D01*
X33418499Y53419060D01*
X33411325Y53417633D01*
X33124210Y53225790D01*
X33124208Y53225787D01*
X31124210Y51225790D01*
X30932367Y50938675D01*
X30924836Y50900813D01*
X30864999Y50600000D01*
X30865000Y50599995D01*
X30865000Y49839310D01*
X30770657Y49776272D01*
X30470427Y49326946D01*
X30365000Y48796929D01*
X30365000Y47723071D01*
X30470427Y47193054D01*
X30770657Y46743728D01*
X31219983Y46443498D01*
X31750000Y46338071D01*
X32280017Y46443498D01*
X32729343Y46743728D01*
X33020000Y47178727D01*
X33310657Y46743728D01*
X33759983Y46443498D01*
X34290000Y46338071D01*
X34820017Y46443498D01*
X35269343Y46743728D01*
X35560000Y47178727D01*
X35850657Y46743728D01*
X36299983Y46443498D01*
X36830000Y46338071D01*
X36838103Y46339683D01*
X36507928Y46009507D01*
X36326702Y46084759D01*
X35775715Y46085240D01*
X35266485Y45874831D01*
X34876539Y45485564D01*
X34665241Y44976702D01*
X34664760Y44425715D01*
X34875169Y43916485D01*
X35264436Y43526539D01*
X35589841Y43391419D01*
X32683306Y40484884D01*
X32275717Y40485240D01*
X31766487Y40274831D01*
X31650052Y40158599D01*
X31535000Y40273852D01*
X31535000Y42256000D01*
X31467633Y42594675D01*
X31275790Y42881790D01*
X31275787Y42881792D01*
X30420448Y43737132D01*
X30633515Y43825169D01*
X31023461Y44214436D01*
X31234759Y44723298D01*
X31235240Y45274285D01*
X31024831Y45783515D01*
X30635564Y46173461D01*
X30126702Y46384759D01*
X29716462Y46385117D01*
X28942723Y47158857D01*
X28965573Y47193054D01*
X29071000Y47723071D01*
X29071000Y48796929D01*
X28965573Y49326946D01*
X28665343Y49776272D01*
X28216017Y50076502D01*
X27686000Y50181929D01*
X27155983Y50076502D01*
X26706657Y49776272D01*
X26416000Y49341273D01*
X26125343Y49776272D01*
X25676017Y50076502D01*
X25146000Y50181929D01*
X24615983Y50076502D01*
X24166657Y49776272D01*
X23876000Y49341273D01*
X23585343Y49776272D01*
X23136017Y50076502D01*
X22606000Y50181929D01*
X22075983Y50076502D01*
X21626657Y49776272D01*
X21336000Y49341273D01*
X21045343Y49776272D01*
X20596017Y50076502D01*
X20066000Y50181929D01*
X19535983Y50076502D01*
X19086657Y49776272D01*
X18796000Y49341273D01*
X18505343Y49776272D01*
X18056017Y50076502D01*
X17526000Y50181929D01*
X16995983Y50076502D01*
X16546657Y49776272D01*
X16256000Y49341273D01*
X15965343Y49776272D01*
X15516017Y50076502D01*
X14986000Y50181929D01*
X14455983Y50076502D01*
X14006657Y49776272D01*
X13706427Y49326946D01*
X13601000Y48796929D01*
X13601000Y47723071D01*
X13648007Y47486751D01*
X13093859Y46932603D01*
X11011545Y46932603D01*
X11185573Y47193054D01*
X11291000Y47723071D01*
X11291000Y48796929D01*
X11185573Y49326946D01*
X10885343Y49776272D01*
X10436017Y50076502D01*
X9906000Y50181929D01*
X9375983Y50076502D01*
X8926657Y49776272D01*
X8636000Y49341273D01*
X8345343Y49776272D01*
X7896017Y50076502D01*
X7366000Y50181929D01*
X6835983Y50076502D01*
X6386657Y49776272D01*
X6096000Y49341273D01*
X5805343Y49776272D01*
X5356017Y50076502D01*
X4826000Y50181929D01*
X4295983Y50076502D01*
X3846657Y49776272D01*
X3608038Y49419154D01*
X3478427Y49732838D01*
X2746690Y50465853D01*
X1790140Y50863047D01*
X754404Y50863951D01*
X-202838Y50468427D01*
X-935853Y49736690D01*
X-1333047Y48780140D01*
X-1333951Y47744404D01*
X-938427Y46787162D01*
X-206690Y46054147D01*
X749860Y45656953D01*
X1785596Y45656049D01*
X2742838Y46051573D01*
X3475853Y46783310D01*
X3607833Y47101153D01*
X3846657Y46743728D01*
X4295983Y46443498D01*
X4743453Y46354491D01*
X-2868795Y38742244D01*
X-3060638Y38455129D01*
X-3060638Y38455128D01*
X-3128006Y38116454D01*
X-3128005Y38116449D01*
X-3128005Y10436221D01*
X-3416466Y10148262D01*
X-3627764Y9639400D01*
X-3628245Y9088413D01*
X-3417836Y8579183D01*
X-3028569Y8189237D01*
X-2519707Y7977939D01*
X-1968720Y7977458D01*
X-1459490Y8187867D01*
X-1069544Y8577134D01*
X-858246Y9085996D01*
X-857765Y9636983D01*
X-1068174Y10146213D01*
X-1358005Y10436550D01*
X-1358005Y13994334D01*
X-926702Y13815241D01*
X-375715Y13814760D01*
X133515Y14025169D01*
X523461Y14414436D01*
X734759Y14923298D01*
X735240Y15474285D01*
X524831Y15983515D01*
X135564Y16373461D01*
X-165000Y16498266D01*
X-165000Y37433420D01*
X3960500Y41558921D01*
X3960500Y38630023D01*
X3672039Y38342064D01*
X3460741Y37833202D01*
X3460260Y37282215D01*
X3670669Y36772985D01*
X4059936Y36383039D01*
X4568798Y36171741D01*
X5119785Y36171260D01*
X5629015Y36381669D01*
X6018961Y36770936D01*
X6230259Y37279798D01*
X6230740Y37830785D01*
X6020331Y38340015D01*
X5730500Y38630352D01*
X5730500Y41253920D01*
X7033209Y42556629D01*
X7041343Y42515735D01*
X7181691Y42305691D01*
X7391735Y42165343D01*
X7639500Y42116060D01*
X9671500Y42116060D01*
X9919265Y42165343D01*
X10129309Y42305691D01*
X10179500Y42380807D01*
X10229691Y42305691D01*
X10439735Y42165343D01*
X10687500Y42116060D01*
X12719500Y42116060D01*
X12967265Y42165343D01*
X13177309Y42305691D01*
X13317657Y42515735D01*
X13342474Y42640500D01*
X21575495Y42640500D01*
X21575500Y42640499D01*
X21600641Y42645500D01*
X25484469Y42645500D01*
X25772428Y42357039D01*
X26281290Y42145741D01*
X26832277Y42145260D01*
X27341507Y42355669D01*
X27731453Y42744936D01*
X27942751Y43253798D01*
X27943150Y43711270D01*
X29765000Y41889421D01*
X29765000Y40273523D01*
X29476539Y39985564D01*
X29392440Y39783031D01*
X29392440Y39919000D01*
X29343157Y40166765D01*
X29202809Y40376809D01*
X28992765Y40517157D01*
X28745000Y40566440D01*
X27221000Y40566440D01*
X26973235Y40517157D01*
X26763191Y40376809D01*
X26622843Y40166765D01*
X26573560Y39919000D01*
X26573560Y38828692D01*
X26090440Y38345572D01*
X26090440Y39919000D01*
X26041157Y40166765D01*
X25900809Y40376809D01*
X25690765Y40517157D01*
X25443000Y40566440D01*
X23919000Y40566440D01*
X23671235Y40517157D01*
X23461191Y40376809D01*
X23320843Y40166765D01*
X23288073Y40002017D01*
X23258587Y40150255D01*
X23118239Y40360299D01*
X22908195Y40500647D01*
X22660430Y40549930D01*
X20859570Y40549930D01*
X20611805Y40500647D01*
X20401761Y40360299D01*
X20261413Y40150255D01*
X20212130Y39902490D01*
X20212130Y37903510D01*
X20261413Y37655745D01*
X20401761Y37445701D01*
X20611805Y37305353D01*
X20859570Y37256070D01*
X22660430Y37256070D01*
X22908195Y37305353D01*
X23118239Y37445701D01*
X23258587Y37655745D01*
X23288073Y37803983D01*
X23320843Y37639235D01*
X23461191Y37429191D01*
X23671235Y37288843D01*
X23919000Y37239560D01*
X24079428Y37239560D01*
X24075843Y37235975D01*
X23722205Y37236284D01*
X23121057Y36987894D01*
X22660722Y36528363D01*
X22643131Y36486000D01*
X19851000Y36486000D01*
X19512325Y36418633D01*
X19225210Y36226790D01*
X19225208Y36226787D01*
X17933810Y34935390D01*
X17741967Y34648275D01*
X17741017Y34643500D01*
X17674599Y34309600D01*
X17674600Y34309595D01*
X17674600Y31659930D01*
X17659170Y31659930D01*
X17635000Y31655122D01*
X17635000Y35227330D01*
X19185387Y36777718D01*
X19185390Y36777720D01*
X19377233Y37064835D01*
X19411337Y37236284D01*
X19415273Y37256070D01*
X19460030Y37256070D01*
X19707795Y37305353D01*
X19917839Y37445701D01*
X20058187Y37655745D01*
X20107470Y37903510D01*
X20107470Y39902490D01*
X20058187Y40150255D01*
X19917839Y40360299D01*
X19707795Y40500647D01*
X19460030Y40549930D01*
X17659170Y40549930D01*
X17411405Y40500647D01*
X17201361Y40360299D01*
X17061013Y40150255D01*
X17011730Y39902490D01*
X17011730Y37903510D01*
X17061013Y37655745D01*
X17201361Y37445701D01*
X17290590Y37386080D01*
X16124210Y36219700D01*
X15932367Y35932585D01*
X15926184Y35901500D01*
X15864999Y35593910D01*
X15865000Y35593905D01*
X15865000Y33993546D01*
X15767500Y34012940D01*
X15636500Y34012940D01*
X15636500Y35016495D01*
X15636501Y35016500D01*
X15569133Y35355174D01*
X15569133Y35355175D01*
X15377290Y35642290D01*
X15377287Y35642292D01*
X14615290Y36404290D01*
X14593824Y36418633D01*
X14328175Y36596133D01*
X14271984Y36607310D01*
X13989500Y36663501D01*
X13989495Y36663500D01*
X11114561Y36663500D01*
X11096439Y36690620D01*
X11586660Y36690620D01*
X11834425Y36739903D01*
X12044469Y36880251D01*
X12184817Y37090295D01*
X12234100Y37338060D01*
X12234100Y37648321D01*
X12329287Y37743508D01*
X12329290Y37743510D01*
X12521133Y38030625D01*
X12533211Y38091343D01*
X12588501Y38369300D01*
X12588500Y38369305D01*
X12588500Y38814060D01*
X12719500Y38814060D01*
X12967265Y38863343D01*
X13177309Y39003691D01*
X13317657Y39213735D01*
X13366940Y39461500D01*
X13366940Y40985500D01*
X13317657Y41233265D01*
X13177309Y41443309D01*
X12967265Y41583657D01*
X12719500Y41632940D01*
X10687500Y41632940D01*
X10439735Y41583657D01*
X10229691Y41443309D01*
X10089343Y41233265D01*
X10040060Y40985500D01*
X10040060Y39461500D01*
X10089343Y39213735D01*
X10229691Y39003691D01*
X10439735Y38863343D01*
X10464104Y38858496D01*
X10424495Y38850617D01*
X10214451Y38710269D01*
X10074103Y38500225D01*
X10024820Y38252460D01*
X10024820Y37338060D01*
X10074103Y37090295D01*
X10212521Y36883140D01*
X9722300Y36883140D01*
X9474535Y36833857D01*
X9264491Y36693509D01*
X9124143Y36483465D01*
X9074860Y36235700D01*
X9074860Y35321300D01*
X9124143Y35073535D01*
X9264491Y34863491D01*
X9294500Y34843439D01*
X9294500Y34405202D01*
X9250715Y34405240D01*
X8741485Y34194831D01*
X8719887Y34173271D01*
X8175079Y34718079D01*
X7920407Y34888245D01*
X7620000Y34948000D01*
X3690865Y34948000D01*
X3646157Y35172765D01*
X3505809Y35382809D01*
X3295765Y35523157D01*
X3048000Y35572440D01*
X1016000Y35572440D01*
X768235Y35523157D01*
X558191Y35382809D01*
X417843Y35172765D01*
X368560Y34925000D01*
X368560Y33401000D01*
X417843Y33153235D01*
X558191Y32943191D01*
X768235Y32802843D01*
X1016000Y32753560D01*
X3048000Y32753560D01*
X3295765Y32802843D01*
X3505809Y32943191D01*
X3646157Y33153235D01*
X3690865Y33378000D01*
X5655035Y33378000D01*
X5268222Y32991863D01*
X5018784Y32391148D01*
X5018216Y31740705D01*
X5266606Y31139557D01*
X5611259Y30794301D01*
X5268222Y30451863D01*
X5018784Y29851148D01*
X5018216Y29200705D01*
X5266606Y28599557D01*
X5611259Y28254301D01*
X5268222Y27911863D01*
X5018784Y27311148D01*
X5018216Y26660705D01*
X5266606Y26059557D01*
X5726137Y25599222D01*
X6326852Y25349784D01*
X6977295Y25349216D01*
X7578443Y25597606D01*
X7889628Y25908247D01*
X7778741Y25641202D01*
X7778260Y25090215D01*
X7988669Y24580985D01*
X8028500Y24541085D01*
X8028500Y22841358D01*
X7580863Y23289778D01*
X6980148Y23539216D01*
X6329705Y23539784D01*
X5728557Y23291394D01*
X5268222Y22831863D01*
X5018784Y22231148D01*
X5018216Y21580705D01*
X5266606Y20979557D01*
X5611259Y20634301D01*
X5268222Y20291863D01*
X5018784Y19691148D01*
X5018216Y19040705D01*
X5266606Y18439557D01*
X5611259Y18094301D01*
X5268222Y17751863D01*
X5018784Y17151148D01*
X5018216Y16500705D01*
X5266606Y15899557D01*
X5726137Y15439222D01*
X6326852Y15189784D01*
X6977295Y15189216D01*
X7578443Y15437606D01*
X8028500Y15886877D01*
X8028500Y11185888D01*
X7663064Y11551961D01*
X7154202Y11763259D01*
X6743962Y11763617D01*
X6000940Y12506640D01*
X6000940Y13172500D01*
X5951657Y13420265D01*
X5811309Y13630309D01*
X5601265Y13770657D01*
X5353500Y13819940D01*
X3321500Y13819940D01*
X3073735Y13770657D01*
X2863691Y13630309D01*
X2723343Y13420265D01*
X2674060Y13172500D01*
X2674060Y11648500D01*
X2723343Y11400735D01*
X2863691Y11190691D01*
X3073735Y11050343D01*
X3321500Y11001060D01*
X3920650Y11001060D01*
X4037094Y10923255D01*
X4337500Y10863500D01*
X4637906Y10923255D01*
X4754350Y11001060D01*
X5003360Y11001060D01*
X5492616Y10511805D01*
X5492597Y10490272D01*
X5353500Y10517940D01*
X3321500Y10517940D01*
X3073735Y10468657D01*
X2863691Y10328309D01*
X2813500Y10253193D01*
X2763309Y10328309D01*
X2553265Y10468657D01*
X2305500Y10517940D01*
X273500Y10517940D01*
X25735Y10468657D01*
X-184309Y10328309D01*
X-324657Y10118265D01*
X-373940Y9870500D01*
X-373940Y8346500D01*
X-324657Y8098735D01*
X-184309Y7888691D01*
X-25801Y7782778D01*
X-3632219Y4176361D01*
X-3824062Y3889246D01*
X-3824062Y3889245D01*
X-3891430Y3550571D01*
X-3891429Y3550566D01*
X-3891429Y-2055909D01*
X-3891430Y-2055914D01*
X-3839163Y-2318674D01*
X-3824062Y-2394589D01*
X-3632219Y-2681704D01*
X-3227201Y-3086721D01*
X-3227557Y-3494311D01*
X-3017148Y-4003541D01*
X-2627881Y-4393487D01*
X-2119019Y-4604785D01*
X-1568032Y-4605266D01*
X-1058802Y-4394857D01*
X-668856Y-4005590D01*
X-457558Y-3496728D01*
X-457077Y-2945741D01*
X-614940Y-2563683D01*
X-520140Y-2603047D01*
X515596Y-2603951D01*
X1472838Y-2208427D01*
X1574955Y-2106488D01*
X1487867Y-2236825D01*
X1487867Y-2236826D01*
X1420499Y-2575500D01*
X1420500Y-2575505D01*
X1420500Y-3984526D01*
X1295735Y-4009343D01*
X1085691Y-4149691D01*
X945343Y-4359735D01*
X896060Y-4607500D01*
X896060Y-6639500D01*
X945343Y-6887265D01*
X947170Y-6890000D01*
X-4123000Y-6890000D01*
X-4123000Y56190000D01*
X38057674Y56190000D01*
X37877222Y56009863D01*
X37877222Y56009863D01*
G37*
X37877222Y56009863D02*
X37627784Y55409148D01*
X37627216Y54758705D01*
X37875606Y54157557D01*
X38161893Y53870769D01*
X38076539Y53785564D01*
X37951734Y53485000D01*
X33750005Y53485000D01*
X33750000Y53485001D01*
X33418499Y53419060D01*
X33411325Y53417633D01*
X33124210Y53225790D01*
X33124208Y53225787D01*
X31124210Y51225790D01*
X30932367Y50938675D01*
X30924836Y50900813D01*
X30864999Y50600000D01*
X30865000Y50599995D01*
X30865000Y49839310D01*
X30770657Y49776272D01*
X30470427Y49326946D01*
X30365000Y48796929D01*
X30365000Y47723071D01*
X30470427Y47193054D01*
X30770657Y46743728D01*
X31219983Y46443498D01*
X31750000Y46338071D01*
X32280017Y46443498D01*
X32729343Y46743728D01*
X33020000Y47178727D01*
X33310657Y46743728D01*
X33759983Y46443498D01*
X34290000Y46338071D01*
X34820017Y46443498D01*
X35269343Y46743728D01*
X35560000Y47178727D01*
X35850657Y46743728D01*
X36299983Y46443498D01*
X36830000Y46338071D01*
X36838103Y46339683D01*
X36507928Y46009507D01*
X36326702Y46084759D01*
X35775715Y46085240D01*
X35266485Y45874831D01*
X34876539Y45485564D01*
X34665241Y44976702D01*
X34664760Y44425715D01*
X34875169Y43916485D01*
X35264436Y43526539D01*
X35589841Y43391419D01*
X32683306Y40484884D01*
X32275717Y40485240D01*
X31766487Y40274831D01*
X31650052Y40158599D01*
X31535000Y40273852D01*
X31535000Y42256000D01*
X31467633Y42594675D01*
X31275790Y42881790D01*
X31275787Y42881792D01*
X30420448Y43737132D01*
X30633515Y43825169D01*
X31023461Y44214436D01*
X31234759Y44723298D01*
X31235240Y45274285D01*
X31024831Y45783515D01*
X30635564Y46173461D01*
X30126702Y46384759D01*
X29716462Y46385117D01*
X28942723Y47158857D01*
X28965573Y47193054D01*
X29071000Y47723071D01*
X29071000Y48796929D01*
X28965573Y49326946D01*
X28665343Y49776272D01*
X28216017Y50076502D01*
X27686000Y50181929D01*
X27155983Y50076502D01*
X26706657Y49776272D01*
X26416000Y49341273D01*
X26125343Y49776272D01*
X25676017Y50076502D01*
X25146000Y50181929D01*
X24615983Y50076502D01*
X24166657Y49776272D01*
X23876000Y49341273D01*
X23585343Y49776272D01*
X23136017Y50076502D01*
X22606000Y50181929D01*
X22075983Y50076502D01*
X21626657Y49776272D01*
X21336000Y49341273D01*
X21045343Y49776272D01*
X20596017Y50076502D01*
X20066000Y50181929D01*
X19535983Y50076502D01*
X19086657Y49776272D01*
X18796000Y49341273D01*
X18505343Y49776272D01*
X18056017Y50076502D01*
X17526000Y50181929D01*
X16995983Y50076502D01*
X16546657Y49776272D01*
X16256000Y49341273D01*
X15965343Y49776272D01*
X15516017Y50076502D01*
X14986000Y50181929D01*
X14455983Y50076502D01*
X14006657Y49776272D01*
X13706427Y49326946D01*
X13601000Y48796929D01*
X13601000Y47723071D01*
X13648007Y47486751D01*
X13093859Y46932603D01*
X11011545Y46932603D01*
X11185573Y47193054D01*
X11291000Y47723071D01*
X11291000Y48796929D01*
X11185573Y49326946D01*
X10885343Y49776272D01*
X10436017Y50076502D01*
X9906000Y50181929D01*
X9375983Y50076502D01*
X8926657Y49776272D01*
X8636000Y49341273D01*
X8345343Y49776272D01*
X7896017Y50076502D01*
X7366000Y50181929D01*
X6835983Y50076502D01*
X6386657Y49776272D01*
X6096000Y49341273D01*
X5805343Y49776272D01*
X5356017Y50076502D01*
X4826000Y50181929D01*
X4295983Y50076502D01*
X3846657Y49776272D01*
X3608038Y49419154D01*
X3478427Y49732838D01*
X2746690Y50465853D01*
X1790140Y50863047D01*
X754404Y50863951D01*
X-202838Y50468427D01*
X-935853Y49736690D01*
X-1333047Y48780140D01*
X-1333951Y47744404D01*
X-938427Y46787162D01*
X-206690Y46054147D01*
X749860Y45656953D01*
X1785596Y45656049D01*
X2742838Y46051573D01*
X3475853Y46783310D01*
X3607833Y47101153D01*
X3846657Y46743728D01*
X4295983Y46443498D01*
X4743453Y46354491D01*
X-2868795Y38742244D01*
X-3060638Y38455129D01*
X-3060638Y38455128D01*
X-3128006Y38116454D01*
X-3128005Y38116449D01*
X-3128005Y10436221D01*
X-3416466Y10148262D01*
X-3627764Y9639400D01*
X-3628245Y9088413D01*
X-3417836Y8579183D01*
X-3028569Y8189237D01*
X-2519707Y7977939D01*
X-1968720Y7977458D01*
X-1459490Y8187867D01*
X-1069544Y8577134D01*
X-858246Y9085996D01*
X-857765Y9636983D01*
X-1068174Y10146213D01*
X-1358005Y10436550D01*
X-1358005Y13994334D01*
X-926702Y13815241D01*
X-375715Y13814760D01*
X133515Y14025169D01*
X523461Y14414436D01*
X734759Y14923298D01*
X735240Y15474285D01*
X524831Y15983515D01*
X135564Y16373461D01*
X-165000Y16498266D01*
X-165000Y37433420D01*
X3960500Y41558921D01*
X3960500Y38630023D01*
X3672039Y38342064D01*
X3460741Y37833202D01*
X3460260Y37282215D01*
X3670669Y36772985D01*
X4059936Y36383039D01*
X4568798Y36171741D01*
X5119785Y36171260D01*
X5629015Y36381669D01*
X6018961Y36770936D01*
X6230259Y37279798D01*
X6230740Y37830785D01*
X6020331Y38340015D01*
X5730500Y38630352D01*
X5730500Y41253920D01*
X7033209Y42556629D01*
X7041343Y42515735D01*
X7181691Y42305691D01*
X7391735Y42165343D01*
X7639500Y42116060D01*
X9671500Y42116060D01*
X9919265Y42165343D01*
X10129309Y42305691D01*
X10179500Y42380807D01*
X10229691Y42305691D01*
X10439735Y42165343D01*
X10687500Y42116060D01*
X12719500Y42116060D01*
X12967265Y42165343D01*
X13177309Y42305691D01*
X13317657Y42515735D01*
X13342474Y42640500D01*
X21575495Y42640500D01*
X21575500Y42640499D01*
X21600641Y42645500D01*
X25484469Y42645500D01*
X25772428Y42357039D01*
X26281290Y42145741D01*
X26832277Y42145260D01*
X27341507Y42355669D01*
X27731453Y42744936D01*
X27942751Y43253798D01*
X27943150Y43711270D01*
X29765000Y41889421D01*
X29765000Y40273523D01*
X29476539Y39985564D01*
X29392440Y39783031D01*
X29392440Y39919000D01*
X29343157Y40166765D01*
X29202809Y40376809D01*
X28992765Y40517157D01*
X28745000Y40566440D01*
X27221000Y40566440D01*
X26973235Y40517157D01*
X26763191Y40376809D01*
X26622843Y40166765D01*
X26573560Y39919000D01*
X26573560Y38828692D01*
X26090440Y38345572D01*
X26090440Y39919000D01*
X26041157Y40166765D01*
X25900809Y40376809D01*
X25690765Y40517157D01*
X25443000Y40566440D01*
X23919000Y40566440D01*
X23671235Y40517157D01*
X23461191Y40376809D01*
X23320843Y40166765D01*
X23288073Y40002017D01*
X23258587Y40150255D01*
X23118239Y40360299D01*
X22908195Y40500647D01*
X22660430Y40549930D01*
X20859570Y40549930D01*
X20611805Y40500647D01*
X20401761Y40360299D01*
X20261413Y40150255D01*
X20212130Y39902490D01*
X20212130Y37903510D01*
X20261413Y37655745D01*
X20401761Y37445701D01*
X20611805Y37305353D01*
X20859570Y37256070D01*
X22660430Y37256070D01*
X22908195Y37305353D01*
X23118239Y37445701D01*
X23258587Y37655745D01*
X23288073Y37803983D01*
X23320843Y37639235D01*
X23461191Y37429191D01*
X23671235Y37288843D01*
X23919000Y37239560D01*
X24079428Y37239560D01*
X24075843Y37235975D01*
X23722205Y37236284D01*
X23121057Y36987894D01*
X22660722Y36528363D01*
X22643131Y36486000D01*
X19851000Y36486000D01*
X19512325Y36418633D01*
X19225210Y36226790D01*
X19225208Y36226787D01*
X17933810Y34935390D01*
X17741967Y34648275D01*
X17741017Y34643500D01*
X17674599Y34309600D01*
X17674600Y34309595D01*
X17674600Y31659930D01*
X17659170Y31659930D01*
X17635000Y31655122D01*
X17635000Y35227330D01*
X19185387Y36777718D01*
X19185390Y36777720D01*
X19377233Y37064835D01*
X19411337Y37236284D01*
X19415273Y37256070D01*
X19460030Y37256070D01*
X19707795Y37305353D01*
X19917839Y37445701D01*
X20058187Y37655745D01*
X20107470Y37903510D01*
X20107470Y39902490D01*
X20058187Y40150255D01*
X19917839Y40360299D01*
X19707795Y40500647D01*
X19460030Y40549930D01*
X17659170Y40549930D01*
X17411405Y40500647D01*
X17201361Y40360299D01*
X17061013Y40150255D01*
X17011730Y39902490D01*
X17011730Y37903510D01*
X17061013Y37655745D01*
X17201361Y37445701D01*
X17290590Y37386080D01*
X16124210Y36219700D01*
X15932367Y35932585D01*
X15926184Y35901500D01*
X15864999Y35593910D01*
X15865000Y35593905D01*
X15865000Y33993546D01*
X15767500Y34012940D01*
X15636500Y34012940D01*
X15636500Y35016495D01*
X15636501Y35016500D01*
X15569133Y35355174D01*
X15569133Y35355175D01*
X15377290Y35642290D01*
X15377287Y35642292D01*
X14615290Y36404290D01*
X14593824Y36418633D01*
X14328175Y36596133D01*
X14271984Y36607310D01*
X13989500Y36663501D01*
X13989495Y36663500D01*
X11114561Y36663500D01*
X11096439Y36690620D01*
X11586660Y36690620D01*
X11834425Y36739903D01*
X12044469Y36880251D01*
X12184817Y37090295D01*
X12234100Y37338060D01*
X12234100Y37648321D01*
X12329287Y37743508D01*
X12329290Y37743510D01*
X12521133Y38030625D01*
X12533211Y38091343D01*
X12588501Y38369300D01*
X12588500Y38369305D01*
X12588500Y38814060D01*
X12719500Y38814060D01*
X12967265Y38863343D01*
X13177309Y39003691D01*
X13317657Y39213735D01*
X13366940Y39461500D01*
X13366940Y40985500D01*
X13317657Y41233265D01*
X13177309Y41443309D01*
X12967265Y41583657D01*
X12719500Y41632940D01*
X10687500Y41632940D01*
X10439735Y41583657D01*
X10229691Y41443309D01*
X10089343Y41233265D01*
X10040060Y40985500D01*
X10040060Y39461500D01*
X10089343Y39213735D01*
X10229691Y39003691D01*
X10439735Y38863343D01*
X10464104Y38858496D01*
X10424495Y38850617D01*
X10214451Y38710269D01*
X10074103Y38500225D01*
X10024820Y38252460D01*
X10024820Y37338060D01*
X10074103Y37090295D01*
X10212521Y36883140D01*
X9722300Y36883140D01*
X9474535Y36833857D01*
X9264491Y36693509D01*
X9124143Y36483465D01*
X9074860Y36235700D01*
X9074860Y35321300D01*
X9124143Y35073535D01*
X9264491Y34863491D01*
X9294500Y34843439D01*
X9294500Y34405202D01*
X9250715Y34405240D01*
X8741485Y34194831D01*
X8719887Y34173271D01*
X8175079Y34718079D01*
X7920407Y34888245D01*
X7620000Y34948000D01*
X3690865Y34948000D01*
X3646157Y35172765D01*
X3505809Y35382809D01*
X3295765Y35523157D01*
X3048000Y35572440D01*
X1016000Y35572440D01*
X768235Y35523157D01*
X558191Y35382809D01*
X417843Y35172765D01*
X368560Y34925000D01*
X368560Y33401000D01*
X417843Y33153235D01*
X558191Y32943191D01*
X768235Y32802843D01*
X1016000Y32753560D01*
X3048000Y32753560D01*
X3295765Y32802843D01*
X3505809Y32943191D01*
X3646157Y33153235D01*
X3690865Y33378000D01*
X5655035Y33378000D01*
X5268222Y32991863D01*
X5018784Y32391148D01*
X5018216Y31740705D01*
X5266606Y31139557D01*
X5611259Y30794301D01*
X5268222Y30451863D01*
X5018784Y29851148D01*
X5018216Y29200705D01*
X5266606Y28599557D01*
X5611259Y28254301D01*
X5268222Y27911863D01*
X5018784Y27311148D01*
X5018216Y26660705D01*
X5266606Y26059557D01*
X5726137Y25599222D01*
X6326852Y25349784D01*
X6977295Y25349216D01*
X7578443Y25597606D01*
X7889628Y25908247D01*
X7778741Y25641202D01*
X7778260Y25090215D01*
X7988669Y24580985D01*
X8028500Y24541085D01*
X8028500Y22841358D01*
X7580863Y23289778D01*
X6980148Y23539216D01*
X6329705Y23539784D01*
X5728557Y23291394D01*
X5268222Y22831863D01*
X5018784Y22231148D01*
X5018216Y21580705D01*
X5266606Y20979557D01*
X5611259Y20634301D01*
X5268222Y20291863D01*
X5018784Y19691148D01*
X5018216Y19040705D01*
X5266606Y18439557D01*
X5611259Y18094301D01*
X5268222Y17751863D01*
X5018784Y17151148D01*
X5018216Y16500705D01*
X5266606Y15899557D01*
X5726137Y15439222D01*
X6326852Y15189784D01*
X6977295Y15189216D01*
X7578443Y15437606D01*
X8028500Y15886877D01*
X8028500Y11185888D01*
X7663064Y11551961D01*
X7154202Y11763259D01*
X6743962Y11763617D01*
X6000940Y12506640D01*
X6000940Y13172500D01*
X5951657Y13420265D01*
X5811309Y13630309D01*
X5601265Y13770657D01*
X5353500Y13819940D01*
X3321500Y13819940D01*
X3073735Y13770657D01*
X2863691Y13630309D01*
X2723343Y13420265D01*
X2674060Y13172500D01*
X2674060Y11648500D01*
X2723343Y11400735D01*
X2863691Y11190691D01*
X3073735Y11050343D01*
X3321500Y11001060D01*
X3920650Y11001060D01*
X4037094Y10923255D01*
X4337500Y10863500D01*
X4637906Y10923255D01*
X4754350Y11001060D01*
X5003360Y11001060D01*
X5492616Y10511805D01*
X5492597Y10490272D01*
X5353500Y10517940D01*
X3321500Y10517940D01*
X3073735Y10468657D01*
X2863691Y10328309D01*
X2813500Y10253193D01*
X2763309Y10328309D01*
X2553265Y10468657D01*
X2305500Y10517940D01*
X273500Y10517940D01*
X25735Y10468657D01*
X-184309Y10328309D01*
X-324657Y10118265D01*
X-373940Y9870500D01*
X-373940Y8346500D01*
X-324657Y8098735D01*
X-184309Y7888691D01*
X-25801Y7782778D01*
X-3632219Y4176361D01*
X-3824062Y3889246D01*
X-3824062Y3889245D01*
X-3891430Y3550571D01*
X-3891429Y3550566D01*
X-3891429Y-2055909D01*
X-3891430Y-2055914D01*
X-3839163Y-2318674D01*
X-3824062Y-2394589D01*
X-3632219Y-2681704D01*
X-3227201Y-3086721D01*
X-3227557Y-3494311D01*
X-3017148Y-4003541D01*
X-2627881Y-4393487D01*
X-2119019Y-4604785D01*
X-1568032Y-4605266D01*
X-1058802Y-4394857D01*
X-668856Y-4005590D01*
X-457558Y-3496728D01*
X-457077Y-2945741D01*
X-614940Y-2563683D01*
X-520140Y-2603047D01*
X515596Y-2603951D01*
X1472838Y-2208427D01*
X1574955Y-2106488D01*
X1487867Y-2236825D01*
X1487867Y-2236826D01*
X1420499Y-2575500D01*
X1420500Y-2575505D01*
X1420500Y-3984526D01*
X1295735Y-4009343D01*
X1085691Y-4149691D01*
X945343Y-4359735D01*
X896060Y-4607500D01*
X896060Y-6639500D01*
X945343Y-6887265D01*
X947170Y-6890000D01*
X-4123000Y-6890000D01*
X-4123000Y56190000D01*
X38057674Y56190000D01*
X37877222Y56009863D01*
G36*
X51047434Y-6802566D02*
X51178288Y-6890000D01*
X42975270Y-6890000D01*
X43187778Y-6677863D01*
X43437216Y-6077148D01*
X43437784Y-5426705D01*
X43189394Y-4825557D01*
X43148918Y-4785010D01*
X49029878Y-4785010D01*
X51047434Y-6802566D01*
X51047434Y-6802566D01*
G37*
X51047434Y-6802566D02*
X51178288Y-6890000D01*
X42975270Y-6890000D01*
X43187778Y-6677863D01*
X43437216Y-6077148D01*
X43437784Y-5426705D01*
X43189394Y-4825557D01*
X43148918Y-4785010D01*
X49029878Y-4785010D01*
X51047434Y-6802566D01*
G36*
X52764760Y36525715D02*
X52975169Y36016485D01*
X53364436Y35626539D01*
X53873298Y35415241D01*
X54213424Y35414944D01*
X57087201Y32541167D01*
X56752557Y32402894D01*
X56292222Y31943363D01*
X56042784Y31342648D01*
X56042216Y30692205D01*
X56290606Y30091057D01*
X56750137Y29630722D01*
X57350852Y29381284D01*
X58001295Y29380716D01*
X58602443Y29629106D01*
X58947699Y29973759D01*
X59290137Y29630722D01*
X59890852Y29381284D01*
X60541295Y29380716D01*
X61142443Y29629106D01*
X61304834Y29791213D01*
X61304834Y27210792D01*
X61126702Y27284759D01*
X60575715Y27285240D01*
X60066485Y27074831D01*
X59676539Y26685564D01*
X59537942Y26351785D01*
X59524831Y26383515D01*
X59135564Y26773461D01*
X58626702Y26984759D01*
X58075715Y26985240D01*
X57566485Y26774831D01*
X57276148Y26485000D01*
X57101095Y26485000D01*
X56992309Y26647809D01*
X56782265Y26788157D01*
X56534500Y26837440D01*
X54502500Y26837440D01*
X54254735Y26788157D01*
X54044691Y26647809D01*
X53904343Y26437765D01*
X53855060Y26190000D01*
X53855060Y24666000D01*
X53904343Y24418235D01*
X54044691Y24208191D01*
X54254735Y24067843D01*
X54502500Y24018560D01*
X56534500Y24018560D01*
X56782265Y24067843D01*
X56992309Y24208191D01*
X57132657Y24418235D01*
X57181940Y24666000D01*
X57181940Y24715000D01*
X57276477Y24715000D01*
X57465000Y24526148D01*
X57465000Y24356291D01*
X57283191Y24234809D01*
X57142843Y24024765D01*
X57093560Y23777000D01*
X57093560Y23194277D01*
X56992309Y23345809D01*
X56782265Y23486157D01*
X56534500Y23535440D01*
X54502500Y23535440D01*
X54254735Y23486157D01*
X54044691Y23345809D01*
X53904343Y23135765D01*
X53855060Y22888000D01*
X53855060Y21364000D01*
X53904343Y21116235D01*
X54044691Y20906191D01*
X54254735Y20765843D01*
X54502500Y20716560D01*
X56534500Y20716560D01*
X56782265Y20765843D01*
X56992309Y20906191D01*
X56996483Y20912438D01*
X57160192Y20748729D01*
X57142843Y20722765D01*
X57093560Y20475000D01*
X57093560Y18951000D01*
X57142843Y18703235D01*
X57283191Y18493191D01*
X57493235Y18352843D01*
X57581743Y18335238D01*
X57372241Y17830702D01*
X57371760Y17279715D01*
X57582169Y16770485D01*
X57872000Y16480148D01*
X57872000Y6744579D01*
X53500920Y2373500D01*
X51694079Y2373500D01*
X51590662Y2476917D01*
X52585596Y2476049D01*
X53542838Y2871573D01*
X54275853Y3603310D01*
X54673047Y4559860D01*
X54673951Y5595596D01*
X54278427Y6552838D01*
X53546690Y7285853D01*
X52590140Y7683047D01*
X51554404Y7683951D01*
X50597162Y7288427D01*
X49864147Y6556690D01*
X49466953Y5600140D01*
X49466049Y4564404D01*
X49861573Y3607162D01*
X50361743Y3106118D01*
X47571123Y3106118D01*
X47571118Y3106119D01*
X47288634Y3049928D01*
X47232443Y3038751D01*
X46945328Y2846908D01*
X46945326Y2846905D01*
X46364210Y2265790D01*
X46172367Y1978675D01*
X46172367Y1978674D01*
X46104999Y1640000D01*
X46105000Y1639995D01*
X46105000Y1579310D01*
X46010657Y1516272D01*
X45720000Y1081273D01*
X45429343Y1516272D01*
X44980017Y1816502D01*
X44450000Y1921929D01*
X43919983Y1816502D01*
X43470657Y1516272D01*
X43180000Y1081273D01*
X42889343Y1516272D01*
X42440017Y1816502D01*
X42369428Y1830543D01*
X42431265Y1842843D01*
X42641309Y1983191D01*
X42781657Y2193235D01*
X42830940Y2441000D01*
X42830940Y4473000D01*
X42781657Y4720765D01*
X42641309Y4930809D01*
X42431265Y5071157D01*
X42183500Y5120440D01*
X40659500Y5120440D01*
X40411735Y5071157D01*
X40201691Y4930809D01*
X40061343Y4720765D01*
X40012060Y4473000D01*
X40012060Y3872217D01*
X38814921Y2675079D01*
X38644755Y2420407D01*
X38644755Y2420406D01*
X38585000Y2120000D01*
X38585000Y1646128D01*
X38390657Y1516272D01*
X38100000Y1081273D01*
X37809343Y1516272D01*
X37360017Y1816502D01*
X36994366Y1889234D01*
X42151786Y7046654D01*
X42397823Y7414874D01*
X42429532Y7574285D01*
X42484220Y7849220D01*
X42484220Y8802880D01*
X43349470Y8802880D01*
X43597235Y8852163D01*
X43807279Y8992511D01*
X43947627Y9202555D01*
X43996910Y9450320D01*
X43996910Y11949680D01*
X43947627Y12197445D01*
X43807279Y12407489D01*
X43597235Y12547837D01*
X43349470Y12597120D01*
X39348970Y12597120D01*
X39101205Y12547837D01*
X38891161Y12407489D01*
X38750813Y12197445D01*
X38701530Y11949680D01*
X38701530Y9450320D01*
X38750813Y9202555D01*
X38891161Y8992511D01*
X39101205Y8852163D01*
X39348970Y8802880D01*
X40214220Y8802880D01*
X40214220Y8319352D01*
X33029868Y1135000D01*
X32984101Y1135000D01*
X32729343Y1516272D01*
X32280017Y1816502D01*
X31750000Y1921929D01*
X31219983Y1816502D01*
X30770657Y1516272D01*
X30470427Y1066946D01*
X30365000Y536929D01*
X30365000Y-2600000D01*
X30470427Y-3130017D01*
X30624194Y-3360145D01*
X30675169Y-3483515D01*
X30770307Y-3578818D01*
X30770657Y-3579343D01*
X30870089Y-3678775D01*
X31064436Y-3873461D01*
X31573298Y-4084759D01*
X32124285Y-4085240D01*
X32633515Y-3874831D01*
X33023461Y-3485564D01*
X33234759Y-2976702D01*
X33235240Y-2425715D01*
X33135000Y-2183115D01*
X33135000Y-1135000D01*
X33500000Y-1135000D01*
X33934346Y-1048603D01*
X34302566Y-802566D01*
X35445000Y339868D01*
X35445000Y-536929D01*
X35550427Y-1066946D01*
X35850657Y-1516272D01*
X35945000Y-1579310D01*
X35945000Y-1979995D01*
X35944999Y-1980000D01*
X35988842Y-2200407D01*
X36012367Y-2318675D01*
X36089733Y-2434462D01*
X36143553Y-2515010D01*
X35330490Y-2515010D01*
X34896144Y-2601407D01*
X34585907Y-2808701D01*
X34527924Y-2847444D01*
X33073561Y-4301807D01*
X33019215Y-4301760D01*
X32509985Y-4512169D01*
X32470085Y-4552000D01*
X19807133Y-4552000D01*
X17885000Y-2629868D01*
X17885000Y-1238417D01*
X18070657Y-1516272D01*
X18519983Y-1816502D01*
X19050000Y-1921929D01*
X19580017Y-1816502D01*
X20029343Y-1516272D01*
X20320000Y-1081273D01*
X20610657Y-1516272D01*
X21059983Y-1816502D01*
X21590000Y-1921929D01*
X22120017Y-1816502D01*
X22569343Y-1516272D01*
X22860000Y-1081273D01*
X23150657Y-1516272D01*
X23599983Y-1816502D01*
X24130000Y-1921929D01*
X24660017Y-1816502D01*
X25109343Y-1516272D01*
X25409573Y-1066946D01*
X25515000Y-536929D01*
X25515000Y536929D01*
X25409573Y1066946D01*
X25109343Y1516272D01*
X24660017Y1816502D01*
X24130000Y1921929D01*
X23599983Y1816502D01*
X23150657Y1516272D01*
X22860000Y1081273D01*
X22569343Y1516272D01*
X22120017Y1816502D01*
X21590000Y1921929D01*
X21059983Y1816502D01*
X20610657Y1516272D01*
X20320000Y1081273D01*
X20029343Y1516272D01*
X19580017Y1816502D01*
X19050000Y1921929D01*
X18519983Y1816502D01*
X18070657Y1516272D01*
X17885000Y1238417D01*
X17885000Y1572971D01*
X17798603Y2007317D01*
X17552566Y2375537D01*
X15034694Y4893409D01*
X31488336Y4893409D01*
X31488341Y4893408D01*
X31770825Y4949599D01*
X31827016Y4960776D01*
X32114131Y5152619D01*
X35775787Y8814276D01*
X35775790Y8814278D01*
X35967633Y9101393D01*
X35985470Y9191064D01*
X36035001Y9440068D01*
X36035000Y9440073D01*
X36035000Y19133420D01*
X37916579Y21015000D01*
X42539960Y21015000D01*
X42539965Y21014999D01*
X42832338Y21073157D01*
X42878640Y21082367D01*
X43165755Y21274210D01*
X43165756Y21274211D01*
X46165000Y24273456D01*
X46165000Y8373523D01*
X45876539Y8085564D01*
X45665241Y7576702D01*
X45664760Y7025715D01*
X45875169Y6516485D01*
X46264436Y6126539D01*
X46773298Y5915241D01*
X47324285Y5914760D01*
X47833515Y6125169D01*
X48223461Y6514436D01*
X48434759Y7023298D01*
X48435240Y7574285D01*
X48224831Y8083515D01*
X47935000Y8373852D01*
X47935000Y26444000D01*
X47971009Y26444000D01*
X48076436Y25913983D01*
X48376666Y25464657D01*
X48811665Y25174000D01*
X48376666Y24883343D01*
X48076436Y24434017D01*
X47971009Y23904000D01*
X48076436Y23373983D01*
X48376666Y22924657D01*
X48811665Y22634000D01*
X48376666Y22343343D01*
X48076436Y21894017D01*
X47971009Y21364000D01*
X48076436Y20833983D01*
X48376666Y20384657D01*
X48825992Y20084427D01*
X49356009Y19979000D01*
X50123991Y19979000D01*
X50654008Y20084427D01*
X51103334Y20384657D01*
X51403564Y20833983D01*
X51508991Y21364000D01*
X51403564Y21894017D01*
X51103334Y22343343D01*
X50668335Y22634000D01*
X51103334Y22924657D01*
X51403564Y23373983D01*
X51508991Y23904000D01*
X51403564Y24434017D01*
X51103334Y24883343D01*
X50668335Y25174000D01*
X51103334Y25464657D01*
X51403564Y25913983D01*
X51508991Y26444000D01*
X51403564Y26974017D01*
X51103334Y27423343D01*
X50654008Y27723573D01*
X50123991Y27829000D01*
X49356009Y27829000D01*
X48825992Y27723573D01*
X48376666Y27423343D01*
X48076436Y26974017D01*
X47971009Y26444000D01*
X47935000Y26444000D01*
X47935000Y32150420D01*
X49567952Y33783372D01*
X49466953Y33540140D01*
X49466049Y32504404D01*
X49861573Y31547162D01*
X50593310Y30814147D01*
X51549860Y30416953D01*
X52585596Y30416049D01*
X53542838Y30811573D01*
X54275853Y31543310D01*
X54673047Y32499860D01*
X54673951Y33535596D01*
X54278427Y34492838D01*
X53546690Y35225853D01*
X52590140Y35623047D01*
X51554404Y35623951D01*
X51305816Y35521237D01*
X52765157Y36980578D01*
X52764760Y36525715D01*
X52764760Y36525715D01*
G37*
X52764760Y36525715D02*
X52975169Y36016485D01*
X53364436Y35626539D01*
X53873298Y35415241D01*
X54213424Y35414944D01*
X57087201Y32541167D01*
X56752557Y32402894D01*
X56292222Y31943363D01*
X56042784Y31342648D01*
X56042216Y30692205D01*
X56290606Y30091057D01*
X56750137Y29630722D01*
X57350852Y29381284D01*
X58001295Y29380716D01*
X58602443Y29629106D01*
X58947699Y29973759D01*
X59290137Y29630722D01*
X59890852Y29381284D01*
X60541295Y29380716D01*
X61142443Y29629106D01*
X61304834Y29791213D01*
X61304834Y27210792D01*
X61126702Y27284759D01*
X60575715Y27285240D01*
X60066485Y27074831D01*
X59676539Y26685564D01*
X59537942Y26351785D01*
X59524831Y26383515D01*
X59135564Y26773461D01*
X58626702Y26984759D01*
X58075715Y26985240D01*
X57566485Y26774831D01*
X57276148Y26485000D01*
X57101095Y26485000D01*
X56992309Y26647809D01*
X56782265Y26788157D01*
X56534500Y26837440D01*
X54502500Y26837440D01*
X54254735Y26788157D01*
X54044691Y26647809D01*
X53904343Y26437765D01*
X53855060Y26190000D01*
X53855060Y24666000D01*
X53904343Y24418235D01*
X54044691Y24208191D01*
X54254735Y24067843D01*
X54502500Y24018560D01*
X56534500Y24018560D01*
X56782265Y24067843D01*
X56992309Y24208191D01*
X57132657Y24418235D01*
X57181940Y24666000D01*
X57181940Y24715000D01*
X57276477Y24715000D01*
X57465000Y24526148D01*
X57465000Y24356291D01*
X57283191Y24234809D01*
X57142843Y24024765D01*
X57093560Y23777000D01*
X57093560Y23194277D01*
X56992309Y23345809D01*
X56782265Y23486157D01*
X56534500Y23535440D01*
X54502500Y23535440D01*
X54254735Y23486157D01*
X54044691Y23345809D01*
X53904343Y23135765D01*
X53855060Y22888000D01*
X53855060Y21364000D01*
X53904343Y21116235D01*
X54044691Y20906191D01*
X54254735Y20765843D01*
X54502500Y20716560D01*
X56534500Y20716560D01*
X56782265Y20765843D01*
X56992309Y20906191D01*
X56996483Y20912438D01*
X57160192Y20748729D01*
X57142843Y20722765D01*
X57093560Y20475000D01*
X57093560Y18951000D01*
X57142843Y18703235D01*
X57283191Y18493191D01*
X57493235Y18352843D01*
X57581743Y18335238D01*
X57372241Y17830702D01*
X57371760Y17279715D01*
X57582169Y16770485D01*
X57872000Y16480148D01*
X57872000Y6744579D01*
X53500920Y2373500D01*
X51694079Y2373500D01*
X51590662Y2476917D01*
X52585596Y2476049D01*
X53542838Y2871573D01*
X54275853Y3603310D01*
X54673047Y4559860D01*
X54673951Y5595596D01*
X54278427Y6552838D01*
X53546690Y7285853D01*
X52590140Y7683047D01*
X51554404Y7683951D01*
X50597162Y7288427D01*
X49864147Y6556690D01*
X49466953Y5600140D01*
X49466049Y4564404D01*
X49861573Y3607162D01*
X50361743Y3106118D01*
X47571123Y3106118D01*
X47571118Y3106119D01*
X47288634Y3049928D01*
X47232443Y3038751D01*
X46945328Y2846908D01*
X46945326Y2846905D01*
X46364210Y2265790D01*
X46172367Y1978675D01*
X46172367Y1978674D01*
X46104999Y1640000D01*
X46105000Y1639995D01*
X46105000Y1579310D01*
X46010657Y1516272D01*
X45720000Y1081273D01*
X45429343Y1516272D01*
X44980017Y1816502D01*
X44450000Y1921929D01*
X43919983Y1816502D01*
X43470657Y1516272D01*
X43180000Y1081273D01*
X42889343Y1516272D01*
X42440017Y1816502D01*
X42369428Y1830543D01*
X42431265Y1842843D01*
X42641309Y1983191D01*
X42781657Y2193235D01*
X42830940Y2441000D01*
X42830940Y4473000D01*
X42781657Y4720765D01*
X42641309Y4930809D01*
X42431265Y5071157D01*
X42183500Y5120440D01*
X40659500Y5120440D01*
X40411735Y5071157D01*
X40201691Y4930809D01*
X40061343Y4720765D01*
X40012060Y4473000D01*
X40012060Y3872217D01*
X38814921Y2675079D01*
X38644755Y2420407D01*
X38644755Y2420406D01*
X38585000Y2120000D01*
X38585000Y1646128D01*
X38390657Y1516272D01*
X38100000Y1081273D01*
X37809343Y1516272D01*
X37360017Y1816502D01*
X36994366Y1889234D01*
X42151786Y7046654D01*
X42397823Y7414874D01*
X42429532Y7574285D01*
X42484220Y7849220D01*
X42484220Y8802880D01*
X43349470Y8802880D01*
X43597235Y8852163D01*
X43807279Y8992511D01*
X43947627Y9202555D01*
X43996910Y9450320D01*
X43996910Y11949680D01*
X43947627Y12197445D01*
X43807279Y12407489D01*
X43597235Y12547837D01*
X43349470Y12597120D01*
X39348970Y12597120D01*
X39101205Y12547837D01*
X38891161Y12407489D01*
X38750813Y12197445D01*
X38701530Y11949680D01*
X38701530Y9450320D01*
X38750813Y9202555D01*
X38891161Y8992511D01*
X39101205Y8852163D01*
X39348970Y8802880D01*
X40214220Y8802880D01*
X40214220Y8319352D01*
X33029868Y1135000D01*
X32984101Y1135000D01*
X32729343Y1516272D01*
X32280017Y1816502D01*
X31750000Y1921929D01*
X31219983Y1816502D01*
X30770657Y1516272D01*
X30470427Y1066946D01*
X30365000Y536929D01*
X30365000Y-2600000D01*
X30470427Y-3130017D01*
X30624194Y-3360145D01*
X30675169Y-3483515D01*
X30770307Y-3578818D01*
X30770657Y-3579343D01*
X30870089Y-3678775D01*
X31064436Y-3873461D01*
X31573298Y-4084759D01*
X32124285Y-4085240D01*
X32633515Y-3874831D01*
X33023461Y-3485564D01*
X33234759Y-2976702D01*
X33235240Y-2425715D01*
X33135000Y-2183115D01*
X33135000Y-1135000D01*
X33500000Y-1135000D01*
X33934346Y-1048603D01*
X34302566Y-802566D01*
X35445000Y339868D01*
X35445000Y-536929D01*
X35550427Y-1066946D01*
X35850657Y-1516272D01*
X35945000Y-1579310D01*
X35945000Y-1979995D01*
X35944999Y-1980000D01*
X35988842Y-2200407D01*
X36012367Y-2318675D01*
X36089733Y-2434462D01*
X36143553Y-2515010D01*
X35330490Y-2515010D01*
X34896144Y-2601407D01*
X34585907Y-2808701D01*
X34527924Y-2847444D01*
X33073561Y-4301807D01*
X33019215Y-4301760D01*
X32509985Y-4512169D01*
X32470085Y-4552000D01*
X19807133Y-4552000D01*
X17885000Y-2629868D01*
X17885000Y-1238417D01*
X18070657Y-1516272D01*
X18519983Y-1816502D01*
X19050000Y-1921929D01*
X19580017Y-1816502D01*
X20029343Y-1516272D01*
X20320000Y-1081273D01*
X20610657Y-1516272D01*
X21059983Y-1816502D01*
X21590000Y-1921929D01*
X22120017Y-1816502D01*
X22569343Y-1516272D01*
X22860000Y-1081273D01*
X23150657Y-1516272D01*
X23599983Y-1816502D01*
X24130000Y-1921929D01*
X24660017Y-1816502D01*
X25109343Y-1516272D01*
X25409573Y-1066946D01*
X25515000Y-536929D01*
X25515000Y536929D01*
X25409573Y1066946D01*
X25109343Y1516272D01*
X24660017Y1816502D01*
X24130000Y1921929D01*
X23599983Y1816502D01*
X23150657Y1516272D01*
X22860000Y1081273D01*
X22569343Y1516272D01*
X22120017Y1816502D01*
X21590000Y1921929D01*
X21059983Y1816502D01*
X20610657Y1516272D01*
X20320000Y1081273D01*
X20029343Y1516272D01*
X19580017Y1816502D01*
X19050000Y1921929D01*
X18519983Y1816502D01*
X18070657Y1516272D01*
X17885000Y1238417D01*
X17885000Y1572971D01*
X17798603Y2007317D01*
X17552566Y2375537D01*
X15034694Y4893409D01*
X31488336Y4893409D01*
X31488341Y4893408D01*
X31770825Y4949599D01*
X31827016Y4960776D01*
X32114131Y5152619D01*
X35775787Y8814276D01*
X35775790Y8814278D01*
X35967633Y9101393D01*
X35985470Y9191064D01*
X36035001Y9440068D01*
X36035000Y9440073D01*
X36035000Y19133420D01*
X37916579Y21015000D01*
X42539960Y21015000D01*
X42539965Y21014999D01*
X42832338Y21073157D01*
X42878640Y21082367D01*
X43165755Y21274210D01*
X43165756Y21274211D01*
X46165000Y24273456D01*
X46165000Y8373523D01*
X45876539Y8085564D01*
X45665241Y7576702D01*
X45664760Y7025715D01*
X45875169Y6516485D01*
X46264436Y6126539D01*
X46773298Y5915241D01*
X47324285Y5914760D01*
X47833515Y6125169D01*
X48223461Y6514436D01*
X48434759Y7023298D01*
X48435240Y7574285D01*
X48224831Y8083515D01*
X47935000Y8373852D01*
X47935000Y26444000D01*
X47971009Y26444000D01*
X48076436Y25913983D01*
X48376666Y25464657D01*
X48811665Y25174000D01*
X48376666Y24883343D01*
X48076436Y24434017D01*
X47971009Y23904000D01*
X48076436Y23373983D01*
X48376666Y22924657D01*
X48811665Y22634000D01*
X48376666Y22343343D01*
X48076436Y21894017D01*
X47971009Y21364000D01*
X48076436Y20833983D01*
X48376666Y20384657D01*
X48825992Y20084427D01*
X49356009Y19979000D01*
X50123991Y19979000D01*
X50654008Y20084427D01*
X51103334Y20384657D01*
X51403564Y20833983D01*
X51508991Y21364000D01*
X51403564Y21894017D01*
X51103334Y22343343D01*
X50668335Y22634000D01*
X51103334Y22924657D01*
X51403564Y23373983D01*
X51508991Y23904000D01*
X51403564Y24434017D01*
X51103334Y24883343D01*
X50668335Y25174000D01*
X51103334Y25464657D01*
X51403564Y25913983D01*
X51508991Y26444000D01*
X51403564Y26974017D01*
X51103334Y27423343D01*
X50654008Y27723573D01*
X50123991Y27829000D01*
X49356009Y27829000D01*
X48825992Y27723573D01*
X48376666Y27423343D01*
X48076436Y26974017D01*
X47971009Y26444000D01*
X47935000Y26444000D01*
X47935000Y32150420D01*
X49567952Y33783372D01*
X49466953Y33540140D01*
X49466049Y32504404D01*
X49861573Y31547162D01*
X50593310Y30814147D01*
X51549860Y30416953D01*
X52585596Y30416049D01*
X53542838Y30811573D01*
X54275853Y31543310D01*
X54673047Y32499860D01*
X54673951Y33535596D01*
X54278427Y34492838D01*
X53546690Y35225853D01*
X52590140Y35623047D01*
X51554404Y35623951D01*
X51305816Y35521237D01*
X52765157Y36980578D01*
X52764760Y36525715D01*
G36*
X19404569Y22541946D02*
X21272303Y20674213D01*
X21272305Y20674210D01*
X21506681Y20517606D01*
X21559420Y20482367D01*
X21898095Y20414999D01*
X21898100Y20415000D01*
X34813420Y20415000D01*
X34524210Y20125790D01*
X34332367Y19838675D01*
X34332367Y19838674D01*
X34264999Y19500000D01*
X34265000Y19499995D01*
X34265000Y17598380D01*
X30349750Y17598380D01*
X30101985Y17549097D01*
X29891941Y17408749D01*
X29751593Y17198705D01*
X29747667Y17178965D01*
X29181440Y17745192D01*
X29181440Y18565500D01*
X29132157Y18813265D01*
X28991809Y19023309D01*
X28781765Y19163657D01*
X28534000Y19212940D01*
X27010000Y19212940D01*
X26762235Y19163657D01*
X26552191Y19023309D01*
X26411843Y18813265D01*
X26362560Y18565500D01*
X26362560Y17963139D01*
X25879440Y17480019D01*
X25879440Y18565500D01*
X25830157Y18813265D01*
X25689809Y19023309D01*
X25479765Y19163657D01*
X25232000Y19212940D01*
X23708000Y19212940D01*
X23460235Y19163657D01*
X23250191Y19023309D01*
X23109843Y18813265D01*
X23084230Y18684500D01*
X23069916Y18684500D01*
X23047587Y18796755D01*
X22907239Y19006799D01*
X22697195Y19147147D01*
X22449430Y19196430D01*
X20648570Y19196430D01*
X20400805Y19147147D01*
X20190761Y19006799D01*
X20050413Y18796755D01*
X20001130Y18548990D01*
X20001130Y16550010D01*
X20050413Y16302245D01*
X20190761Y16092201D01*
X20400805Y15951853D01*
X20648570Y15902570D01*
X22449430Y15902570D01*
X22697195Y15951853D01*
X22907239Y16092201D01*
X23047587Y16302245D01*
X23069916Y16414500D01*
X23084230Y16414500D01*
X23109843Y16285735D01*
X23250191Y16075691D01*
X23460235Y15935343D01*
X23708000Y15886060D01*
X24285481Y15886060D01*
X24265063Y15865642D01*
X24225148Y15882216D01*
X23574705Y15882784D01*
X22973557Y15634394D01*
X22513222Y15174863D01*
X22263784Y14574148D01*
X22263216Y13923705D01*
X22511606Y13322557D01*
X22856259Y12977301D01*
X22513222Y12634863D01*
X22495631Y12592500D01*
X21209079Y12592500D01*
X19233600Y14567980D01*
X19233600Y15902570D01*
X19249030Y15902570D01*
X19496795Y15951853D01*
X19706839Y16092201D01*
X19847187Y16302245D01*
X19896470Y16550010D01*
X19896470Y18548990D01*
X19847187Y18796755D01*
X19706839Y19006799D01*
X19496795Y19147147D01*
X19249030Y19196430D01*
X17448170Y19196430D01*
X17200405Y19147147D01*
X16990361Y19006799D01*
X16850013Y18796755D01*
X16800730Y18548990D01*
X16800730Y16550010D01*
X16850013Y16302245D01*
X16990361Y16092201D01*
X17200405Y15951853D01*
X17448170Y15902570D01*
X17463600Y15902570D01*
X17463600Y14201405D01*
X17463599Y14201400D01*
X17499779Y14019515D01*
X17530967Y13862725D01*
X17674510Y13647897D01*
X17722810Y13575610D01*
X20216708Y11081713D01*
X20216710Y11081710D01*
X20331515Y11005000D01*
X20159245Y11005000D01*
X20159240Y11005001D01*
X20159235Y11005000D01*
X20027545Y11005000D01*
X20027540Y11005001D01*
X19688865Y10937633D01*
X19401750Y10745790D01*
X19401748Y10745787D01*
X18708391Y10052430D01*
X17511670Y10052430D01*
X17263905Y10003147D01*
X17053861Y9862799D01*
X16913513Y9652755D01*
X16864230Y9404990D01*
X16864230Y7406010D01*
X16913513Y7158245D01*
X17053861Y6948201D01*
X17263905Y6807853D01*
X17511670Y6758570D01*
X19312530Y6758570D01*
X19560295Y6807853D01*
X19770339Y6948201D01*
X19910687Y7158245D01*
X19959970Y7406010D01*
X19959970Y8800851D01*
X20064630Y8905511D01*
X20064630Y7406010D01*
X20113913Y7158245D01*
X20254261Y6948201D01*
X20464305Y6807853D01*
X20712070Y6758570D01*
X22512930Y6758570D01*
X22760695Y6807853D01*
X22970739Y6948201D01*
X23107598Y7153023D01*
X23109843Y7141735D01*
X23250191Y6931691D01*
X23460235Y6791343D01*
X23708000Y6742060D01*
X25232000Y6742060D01*
X25479765Y6791343D01*
X25689809Y6931691D01*
X25830157Y7141735D01*
X25879440Y7389500D01*
X25879440Y9421500D01*
X25866246Y9487833D01*
X25875790Y9494210D01*
X26475787Y10094208D01*
X26475790Y10094210D01*
X26667633Y10381325D01*
X26671300Y10399759D01*
X26735001Y10720000D01*
X26735000Y10720005D01*
X26735000Y14907368D01*
X27713692Y15886060D01*
X27815000Y15886060D01*
X27815000Y15216547D01*
X27793691Y15202309D01*
X27653343Y14992265D01*
X27604060Y14744500D01*
X27604060Y13855500D01*
X27653343Y13607735D01*
X27793691Y13397691D01*
X27868807Y13347500D01*
X27793691Y13297309D01*
X27653343Y13087265D01*
X27604060Y12839500D01*
X27604060Y11950500D01*
X27653343Y11702735D01*
X27793691Y11492691D01*
X28003735Y11352343D01*
X28065000Y11340157D01*
X28065000Y10068940D01*
X27010000Y10068940D01*
X26762235Y10019657D01*
X26552191Y9879309D01*
X26411843Y9669265D01*
X26362560Y9421500D01*
X26362560Y7389500D01*
X26411843Y7141735D01*
X26552191Y6931691D01*
X26762235Y6791343D01*
X27010000Y6742060D01*
X28534000Y6742060D01*
X28781765Y6791343D01*
X28991809Y6931691D01*
X29132157Y7141735D01*
X29159892Y7281169D01*
X29208936Y7232039D01*
X29717798Y7020741D01*
X30268785Y7020260D01*
X30778015Y7230669D01*
X31167961Y7619936D01*
X31379259Y8128798D01*
X31379740Y8679785D01*
X31328878Y8802880D01*
X33261233Y8802880D01*
X31121761Y6663409D01*
X15400170Y6663409D01*
X12326384Y9737196D01*
X12326740Y10144785D01*
X12116331Y10654015D01*
X11727064Y11043961D01*
X11218202Y11255259D01*
X10667215Y11255740D01*
X10298500Y11103390D01*
X10298500Y14745982D01*
X10346606Y14629557D01*
X10806137Y14169222D01*
X11406852Y13919784D01*
X12057295Y13919216D01*
X12658443Y14167606D01*
X13118778Y14627137D01*
X13368216Y15227852D01*
X13368497Y15549695D01*
X13386235Y15537843D01*
X13634000Y15488560D01*
X15666000Y15488560D01*
X15913765Y15537843D01*
X16123809Y15678191D01*
X16264157Y15888235D01*
X16313440Y16136000D01*
X16313440Y17660000D01*
X16264157Y17907765D01*
X16123809Y18117809D01*
X15913765Y18258157D01*
X15666000Y18307440D01*
X13634000Y18307440D01*
X13386235Y18258157D01*
X13368634Y18246396D01*
X13368784Y18418295D01*
X13120394Y19019443D01*
X12689487Y19451104D01*
X12994875Y19655157D01*
X13295105Y20104483D01*
X13400532Y20634500D01*
X13295105Y21164517D01*
X12994875Y21613843D01*
X12559876Y21904500D01*
X12994875Y22195157D01*
X13088060Y22334618D01*
X13088060Y22062500D01*
X13137343Y21814735D01*
X13277691Y21604691D01*
X13487735Y21464343D01*
X13735500Y21415060D01*
X15767500Y21415060D01*
X16015265Y21464343D01*
X16225309Y21604691D01*
X16365657Y21814735D01*
X16390474Y21939500D01*
X18168464Y21939500D01*
X18168469Y21939499D01*
X18498939Y22005235D01*
X18507144Y22006867D01*
X18794259Y22198710D01*
X19137728Y22542179D01*
X19404569Y22541946D01*
X19404569Y22541946D01*
G37*
X19404569Y22541946D02*
X21272303Y20674213D01*
X21272305Y20674210D01*
X21506681Y20517606D01*
X21559420Y20482367D01*
X21898095Y20414999D01*
X21898100Y20415000D01*
X34813420Y20415000D01*
X34524210Y20125790D01*
X34332367Y19838675D01*
X34332367Y19838674D01*
X34264999Y19500000D01*
X34265000Y19499995D01*
X34265000Y17598380D01*
X30349750Y17598380D01*
X30101985Y17549097D01*
X29891941Y17408749D01*
X29751593Y17198705D01*
X29747667Y17178965D01*
X29181440Y17745192D01*
X29181440Y18565500D01*
X29132157Y18813265D01*
X28991809Y19023309D01*
X28781765Y19163657D01*
X28534000Y19212940D01*
X27010000Y19212940D01*
X26762235Y19163657D01*
X26552191Y19023309D01*
X26411843Y18813265D01*
X26362560Y18565500D01*
X26362560Y17963139D01*
X25879440Y17480019D01*
X25879440Y18565500D01*
X25830157Y18813265D01*
X25689809Y19023309D01*
X25479765Y19163657D01*
X25232000Y19212940D01*
X23708000Y19212940D01*
X23460235Y19163657D01*
X23250191Y19023309D01*
X23109843Y18813265D01*
X23084230Y18684500D01*
X23069916Y18684500D01*
X23047587Y18796755D01*
X22907239Y19006799D01*
X22697195Y19147147D01*
X22449430Y19196430D01*
X20648570Y19196430D01*
X20400805Y19147147D01*
X20190761Y19006799D01*
X20050413Y18796755D01*
X20001130Y18548990D01*
X20001130Y16550010D01*
X20050413Y16302245D01*
X20190761Y16092201D01*
X20400805Y15951853D01*
X20648570Y15902570D01*
X22449430Y15902570D01*
X22697195Y15951853D01*
X22907239Y16092201D01*
X23047587Y16302245D01*
X23069916Y16414500D01*
X23084230Y16414500D01*
X23109843Y16285735D01*
X23250191Y16075691D01*
X23460235Y15935343D01*
X23708000Y15886060D01*
X24285481Y15886060D01*
X24265063Y15865642D01*
X24225148Y15882216D01*
X23574705Y15882784D01*
X22973557Y15634394D01*
X22513222Y15174863D01*
X22263784Y14574148D01*
X22263216Y13923705D01*
X22511606Y13322557D01*
X22856259Y12977301D01*
X22513222Y12634863D01*
X22495631Y12592500D01*
X21209079Y12592500D01*
X19233600Y14567980D01*
X19233600Y15902570D01*
X19249030Y15902570D01*
X19496795Y15951853D01*
X19706839Y16092201D01*
X19847187Y16302245D01*
X19896470Y16550010D01*
X19896470Y18548990D01*
X19847187Y18796755D01*
X19706839Y19006799D01*
X19496795Y19147147D01*
X19249030Y19196430D01*
X17448170Y19196430D01*
X17200405Y19147147D01*
X16990361Y19006799D01*
X16850013Y18796755D01*
X16800730Y18548990D01*
X16800730Y16550010D01*
X16850013Y16302245D01*
X16990361Y16092201D01*
X17200405Y15951853D01*
X17448170Y15902570D01*
X17463600Y15902570D01*
X17463600Y14201405D01*
X17463599Y14201400D01*
X17499779Y14019515D01*
X17530967Y13862725D01*
X17674510Y13647897D01*
X17722810Y13575610D01*
X20216708Y11081713D01*
X20216710Y11081710D01*
X20331515Y11005000D01*
X20159245Y11005000D01*
X20159240Y11005001D01*
X20159235Y11005000D01*
X20027545Y11005000D01*
X20027540Y11005001D01*
X19688865Y10937633D01*
X19401750Y10745790D01*
X19401748Y10745787D01*
X18708391Y10052430D01*
X17511670Y10052430D01*
X17263905Y10003147D01*
X17053861Y9862799D01*
X16913513Y9652755D01*
X16864230Y9404990D01*
X16864230Y7406010D01*
X16913513Y7158245D01*
X17053861Y6948201D01*
X17263905Y6807853D01*
X17511670Y6758570D01*
X19312530Y6758570D01*
X19560295Y6807853D01*
X19770339Y6948201D01*
X19910687Y7158245D01*
X19959970Y7406010D01*
X19959970Y8800851D01*
X20064630Y8905511D01*
X20064630Y7406010D01*
X20113913Y7158245D01*
X20254261Y6948201D01*
X20464305Y6807853D01*
X20712070Y6758570D01*
X22512930Y6758570D01*
X22760695Y6807853D01*
X22970739Y6948201D01*
X23107598Y7153023D01*
X23109843Y7141735D01*
X23250191Y6931691D01*
X23460235Y6791343D01*
X23708000Y6742060D01*
X25232000Y6742060D01*
X25479765Y6791343D01*
X25689809Y6931691D01*
X25830157Y7141735D01*
X25879440Y7389500D01*
X25879440Y9421500D01*
X25866246Y9487833D01*
X25875790Y9494210D01*
X26475787Y10094208D01*
X26475790Y10094210D01*
X26667633Y10381325D01*
X26671300Y10399759D01*
X26735001Y10720000D01*
X26735000Y10720005D01*
X26735000Y14907368D01*
X27713692Y15886060D01*
X27815000Y15886060D01*
X27815000Y15216547D01*
X27793691Y15202309D01*
X27653343Y14992265D01*
X27604060Y14744500D01*
X27604060Y13855500D01*
X27653343Y13607735D01*
X27793691Y13397691D01*
X27868807Y13347500D01*
X27793691Y13297309D01*
X27653343Y13087265D01*
X27604060Y12839500D01*
X27604060Y11950500D01*
X27653343Y11702735D01*
X27793691Y11492691D01*
X28003735Y11352343D01*
X28065000Y11340157D01*
X28065000Y10068940D01*
X27010000Y10068940D01*
X26762235Y10019657D01*
X26552191Y9879309D01*
X26411843Y9669265D01*
X26362560Y9421500D01*
X26362560Y7389500D01*
X26411843Y7141735D01*
X26552191Y6931691D01*
X26762235Y6791343D01*
X27010000Y6742060D01*
X28534000Y6742060D01*
X28781765Y6791343D01*
X28991809Y6931691D01*
X29132157Y7141735D01*
X29159892Y7281169D01*
X29208936Y7232039D01*
X29717798Y7020741D01*
X30268785Y7020260D01*
X30778015Y7230669D01*
X31167961Y7619936D01*
X31379259Y8128798D01*
X31379740Y8679785D01*
X31328878Y8802880D01*
X33261233Y8802880D01*
X31121761Y6663409D01*
X15400170Y6663409D01*
X12326384Y9737196D01*
X12326740Y10144785D01*
X12116331Y10654015D01*
X11727064Y11043961D01*
X11218202Y11255259D01*
X10667215Y11255740D01*
X10298500Y11103390D01*
X10298500Y14745982D01*
X10346606Y14629557D01*
X10806137Y14169222D01*
X11406852Y13919784D01*
X12057295Y13919216D01*
X12658443Y14167606D01*
X13118778Y14627137D01*
X13368216Y15227852D01*
X13368497Y15549695D01*
X13386235Y15537843D01*
X13634000Y15488560D01*
X15666000Y15488560D01*
X15913765Y15537843D01*
X16123809Y15678191D01*
X16264157Y15888235D01*
X16313440Y16136000D01*
X16313440Y17660000D01*
X16264157Y17907765D01*
X16123809Y18117809D01*
X15913765Y18258157D01*
X15666000Y18307440D01*
X13634000Y18307440D01*
X13386235Y18258157D01*
X13368634Y18246396D01*
X13368784Y18418295D01*
X13120394Y19019443D01*
X12689487Y19451104D01*
X12994875Y19655157D01*
X13295105Y20104483D01*
X13400532Y20634500D01*
X13295105Y21164517D01*
X12994875Y21613843D01*
X12559876Y21904500D01*
X12994875Y22195157D01*
X13088060Y22334618D01*
X13088060Y22062500D01*
X13137343Y21814735D01*
X13277691Y21604691D01*
X13487735Y21464343D01*
X13735500Y21415060D01*
X15767500Y21415060D01*
X16015265Y21464343D01*
X16225309Y21604691D01*
X16365657Y21814735D01*
X16390474Y21939500D01*
X18168464Y21939500D01*
X18168469Y21939499D01*
X18498939Y22005235D01*
X18507144Y22006867D01*
X18794259Y22198710D01*
X19137728Y22542179D01*
X19404569Y22541946D01*
G36*
X46010657Y46743728D02*
X46459983Y46443498D01*
X46990000Y46338071D01*
X47132087Y46366334D01*
X47824208Y45674213D01*
X47824210Y45674210D01*
X47952966Y45588178D01*
X47918231Y45564969D01*
X47777883Y45354925D01*
X47728600Y45107160D01*
X47728600Y44796899D01*
X46039140Y43107440D01*
X44215500Y43107440D01*
X43967735Y43058157D01*
X43757691Y42917809D01*
X43617343Y42707765D01*
X43568060Y42460000D01*
X43568060Y40936000D01*
X43617343Y40688235D01*
X43757691Y40478191D01*
X43967735Y40337843D01*
X44215500Y40288560D01*
X46247500Y40288560D01*
X46495265Y40337843D01*
X46705309Y40478191D01*
X46845657Y40688235D01*
X46894940Y40936000D01*
X46894940Y41460080D01*
X48980179Y43545320D01*
X49290440Y43545320D01*
X49538205Y43594603D01*
X49745360Y43733021D01*
X49745360Y43242800D01*
X49794643Y42995035D01*
X49934991Y42784991D01*
X50145035Y42644643D01*
X50392800Y42595360D01*
X50703061Y42595360D01*
X50765000Y42533421D01*
X50765000Y40666579D01*
X44624210Y34525790D01*
X44432367Y34238675D01*
X44432367Y34238674D01*
X44364999Y33900000D01*
X44365000Y33899995D01*
X44365000Y32134479D01*
X44197235Y32246577D01*
X44164114Y32253165D01*
X44234759Y32423298D01*
X44235240Y32974285D01*
X44024831Y33483515D01*
X43635564Y33873461D01*
X43126702Y34084759D01*
X42575715Y34085240D01*
X42066485Y33874831D01*
X41676539Y33485564D01*
X41465241Y32976702D01*
X41465192Y32920324D01*
X41146654Y32601786D01*
X40942241Y32295860D01*
X39948970Y32295860D01*
X39701205Y32246577D01*
X39491161Y32106229D01*
X39350813Y31896185D01*
X39301530Y31648420D01*
X39301530Y29149060D01*
X39350813Y28901295D01*
X39491161Y28691251D01*
X39701205Y28550903D01*
X39948970Y28501620D01*
X43949470Y28501620D01*
X44197235Y28550903D01*
X44365000Y28663001D01*
X44365000Y26666579D01*
X41483420Y23785000D01*
X36450005Y23785000D01*
X36450000Y23785001D01*
X36167516Y23728810D01*
X36111325Y23717633D01*
X35824210Y23525790D01*
X35824208Y23525787D01*
X34483420Y22185000D01*
X22264674Y22185000D01*
X20655916Y23793759D01*
X20656272Y24201348D01*
X20445863Y24710578D01*
X20056596Y25100524D01*
X19547734Y25311822D01*
X18996747Y25312303D01*
X18487517Y25101894D01*
X18097571Y24712627D01*
X17886273Y24203765D01*
X17885915Y23793526D01*
X17801889Y23709500D01*
X16390474Y23709500D01*
X16365657Y23834265D01*
X16225309Y24044309D01*
X16015265Y24184657D01*
X15767500Y24233940D01*
X13735500Y24233940D01*
X13487735Y24184657D01*
X13277691Y24044309D01*
X13172877Y23887445D01*
X12994875Y24153843D01*
X12689068Y24358177D01*
X12910778Y24579500D01*
X14339500Y24579500D01*
X14773846Y24665897D01*
X14850417Y24717060D01*
X15767500Y24717060D01*
X16015265Y24766343D01*
X16225309Y24906691D01*
X16365657Y25116735D01*
X16414940Y25364500D01*
X16414940Y26888500D01*
X16365657Y27136265D01*
X16225309Y27346309D01*
X16015265Y27486657D01*
X15886500Y27512270D01*
X15886500Y27915730D01*
X16015265Y27941343D01*
X16225309Y28081691D01*
X16261927Y28136493D01*
X17224208Y27174213D01*
X17224210Y27174210D01*
X17511325Y26982367D01*
X17553303Y26974017D01*
X17850000Y26914999D01*
X17850005Y26915000D01*
X27412995Y26915000D01*
X27413000Y26914999D01*
X27709697Y26974017D01*
X27751675Y26982367D01*
X28038790Y27174210D01*
X28735787Y27871208D01*
X28735790Y27871210D01*
X28927633Y28158325D01*
X28956029Y28301079D01*
X28969532Y28368960D01*
X29119765Y28398843D01*
X29329809Y28539191D01*
X29470157Y28749235D01*
X29519440Y28997000D01*
X29519440Y31029000D01*
X29470157Y31276765D01*
X29329809Y31486809D01*
X29119765Y31627157D01*
X28971810Y31656587D01*
X28927633Y31878674D01*
X28927633Y31878675D01*
X28780275Y32099213D01*
X29018566Y32258434D01*
X29320132Y32560000D01*
X31245000Y32560000D01*
X31679346Y32646397D01*
X32047566Y32892434D01*
X32658012Y33502880D01*
X34950250Y33502880D01*
X35198015Y33552163D01*
X35408059Y33692511D01*
X35548407Y33902555D01*
X35597690Y34150320D01*
X35597690Y36347178D01*
X36215000Y35729868D01*
X36215000Y32268623D01*
X35597210Y31650832D01*
X35548407Y31896185D01*
X35408059Y32106229D01*
X35198015Y32246577D01*
X34950250Y32295860D01*
X30949750Y32295860D01*
X30701985Y32246577D01*
X30491941Y32106229D01*
X30351593Y31896185D01*
X30302310Y31648420D01*
X30302310Y29149060D01*
X30351593Y28901295D01*
X30491941Y28691251D01*
X30701985Y28550903D01*
X30949750Y28501620D01*
X34950250Y28501620D01*
X35198015Y28550903D01*
X35408059Y28691251D01*
X35548407Y28901295D01*
X35597690Y29149060D01*
X35597690Y29263740D01*
X35950250Y29263740D01*
X36384596Y29350137D01*
X36752816Y29596174D01*
X38152566Y30995923D01*
X38398603Y31364144D01*
X38415749Y31450345D01*
X38485000Y31798490D01*
X38485000Y36200000D01*
X38398603Y36634346D01*
X38152566Y37002566D01*
X36802567Y38352565D01*
X36744187Y38391573D01*
X36434347Y38598602D01*
X36202158Y38644787D01*
X36234759Y38723298D01*
X36235240Y39274285D01*
X36209196Y39337317D01*
X39262983Y42391105D01*
X39670573Y42390749D01*
X40179803Y42601158D01*
X40470140Y42890989D01*
X41225984Y42890989D01*
X41225989Y42890988D01*
X41508473Y42947179D01*
X41564664Y42958356D01*
X41851779Y43150199D01*
X42292140Y43590560D01*
X43466000Y43590560D01*
X43713765Y43639843D01*
X43840750Y43724692D01*
X43967735Y43639843D01*
X44215500Y43590560D01*
X46247500Y43590560D01*
X46495265Y43639843D01*
X46705309Y43780191D01*
X46845657Y43990235D01*
X46894940Y44238000D01*
X46894940Y45762000D01*
X46845657Y46009765D01*
X46705309Y46219809D01*
X46495265Y46360157D01*
X46247500Y46409440D01*
X44808796Y46409440D01*
X44980017Y46443498D01*
X45429343Y46743728D01*
X45720000Y47178727D01*
X46010657Y46743728D01*
X46010657Y46743728D01*
G37*
X46010657Y46743728D02*
X46459983Y46443498D01*
X46990000Y46338071D01*
X47132087Y46366334D01*
X47824208Y45674213D01*
X47824210Y45674210D01*
X47952966Y45588178D01*
X47918231Y45564969D01*
X47777883Y45354925D01*
X47728600Y45107160D01*
X47728600Y44796899D01*
X46039140Y43107440D01*
X44215500Y43107440D01*
X43967735Y43058157D01*
X43757691Y42917809D01*
X43617343Y42707765D01*
X43568060Y42460000D01*
X43568060Y40936000D01*
X43617343Y40688235D01*
X43757691Y40478191D01*
X43967735Y40337843D01*
X44215500Y40288560D01*
X46247500Y40288560D01*
X46495265Y40337843D01*
X46705309Y40478191D01*
X46845657Y40688235D01*
X46894940Y40936000D01*
X46894940Y41460080D01*
X48980179Y43545320D01*
X49290440Y43545320D01*
X49538205Y43594603D01*
X49745360Y43733021D01*
X49745360Y43242800D01*
X49794643Y42995035D01*
X49934991Y42784991D01*
X50145035Y42644643D01*
X50392800Y42595360D01*
X50703061Y42595360D01*
X50765000Y42533421D01*
X50765000Y40666579D01*
X44624210Y34525790D01*
X44432367Y34238675D01*
X44432367Y34238674D01*
X44364999Y33900000D01*
X44365000Y33899995D01*
X44365000Y32134479D01*
X44197235Y32246577D01*
X44164114Y32253165D01*
X44234759Y32423298D01*
X44235240Y32974285D01*
X44024831Y33483515D01*
X43635564Y33873461D01*
X43126702Y34084759D01*
X42575715Y34085240D01*
X42066485Y33874831D01*
X41676539Y33485564D01*
X41465241Y32976702D01*
X41465192Y32920324D01*
X41146654Y32601786D01*
X40942241Y32295860D01*
X39948970Y32295860D01*
X39701205Y32246577D01*
X39491161Y32106229D01*
X39350813Y31896185D01*
X39301530Y31648420D01*
X39301530Y29149060D01*
X39350813Y28901295D01*
X39491161Y28691251D01*
X39701205Y28550903D01*
X39948970Y28501620D01*
X43949470Y28501620D01*
X44197235Y28550903D01*
X44365000Y28663001D01*
X44365000Y26666579D01*
X41483420Y23785000D01*
X36450005Y23785000D01*
X36450000Y23785001D01*
X36167516Y23728810D01*
X36111325Y23717633D01*
X35824210Y23525790D01*
X35824208Y23525787D01*
X34483420Y22185000D01*
X22264674Y22185000D01*
X20655916Y23793759D01*
X20656272Y24201348D01*
X20445863Y24710578D01*
X20056596Y25100524D01*
X19547734Y25311822D01*
X18996747Y25312303D01*
X18487517Y25101894D01*
X18097571Y24712627D01*
X17886273Y24203765D01*
X17885915Y23793526D01*
X17801889Y23709500D01*
X16390474Y23709500D01*
X16365657Y23834265D01*
X16225309Y24044309D01*
X16015265Y24184657D01*
X15767500Y24233940D01*
X13735500Y24233940D01*
X13487735Y24184657D01*
X13277691Y24044309D01*
X13172877Y23887445D01*
X12994875Y24153843D01*
X12689068Y24358177D01*
X12910778Y24579500D01*
X14339500Y24579500D01*
X14773846Y24665897D01*
X14850417Y24717060D01*
X15767500Y24717060D01*
X16015265Y24766343D01*
X16225309Y24906691D01*
X16365657Y25116735D01*
X16414940Y25364500D01*
X16414940Y26888500D01*
X16365657Y27136265D01*
X16225309Y27346309D01*
X16015265Y27486657D01*
X15886500Y27512270D01*
X15886500Y27915730D01*
X16015265Y27941343D01*
X16225309Y28081691D01*
X16261927Y28136493D01*
X17224208Y27174213D01*
X17224210Y27174210D01*
X17511325Y26982367D01*
X17553303Y26974017D01*
X17850000Y26914999D01*
X17850005Y26915000D01*
X27412995Y26915000D01*
X27413000Y26914999D01*
X27709697Y26974017D01*
X27751675Y26982367D01*
X28038790Y27174210D01*
X28735787Y27871208D01*
X28735790Y27871210D01*
X28927633Y28158325D01*
X28956029Y28301079D01*
X28969532Y28368960D01*
X29119765Y28398843D01*
X29329809Y28539191D01*
X29470157Y28749235D01*
X29519440Y28997000D01*
X29519440Y31029000D01*
X29470157Y31276765D01*
X29329809Y31486809D01*
X29119765Y31627157D01*
X28971810Y31656587D01*
X28927633Y31878674D01*
X28927633Y31878675D01*
X28780275Y32099213D01*
X29018566Y32258434D01*
X29320132Y32560000D01*
X31245000Y32560000D01*
X31679346Y32646397D01*
X32047566Y32892434D01*
X32658012Y33502880D01*
X34950250Y33502880D01*
X35198015Y33552163D01*
X35408059Y33692511D01*
X35548407Y33902555D01*
X35597690Y34150320D01*
X35597690Y36347178D01*
X36215000Y35729868D01*
X36215000Y32268623D01*
X35597210Y31650832D01*
X35548407Y31896185D01*
X35408059Y32106229D01*
X35198015Y32246577D01*
X34950250Y32295860D01*
X30949750Y32295860D01*
X30701985Y32246577D01*
X30491941Y32106229D01*
X30351593Y31896185D01*
X30302310Y31648420D01*
X30302310Y29149060D01*
X30351593Y28901295D01*
X30491941Y28691251D01*
X30701985Y28550903D01*
X30949750Y28501620D01*
X34950250Y28501620D01*
X35198015Y28550903D01*
X35408059Y28691251D01*
X35548407Y28901295D01*
X35597690Y29149060D01*
X35597690Y29263740D01*
X35950250Y29263740D01*
X36384596Y29350137D01*
X36752816Y29596174D01*
X38152566Y30995923D01*
X38398603Y31364144D01*
X38415749Y31450345D01*
X38485000Y31798490D01*
X38485000Y36200000D01*
X38398603Y36634346D01*
X38152566Y37002566D01*
X36802567Y38352565D01*
X36744187Y38391573D01*
X36434347Y38598602D01*
X36202158Y38644787D01*
X36234759Y38723298D01*
X36235240Y39274285D01*
X36209196Y39337317D01*
X39262983Y42391105D01*
X39670573Y42390749D01*
X40179803Y42601158D01*
X40470140Y42890989D01*
X41225984Y42890989D01*
X41225989Y42890988D01*
X41508473Y42947179D01*
X41564664Y42958356D01*
X41851779Y43150199D01*
X42292140Y43590560D01*
X43466000Y43590560D01*
X43713765Y43639843D01*
X43840750Y43724692D01*
X43967735Y43639843D01*
X44215500Y43590560D01*
X46247500Y43590560D01*
X46495265Y43639843D01*
X46705309Y43780191D01*
X46845657Y43990235D01*
X46894940Y44238000D01*
X46894940Y45762000D01*
X46845657Y46009765D01*
X46705309Y46219809D01*
X46495265Y46360157D01*
X46247500Y46409440D01*
X44808796Y46409440D01*
X44980017Y46443498D01*
X45429343Y46743728D01*
X45720000Y47178727D01*
X46010657Y46743728D01*
G36*
X69793560Y49544200D02*
X69793560Y41049000D01*
X69842843Y40801235D01*
X69936643Y40660855D01*
X69183440Y39907652D01*
X69183440Y40160000D01*
X69134157Y40407765D01*
X68993809Y40617809D01*
X68783765Y40758157D01*
X68536000Y40807440D01*
X67647000Y40807440D01*
X67399235Y40758157D01*
X67189191Y40617809D01*
X67048843Y40407765D01*
X66999560Y40160000D01*
X66999560Y39677977D01*
X66956500Y39461500D01*
X66956500Y38497000D01*
X66059500Y38497000D01*
X65529483Y38391573D01*
X65150993Y38138674D01*
X65080157Y38091343D01*
X61866148Y34877334D01*
X60977798Y34877334D01*
X58535193Y37319939D01*
X58535240Y37374285D01*
X58324831Y37883515D01*
X57935564Y38273461D01*
X57426702Y38484759D01*
X57328017Y38484845D01*
X57348602Y38515653D01*
X57434999Y38949999D01*
X57434999Y47407724D01*
X57466002Y47361325D01*
X57524210Y47274210D01*
X58665116Y46133305D01*
X58664760Y45725715D01*
X58875169Y45216485D01*
X59264436Y44826539D01*
X59773298Y44615241D01*
X60324285Y44614760D01*
X60833515Y44825169D01*
X61223461Y45214436D01*
X61434759Y45723298D01*
X61435240Y46274285D01*
X61224831Y46783515D01*
X61193401Y46815000D01*
X65776477Y46815000D01*
X66064436Y46526539D01*
X66573298Y46315241D01*
X67124285Y46314760D01*
X67633515Y46525169D01*
X68023461Y46914436D01*
X68234759Y47423298D01*
X68235240Y47974285D01*
X68024831Y48483515D01*
X67635564Y48873461D01*
X67126702Y49084759D01*
X66575715Y49085240D01*
X66066485Y48874831D01*
X65776148Y48585000D01*
X61216579Y48585000D01*
X60435000Y49366580D01*
X60435000Y49706151D01*
X60903952Y49392808D01*
X61529639Y49268351D01*
X61987044Y49268351D01*
X62120621Y49068441D01*
X62330665Y48928093D01*
X62578430Y48878810D01*
X64079570Y48878810D01*
X64327335Y48928093D01*
X64537379Y49068441D01*
X64677727Y49278485D01*
X64727010Y49526250D01*
X64727010Y49891500D01*
X69446260Y49891500D01*
X69793560Y49544200D01*
X69793560Y49544200D01*
G37*
X69793560Y49544200D02*
X69793560Y41049000D01*
X69842843Y40801235D01*
X69936643Y40660855D01*
X69183440Y39907652D01*
X69183440Y40160000D01*
X69134157Y40407765D01*
X68993809Y40617809D01*
X68783765Y40758157D01*
X68536000Y40807440D01*
X67647000Y40807440D01*
X67399235Y40758157D01*
X67189191Y40617809D01*
X67048843Y40407765D01*
X66999560Y40160000D01*
X66999560Y39677977D01*
X66956500Y39461500D01*
X66956500Y38497000D01*
X66059500Y38497000D01*
X65529483Y38391573D01*
X65150993Y38138674D01*
X65080157Y38091343D01*
X61866148Y34877334D01*
X60977798Y34877334D01*
X58535193Y37319939D01*
X58535240Y37374285D01*
X58324831Y37883515D01*
X57935564Y38273461D01*
X57426702Y38484759D01*
X57328017Y38484845D01*
X57348602Y38515653D01*
X57434999Y38949999D01*
X57434999Y47407724D01*
X57466002Y47361325D01*
X57524210Y47274210D01*
X58665116Y46133305D01*
X58664760Y45725715D01*
X58875169Y45216485D01*
X59264436Y44826539D01*
X59773298Y44615241D01*
X60324285Y44614760D01*
X60833515Y44825169D01*
X61223461Y45214436D01*
X61434759Y45723298D01*
X61435240Y46274285D01*
X61224831Y46783515D01*
X61193401Y46815000D01*
X65776477Y46815000D01*
X66064436Y46526539D01*
X66573298Y46315241D01*
X67124285Y46314760D01*
X67633515Y46525169D01*
X68023461Y46914436D01*
X68234759Y47423298D01*
X68235240Y47974285D01*
X68024831Y48483515D01*
X67635564Y48873461D01*
X67126702Y49084759D01*
X66575715Y49085240D01*
X66066485Y48874831D01*
X65776148Y48585000D01*
X61216579Y48585000D01*
X60435000Y49366580D01*
X60435000Y49706151D01*
X60903952Y49392808D01*
X61529639Y49268351D01*
X61987044Y49268351D01*
X62120621Y49068441D01*
X62330665Y48928093D01*
X62578430Y48878810D01*
X64079570Y48878810D01*
X64327335Y48928093D01*
X64537379Y49068441D01*
X64677727Y49278485D01*
X64727010Y49526250D01*
X64727010Y49891500D01*
X69446260Y49891500D01*
X69793560Y49544200D01*
M02*
