M48
; DRILL file {KiCad (6.0.0-rc1-dev-1497-g419718b59)} date Δευ 11 Φεβ 2019 10:58:23 πμ EET
; FORMAT={-:-/ absolute / metric / decimal}
; #@! TF.CreationDate,2019-02-11T10:58:23+02:00
; #@! TF.GenerationSoftware,Kicad,Pcbnew,(6.0.0-rc1-dev-1497-g419718b59)
FMAT,2
METRIC
T1C0.701
T2C0.800
T3C1.000
T4C1.200
T5C3.200
%
G90
G05
T1
X63.329Y51.526
X63.329Y40.927
T2
X-2.243Y9.363
X-1.842Y-3.22
X-0.65Y42.9
X-0.65Y15.2
X2.484Y38.944
X4.083Y25.364
X4.845Y37.556
X6.369Y4.282
X6.877Y10.378
X9.163Y25.364
X9.525Y33.02
X10.941Y9.87
X14.679Y-2.757
X19.271Y23.927
X24.912Y42.128
X26.558Y43.53
X26.65Y-2.629
X28.45Y55.082
X29.85Y45.0
X29.994Y8.405
X30.15Y18.9
X30.65Y39.2
X31.85Y-2.7
X32.35Y13.3
X32.55Y39.1
X33.294Y-5.687
X34.85Y39.0
X36.05Y44.7
X37.25Y19.1
X39.25Y53.0
X39.348Y41.365
X39.396Y43.776
X40.255Y38.8
X41.75Y53.0
X42.85Y32.7
X46.502Y55.019
X47.05Y7.3
X53.05Y46.3
X53.05Y17.1
X53.613Y-4.099
X54.15Y36.8
X54.75Y48.4
X57.15Y37.1
X58.35Y25.6
X58.757Y17.554
X60.027Y36.985
X60.05Y46.0
X60.85Y25.9
X61.286Y13.236
X61.297Y15.077
X61.53Y50.903
X62.059Y36.985
X63.583Y6.251
X63.71Y0.345
X65.55Y51.526
X65.996Y31.27
X66.85Y47.7
X68.472Y21.046
X70.441Y20.856
X70.504Y-0.988
X71.003Y24.305
X72.185Y5.015
X79.267Y25.872
X81.172Y43.335
X81.49Y-6.068
X81.553Y22.316
X83.078Y43.335
X83.84Y10.633
X84.192Y53.542
X84.49Y28.38
X85.871Y19.205
X86.316Y53.495
X87.568Y28.799
X87.586Y20.602
X88.079Y33.184
X88.538Y53.431
X89.11Y15.966
X89.681Y20.538
X90.825Y53.431
X91.713Y29.682
X65.932Y23.015
X65.932Y21.015
X65.932Y19.015
X65.932Y17.015
X65.932Y15.015
X65.932Y13.015
X65.932Y11.015
X65.932Y9.015
X65.932Y7.015
X65.932Y5.015
X65.932Y3.015
X65.932Y1.015
X65.932Y-0.985
X65.932Y-2.985
X92.682Y23.015
X92.682Y21.015
X92.682Y19.015
X92.682Y17.015
X92.682Y15.015
X92.682Y13.015
X92.682Y11.015
X92.682Y9.015
X92.682Y7.015
X92.682Y5.015
X92.682Y3.015
X92.682Y1.015
X92.682Y-0.985
X92.682Y-2.985
T3
X4.591Y-0.289
X7.131Y-0.289
X9.671Y-0.289
X12.211Y-0.289
X6.653Y32.064
X6.653Y29.524
X6.653Y26.984
X6.653Y24.444
X6.653Y21.904
X6.653Y19.364
X6.653Y16.825
X11.733Y33.334
X11.733Y30.794
X11.733Y28.255
X11.733Y25.714
X11.733Y23.174
X11.733Y20.634
X11.733Y18.095
X11.733Y15.554
X56.661Y-2.004
X59.201Y-2.004
X61.741Y-2.004
X4.826Y48.26
X7.366Y48.26
X9.906Y48.26
X12.446Y48.26
X14.986Y48.26
X17.526Y48.26
X19.05Y0.0
X20.066Y48.26
X21.59Y0.0
X22.606Y48.26
X24.13Y0.0
X25.146Y48.26
X26.67Y0.0
X27.686Y48.26
X29.21Y0.0
X31.75Y48.26
X31.75Y0.0
X34.29Y48.26
X36.83Y48.26
X36.83Y0.0
X39.37Y48.26
X39.37Y0.0
X41.91Y48.26
X41.91Y0.0
X44.45Y48.26
X44.45Y0.0
X46.99Y48.26
X46.99Y0.0
X49.53Y48.26
X49.53Y0.0
X49.74Y28.984
X49.74Y26.444
X49.74Y23.904
X49.74Y21.364
T4
X74.759Y-6.068
X77.299Y-6.068
X23.898Y14.247
X23.898Y11.707
X72.917Y37.747
X75.457Y37.747
X36.722Y55.082
X39.262Y55.082
X41.802Y55.082
X44.343Y55.082
X24.046Y35.601
X24.046Y33.061
X36.722Y-5.75
X39.262Y-5.75
X41.802Y-5.75
X44.343Y-5.75
X80.093Y38.319
X82.633Y38.319
X85.173Y38.319
X87.713Y38.319
X90.253Y38.319
X92.793Y38.319
X86.76Y-6.068
X89.3Y-6.068
X57.677Y31.016
X60.217Y31.016
X90.126Y46.764
X92.666Y46.764
T5
X0.0Y0.0
X1.27Y48.26
X52.07Y33.02
X52.07Y5.08
T0
M30
